<?xml version="1.0" encoding="UTF-8"?>
<svg id="_x2014_ÎÓÈ_x5F_1" xmlns="http://www.w3.org/2000/svg" version="1.1" viewBox="0 0 600 200">
  <!-- Generator: Adobe Illustrator 29.0.1, SVG Export Plug-In . SVG Version: 2.1.0 Build 192)  -->
  <defs>
    <style>
      .st0 {
        fill: #e8e3d1;
      }

      .st1 {
        fill: #fff;
      }

      .st2 {
        fill-opacity: 0;
      }

      .st3 {
        fill: #d3d3d3;
      }

      .st4 {
        fill: #ffd481;
      }
    </style>
  </defs>
  <polygon class="st3" points="224.1 166.2 224.1 162.6 223 162.6 223 161.9 223.6 161.9 223.6 157.8 222.8 157.8 222.8 154.5 221.8 154.5 221.8 156.7 221.1 156.7 221.1 158 218 158 218 156.9 217.1 156.9 217.1 154.7 216.1 154.7 216.1 156.9 215.3 156.9 215.3 158 214.3 158 214.3 152.2 213.6 152.2 213.6 149.6 212.6 149.6 212.6 151.8 211.9 151.8 211.9 152.2 210.7 152.2 210.7 141 209.6 141 209.6 120.9 209.9 120.9 209.9 119.9 209.5 119.9 209.5 119 209.3 119 209.3 114.8 209.5 114.8 209.5 113.8 209.9 113.8 209.9 112.9 208.9 112.9 206 97.3 205 97.3 205 94.8 205 94.2 205 92.8 206 92.8 206 91.9 205 91.9 205 90.9 204.1 90.9 204.1 91.9 203.1 91.9 203.1 92.8 204.1 92.8 204.1 94.2 204.1 94.8 204.1 97.3 203.1 97.3 200.2 112.9 199.2 112.9 199.2 113.8 199.5 113.8 199.5 114.8 199.7 114.8 199.7 119 199.5 119 199.5 119.9 199.2 119.9 199.2 120.9 199.5 120.9 199.5 141 198.3 141 198.3 152.2 197.4 152.2 197.4 151.8 196.6 151.8 196.6 149.6 195.6 149.6 195.6 151.8 195 151.8 195 158 193.9 158 193.9 156.9 193.1 156.9 193.1 154.7 192.2 154.7 192.2 156.9 191.2 156.9 191.2 158 188.2 158 188.2 156.7 187.4 156.7 187.4 154.5 186.4 154.5 186.4 157.8 185.7 157.8 185.7 161.9 186.2 161.9 186.2 162.6 185 162.6 185 166.2 184.2 166.2 184.2 184.8 224.9 184.8 224.9 166.2 224.1 166.2"/>
  <path class="st4" d="M246.5,181h-.8c-.6-.3-2.6-.6-4.9-.6s-4.3.3-4.9.6h-5.7v-36.7h-2.7v-15.5h-6v-3h0v-4.6l-1.3-1.1v-2.5c0-.2-.5-.4-1-.4h-9.6c-.6,0-1,.2-1,.4s0,1.2-.1,2.7l-1,.9v12h-2.7v6.5h-3.1v13.7h-1.4v10h-2.1v18.6h-11.6v2.7h59.5v-3.3h.6v-.4h-.2Z"/>
  <rect class="st1" x="393.8" y="118.7" width="56.3" height="66.1"/>
  <path class="st4" d="M420.6,157.9v-.5h-.9v-14.2h0v-23.3h.2v-.2h-.2v-.9h0v-.2h.2v-.2h-.2v-.5h.2v-.5h-1.6v-4.7h-.1v-.5h.1v-.2h-.1v-.4h.1v-.2h-.1v-.4h.1v-.2h-.1v-.4h.1v-.2h-.1v-.4h.1v-.2h-.1v-.4h.1v-.2h-.1v-.4h.1v-.2h-.1v-.3s0-.2-.1-.2v-.6h-.4c0,0-.1-.2-.3-.2s0,0-.1,0h0v-.2h0c0,0-.1-.2-.2-.2s0,0,0,0h0v-.3h-.1c0,0-.1-.2-.2-.2s0,0,0,0v-.2h0c0,0-.1-.2-.3-.2s0,0-.1,0h0v-.2h0c0,0-.1-.2-.2-.2h-.1v-.2h0c0,0-.1-.2-.3-.2s0,0-.1,0h0v-.2h0c0,0-.1-.2-.2-.2h-.1v-.2h.1c0-.2-.1-.3-.2-.3s0,0,0,0v-.2h.1c0-.2-.1-.3-.2-.3s0,0,0,0h0v-.2h0c0-.2-.1-.3-.2-.3s0,0,0,0h0v-.2h.2c0,0-.1-.2-.3-.2s0,0,0,0v-.2h.1c0-.2-.1-.3-.3-.3s0,0,0,0v-.2h.1c0-.2-.1-.3-.2-.3s0,0,0,0h0v-.2h.1c0-.2-.1-.3-.3-.3s0,0,0,0v-.3c.2,0,.3-.3.3-.5h0c0-.3-.3-.6-.7-.7v-.2c.3,0,.5-.3.5-.5h0s.1,0,.1,0,0,0-.1,0h0c0-.3-.3-.5-.7-.5v-3.4h-.2v3.4c-.3,0-.6.2-.7.5h0s-.1,0-.1,0,0,0,.1,0h0c0,.2.3.4.5.5v.2c-.4,0-.6.4-.7.7h0s-.1,0-.1,0,0,0,.1,0h0c0,.2.2.4.4.5v.3h0c-.1,0-.3,0-.3.2s0,.2.2.2v.2c-.1,0-.2,0-.2.2s0,0,.1.2v.2h0c-.1,0-.2,0-.2.2s0,.2.2.2v.2h0c-.1,0-.3,0-.3.2s0,.2.2.2v.2h0c-.1,0-.2,0-.2.2s0,.2.1.2v.2h-.1c-.1,0-.2,0-.2.2s0,.2.2.2v.2h0c-.1,0-.2,0-.2.2s0,.2.2.2v.2h-.1c-.1,0-.2,0-.2.2s0,.2.2.2v.2h-.1c-.1,0-.3,0-.3.2s0,.2.2.2v.2h-.1c-.1,0-.2,0-.2.2s0,.2.2.2v.2h-.1c-.1,0-.3,0-.3.2s0,.2.2.2v.2h-.1c-.1,0-.2,0-.2.2s0,.2.1.2v.2h-.1c-.1,0-.2,0-.2.2s0,0,0,0v.2h-.2c-.1,0-.3,0-.3.2s0,0,0,0h-.4v.6s-.1,0-.1.2v.2h0v.3h0v.4h0v.2h0v.4h0v.2h0v.4h0v.2h0v.4h0v.2h0v.4h0v.2h0v.4h0v.2h0v.5h0v4.7h-1.6v.5h.2v.5h-.2v.2h.2v.2h0v.9h-.2v.2h.2v23.3h0v14.2h-.9v.5h.2v.7h-.2v.5l.7.6h.2v12h-.9v.5h.2v.7h-.2v.5l.7.6h.2v8.8h12v-8.8h.1l.7-.6v-.5h-.2v-.7h.2v-.5h-.9v-12h.1l.7-.6v-.5h-.2v-.7h.2l-1.2-2ZM417.7,107.3h0ZM407.2,157.9h.5v.7h-.5v-.7ZM407.2,172.3h.5v.7h-.5v-.7ZM420.1,172.3v.7h-.4v-.7h.4ZM420.1,158.6h-.4v-.7h.4v.7Z"/>
  <polygon class="st1" points="306.1 124.2 306.1 114 270.7 114 270.7 124.2 269 124.2 269 184.8 307.8 184.8 307.8 124.2 306.1 124.2"/>
  <polygon class="st1" points="264.1 139.3 264.1 131.8 235.3 131.8 235.3 139.3 233.9 139.3 233.9 184.8 265.5 184.8 265.5 139.3 264.1 139.3"/>
  <path class="st1" d="M560.2,98.5v-10.2h-26.9v11.1-.8s5,61.5,5.3,69.7c0,1-2.4,2-3.4,2h-1.9v14.5h26.9v-14.5h-3.8s2.2-59.3,3.8-71.8h0Z"/>
  <polygon class="st1" points="476.9 83 476.9 78 472 78 472 74.9 452 74.9 452 83 452 89.3 448.9 89.3 448.9 108.1 452 108.1 452 184.8 482.5 184.8 482.5 83 476.9 83"/>
  <path class="st0" d="M566.4,184.8c-.2-4.2-3.7-7.6-7.9-7.6s-7.7,3.4-7.9,7.6h15.9,0Z"/>
  <polygon class="st1" points="379 171 379 83.2 381.8 83.2 381.8 56 379 56 347.8 56 339.7 56 339.7 82.9 344.9 82.9 344.9 184.8 357.3 184.8 379 184.8 391.4 184.8 391.4 171 379 171"/>
  <polygon class="st4" points="359.2 135.3 359.2 127 290.4 127 290.4 135.3 287.1 135.3 287.1 184.8 362.6 184.8 362.6 135.3 359.2 135.3"/>
  <polygon class="st4" points="543 104.6 543 103.7 541.2 103.7 541.2 103.2 540.6 103.2 540.6 101.6 540.2 101.6 540.2 95.2 539.8 95.2 539.8 101.6 539.5 101.6 539.5 103.2 538.9 103.2 538.9 103.7 537.1 103.7 537.1 104.6 532.3 104.6 532.3 103.2 526.4 103.2 526.4 104.6 524.3 104.6 524.3 103.2 518.4 103.2 518.4 104.6 512.3 104.6 512.3 103.2 508.8 103.2 508.8 101.7 508 101.7 508 101.5 507 101.5 507 101.2 506.4 101.2 506.4 99.6 506 99.6 506 93.2 505.6 93.2 505.6 99.6 505.3 99.6 505.3 101.2 504.7 101.2 504.7 101.5 503.7 101.5 503.7 101.7 502.9 101.7 502.9 103.2 502.8 103.2 502.8 101.7 501 101.7 501 101.5 501 101.2 501 100.7 500.5 100.7 500.5 100.5 501 100.5 501 99.7 500.5 99.7 500.5 99.3 501 99.3 501 98.7 500.5 98.7 500.5 98.3 501 98.3 501 97.7 500.5 97.7 500.5 97.5 500.3 97.5 500.3 95.2 500 95.2 500 73 499.7 73 499.7 95.2 499.3 95.2 499.3 97.5 499.1 97.5 499.1 97.7 498.7 97.7 498.7 98.3 499.1 98.3 499.1 98.7 498.7 98.7 498.7 99.3 499.1 99.3 499.1 99.7 498.7 99.7 498.7 100.5 499.1 100.5 499.1 100.7 498.7 100.7 498.7 101.2 498.7 101.5 498.7 101.7 496.9 101.7 496.9 103.2 493.9 103.2 493.9 184.8 510.8 184.8 512.3 184.8 548.6 184.8 548.6 104.6 543 104.6"/>
  <polygon class="st0" points="547.7 170.2 547.7 167.4 546.8 167.4 546.8 166.9 547.3 166.9 547.3 163.6 546.7 163.6 546.7 161 545.9 161 545.9 162.8 545.3 162.8 545.3 163.8 543 163.8 543 163 542.2 163 542.2 161.3 541.4 161.3 541.4 163 540.8 163 540.8 163.8 540 163.8 540 159.3 539.5 159.3 539.5 157.3 538.7 157.3 538.7 159 538.1 159 538.1 159.3 537.2 159.3 537.2 150.5 536.3 150.5 536.3 134.8 536.6 134.8 536.6 134 536.3 134 536.3 133.3 536.1 133.3 536.1 130 536.3 130 536.3 129.3 536.6 129.3 536.6 128.5 535.8 128.5 533.6 116.3 532.8 116.3 532.8 114.4 532.8 113.9 532.8 112.8 533.6 112.8 533.6 112 532.8 112 532.8 111.3 532 111.3 532 112 531.2 112 531.2 112.8 532 112.8 532 113.9 532 114.4 532 116.3 531.2 116.3 529 128.5 528.2 128.5 528.2 129.3 528.5 129.3 528.5 130 528.6 130 528.6 133.3 528.5 133.3 528.5 134 528.2 134 528.2 134.8 528.5 134.8 528.5 150.5 527.5 150.5 527.5 159.3 526.8 159.3 526.8 159 526.2 159 526.2 157.3 525.4 157.3 525.4 159 524.9 159 524.9 163.8 524.1 163.8 524.1 163 523.4 163 523.4 161.3 522.7 161.3 522.7 163 521.9 163 521.9 163.8 519.6 163.8 519.6 162.8 519 162.8 519 161 518.2 161 518.2 163.6 517.6 163.6 517.6 166.9 518 166.9 518 167.4 517.1 167.4 517.1 170.2 516.5 170.2 516.5 184.8 548.3 184.8 548.3 170.2 547.7 170.2"/>
  <path class="st4" d="M447.6,171.2h0v-7.1h.1v-.7h-.1.5l-.5-1.2v-.8h-.3l-2.3-5.8h-6.5v-.6h.1v-.6l-1.2-.6-1.2.6v.6h.1v.6h-18.6v-.6h.1v-.6l-1.2-.6-1.2.6v.6h.1v.6h-6.9v-15.6h.6v-.8h-.4v-1.6h-1v-1.6h-.7v-.8h-1v-.5h-.3v-6.8h0v-1.2h1.9v-1.3h-.7v-.7h-1v-.5h-.3v-6.9h.3v-1.5h-.5v-.8h-.4v-5.2h.4v-2h-1.1v-.5h.3v-1.8h.4v-1.8h-.4c-.1-.4-.4-.7-.7-1h0v-.3c0-.5-.2-.9-.5-1.2,0-.5-.3-.8-.7-1v-2.3h.7v-.5h-.7v-1.1h-.4v1.1h-.7v.5h.7v2.3c-.4,0-.8.5-.8,1-.3.3-.5.7-.5,1.2s0,.2,0,.3h0c-.3.4-.5.7-.6,1h-.3v1.8h.4v1.8h.3v.4h0c0,0-1.1,0-1.1,0v2h.4v5.2h-.4v.8h-.5v1.5h.3v6.9h-.3v.5h-.9v.7h-.7v1.3h1.9v8h-.3v.5h-.9v.8h-.7v1.6h-.9v1.6h-.4v.8h.7v35.5l-1.2,1h0v.8h1v.5h0v6.1h-.8v.9h51.4v-2.4h0v-10.8h.2v-.4h-.2.1Z"/>
  <polygon class="st3" points="492.6 154.2 492.6 153.4 491.6 153.4 491.6 145.9 491.2 145.9 491.2 145.2 491 145.2 491 142.1 490.8 142.1 490.8 140.7 490.4 140.7 490.4 142.1 490.2 142.1 490.2 145.2 490 145.2 490 145.9 489.6 145.9 489.6 143.5 488.7 143.5 488.7 142.7 487.6 142.7 487.6 138.7 488 138.7 488 138 487.4 138 485.2 116.7 484.9 116.7 484.9 115.8 484.7 115.8 484.7 106 484.3 106 484.3 115.8 484.1 115.8 484.1 116.7 483.7 116.7 481.6 138 480.9 138 480.9 138.7 481.4 138.7 481.4 142.7 480.3 142.7 480.3 143.5 479.4 143.5 479.4 145.9 478.9 145.9 478.9 145.2 478.7 145.2 478.7 142.2 478.5 142.2 478.5 140.7 478.1 140.7 478.1 142.2 477.9 142.2 477.9 145.2 477.6 145.2 477.6 145.9 477.4 145.9 477.4 153.4 476.4 153.4 476.4 154.2 477.4 154.2 477.4 160.8 476.4 160.8 476.4 161.7 477.4 161.7 477.4 169.9 476.4 169.9 476.4 184.8 492.6 184.8 492.6 169.9 491.6 169.9 491.6 161.7 492.6 161.7 492.6 160.8 491.6 160.8 491.6 154.2 492.6 154.2"/>
  <polygon class="st0" points="481.2 129.9 480.2 129.9 478.7 129.9 477.6 129.9 476.7 129.9 475.6 129.9 474.7 129.9 473.6 129.9 472.7 129.9 471.6 129.9 470.7 129.9 469.6 129.9 468.7 129.9 467.5 129.9 466.6 129.9 465.5 129.9 464.6 129.9 463.5 129.9 462.6 129.9 461.5 129.9 460.6 129.9 459.5 129.9 458.6 129.9 457.5 129.9 456.6 129.9 455.5 129.9 454.6 129.9 453.5 129.9 452.6 129.9 451.5 129.9 450.6 129.9 449.4 129.9 448.5 129.9 447.4 129.9 446.9 129.9 446.9 130.8 446.9 131.9 446.9 133.4 446.9 133.9 446.9 134.8 446.9 135.9 446.9 137.4 446.9 138 446.9 138.8 446.9 139.9 446.9 141.8 446.9 142.9 446.9 144.4 446.9 145 446.9 145.9 446.9 147 446.9 148.5 446.9 149 446.9 149.9 446.9 151 446.9 152.9 446.9 154 446.9 155.5 446.9 156.1 446.9 156.9 446.9 158 446.9 159.5 446.9 160.1 446.9 160.9 446.9 162.1 446.9 164 446.9 165.1 446.9 166.6 446.9 167.1 446.9 168 446.9 169.1 446.9 171.6 446.9 172.2 446.9 173.3 446.9 174.4 446.9 175.6 446.9 176.2 446.9 177 446.9 178.1 446.9 179.6 446.9 180.2 446.9 181.1 446.9 182.2 446.9 183.7 446.9 184.2 446.9 184.8 447.4 184.8 448.5 184.8 449.4 184.8 450.6 184.8 451.5 184.8 452.6 184.8 453.5 184.8 454.6 184.8 455.5 184.8 456.6 184.8 457.5 184.8 458.6 184.8 459.5 184.8 460.6 184.8 461.5 184.8 462.6 184.8 463.5 184.8 464.6 184.8 465.5 184.8 466.6 184.8 467.5 184.8 468.7 184.8 469.6 184.8 470.7 184.8 471.6 184.8 472.7 184.8 473.6 184.8 474.7 184.8 475.6 184.8 476.7 184.8 477.6 184.8 478.7 184.8 480.2 184.8 481.2 184.8 481.3 184.8 481.3 129.9 481.2 129.9"/>
  <path class="st0" d="M399,123.3v-1.2h-.2c0-.7-.6-1.3-1.3-1.5v-1.9c0-.5-.2-1-.6-1.3.4-.3.7-.7.7-1.2h.1v-1.2h-.3v-1.6h-.1v-2.3h-.3v2.3h-.1v1.6h-.7l-.9-11.7c0-1.1-.5-2.1-1.2-2.8.4-.5.6-1.1.6-1.8,0-1.5-1-2.7-2.4-3.1v-.9c0-.2-.2-.3-.4-.3h-.1v-1c.2-.2.4-.4.4-.7v-1.5c0-.3-.2-.6-.4-.7v-.9h.2v-.6h-.4v-3.5h.4v-.6h-.4c.2,0,.3-.3.3-.6s-.2-.6-.5-.6v-2.9h-.3v2.9c-.3,0-.5.3-.5.6s.1.4.3.6h-.4v.6h.5v3.5h-.5v.6h.2v.9c-.3.2-.4.4-.4.7v1.5c0,.3.2.6.4.7v1h-.1c-.2,0-.4.2-.4.3v.9c-1.4.4-2.4,1.7-2.4,3.1s.2,1.3.6,1.8c-.7.7-1.2,1.7-1.2,2.8l-.9,11.7h-.5v-1.6h-.1v-2.3h-.3v2.3h-.1v1.6h-.4v1.2h.1c0,.5.2.9.6,1.2-.4.3-.7.8-.7,1.4v1.4c0,.2,0,.4.1.6-.6.3-1.1.8-1.1,1.4h-.2v1.2h1.6v7.5h-.5v11.8l-5.2-5.1h0v-.9s0-.1-.2-.1h0v-.4c.1,0,.2-.2.2-.3v-.6c0-.1,0-.2-.2-.3v-.4h0v-.3h-.2v-1.5h.2v-.3h-.2c.1,0,.2-.1.2-.2s0-.2-.2-.2v-1.2h-.1v1.2c-.1,0-.2.1-.2.2s0,.2.2.2h-.2v.3h.2v1.5h-.2v.3h.1v.4c-.1,0-.2.2-.2.3v.6c0,.1,0,.2.2.3v.4h0s-.2,0-.2.1v.9h0l-5.2,5.1v-11.8h-.5v-7.5h1.6v-1.2h-.2c0-.7-.6-1.3-1.3-1.5v-1.9c0-.5-.2-1-.6-1.3.4-.3.7-.7.7-1.2h.1v-1.2h-.3v-1.6h-.1v-2.3h-.3v2.3h-.1v1.6h-.7l-.9-11.7c0-1.1-.5-2.1-1.2-2.8.4-.5.6-1.1.6-1.8,0-1.5-1-2.7-2.4-3.1v-.9c0-.2-.2-.3-.4-.3h-.1v-1c.2-.2.4-.4.4-.7v-1.5c0-.3-.2-.6-.4-.7v-.9h.2v-.6h-.4v-3.5h.4v-.6h-.4c.2,0,.3-.3.3-.6s-.2-.6-.5-.6v-2.9h-.3v2.9c-.3,0-.5.3-.5.6s.1.4.3.6h-.4v.6h.5v3.5h-.5v.6h.2v.9c-.3.2-.4.4-.4.7v1.5c0,.3.2.6.4.7v1h-.1c-.2,0-.4.2-.4.3v.9c-1.4.4-2.4,1.7-2.4,3.1s.2,1.3.6,1.8c-.7.7-1.2,1.7-1.2,2.8l-.9,11.7h-.5v-1.6h-.1v-2.3h-.3v2.3h-.1v1.6h-.4v1.2h.1c0,.5.2.9.6,1.2-.4.3-.7.8-.7,1.4v1.4c0,.2,0,.4.1.6-.6.3-1.1.8-1.1,1.4h-.2v1.2h1.6v7.5h-.5v53.8h36.7v-53.8h-.5v-7.5h1.6l.7-.2Z"/>
  <path class="st1" d="M55,180.3h1.8v4.5h130.9v-4.9h1v-30h-5v-3.9h-7.9v-73.4h-1.3v-1.4h1.3v-1h-20.7v-4.9h-.8v-14.2h-.6v-14.1h-1.1c0,0-.2,0-.2,0v-3.5h-.4v3.5h0c0,0-1.1,0-1.1,0v14.1h-.6v14.2h-.8v4.9h-20.8v1h.9v1.4h-.8v68.9h-17.3v-1.5h-4.4v1.5h-3.3v4.5h-16.3v4.2h-10.4v-1.6h-4.4v1.6h-1.4v3.6h-16.3v26.4h0ZM151.3,58.4h1.7v1.9h-1.7v-1.9ZM151.3,55.4h1.7v1.9h-1.7v-1.9ZM151.3,52.4h1.7v1.9h-1.7v-1.9ZM151.9,41.5h.6v.9h-.6v-.9ZM152.5,43.5v.9h-.6v-.9h.6ZM152.5,45.5v.9h-.6v-.9h.6ZM152.5,47.5v.9h-.6v-.9h.6ZM152.5,49.5v1.7h-.6v-1.7h.6ZM153.1,63.3h-1.7v-1.9h1.7v1.9ZM152.5,38.5v1.9h-.6v-1.9h.6ZM153.1,65.4h-1.7v-1h1.7v1ZM132.7,71.3h1.5v1h-1.5v-1ZM135.1,71.3h1.5v1h-1.5v-1ZM137.5,71.3h1.5v1h-1.5v-1ZM139.9,71.3h1.5v1h-1.5v-1ZM142.2,71.3h1.5v1h-1.5v-1ZM144.6,71.3h1.5v1h-1.5v-1ZM157.7,72.3v-1h1.5v1h-1.5ZM160.1,71.3h1.5v1h-1.5v-1ZM162.5,71.3h1.5v1h-1.5v-1ZM164.9,71.3h1.5v1h-1.5v-1ZM167.2,71.3h1.5v1h-1.5v-1ZM169.6,71.3h1.5v1h-1.5v-1ZM130.3,71.3h1.5v1.4h-1.5v-1.4ZM149.4,71.3v1h-2.4v-1h2.4ZM155,71.3h1.8v1h-1.8v-1ZM173.5,72.6h-1.4v-.4h-.1v-1h1.5v1.4Z"/>
  <path class="st4" d="M554.3,184.8c-.5-11.1-9.6-19.9-20.8-19.9s-20.3,8.8-20.8,19.9h41.7-.1Z"/>
  <path class="st3" d="M71.7,104.6h0c0,0-4.7,0-4.7,0v-1.2h-.7v-2.3h-.3v-2h0v-1.4h0v-1.7h0c0,0-1,0-1,0v-.2h0v-1.3h0v1.3h0v.2h0c0,0,0-.7,0-.7h0v1.4h0v1.2h0v3.4h-.3v2.3h-.9v1.2h-4.7c0,0,.2,0,.2,0v.5h-.2v1h3.3v2.3h-3.3c0,0,.2,0,.2,0v.5h-.2v1h3.3v2.6h-3.3c0,0,.2,0,.2,0v.5h-.2v1h3.3v2.6h-3.3c0,0,.2,0,.2,0v.5h-.2v1h3.3v6.9h0v59.4h6.9v-59.4h0v-6.9h3.3v-1h0v-.5h0c0,0-3.3,0-3.3,0v-2.6h3.3v-1h0v-.5h0c0,0-3.3,0-3.3,0v-2.6h3.3v-1h0v-.5h0c0,0-3.3,0-3.3,0v-2.3h3.3v-1h0v-.5h0-.4ZM71,104.6v.5h-.3v-.5h.3ZM70.5,104.6v.5h-.3v-.5h.3ZM70.1,104.6v.5h-.3v-.5h.3ZM69.6,104.6v.5h-.3v-.5h.3ZM69.1,104.6v.5h-.3v-.5h.3ZM68.2,104.6v.5h-.3v-.5h.3ZM67.7,104.6v.5h-.3v-.5h.3ZM67.2,104.6v.5h-.2v-.5h.2ZM65.8,101.2v.3h-1.2v-.3h1.2ZM65.7,96.4h-.9v-.4h.9v.4ZM65.7,96.7v.3h-.9v-.3h.9ZM65.7,97.3v.3h-.9v-.3h.9ZM65.7,97.8v.3h-.9v-.3h.9ZM65.7,98.4v.3h-.9v-.3h.9ZM65.7,99v.3h-.9v-.3h.9ZM65.7,99.5v.3h-.9v-.3h.9ZM65.7,100.1v.3h-.9v-.3h.9ZM65.8,101.8v.3h-1.2v-.3h1.2ZM65.8,102.4v.3h-1.2v-.3h1.2ZM64.8,100.7h.9v.3h-.9v-.3ZM64.7,102.9h1.2v.3h-1.2v-.3ZM63.3,104.6v.5h0v-.5h0ZM63,104.6v.5h-.3v-.5h.3ZM62.5,104.6v.5h-.3v-.5h.3ZM61.6,104.6v.5h-.3v-.5h.3ZM61.1,104.6v.5h-.3v-.5h.3ZM60.6,104.6v.5h-.3v-.5h.3ZM60.2,104.6v.5h-.3v-.5h.3ZM59.7,104.6v.5h-.3v-.5h.3ZM58.9,104.6h.3v.5h-.3v-.5ZM61.7,105v-.5h.3v.5h-.3ZM61.6,108.4v.5h-.3v-.5h.3ZM61.1,108.4v.5h-.3v-.5h.3ZM60.6,108.4v.5h-.3v-.5h.3ZM60.2,108.4v.5h-.3v-.5h.3ZM59.7,108.4v.5h-.3v-.5h.3ZM58.9,108.4h.3v.5h-.3v-.5ZM61.7,108.9v-.5h0v.5h0ZM61.6,112.5v.5h-.3v-.5h.3ZM61.1,112.5v.5h-.3v-.5h.3ZM60.6,112.5v.5h-.3v-.5h.3ZM60.2,112.5v.5h-.3v-.5h.3ZM59.7,112.5v.5h-.3v-.5h.3ZM58.9,112.5h.3v.5h-.3v-.5ZM61.7,113v-.5h0v.5h0ZM61.6,116.6v.5h-.3v-.5h.3ZM61.1,116.6v.5h-.3v-.5h.3ZM60.6,116.6v.5h-.3v-.5h.3ZM60.2,116.6v.5h-.3v-.5h.3ZM59.7,116.6v.5h-.3v-.5h.3ZM58.9,116.6h.3v.5h-.3v-.5ZM61.7,117v-.5h0v.5h0ZM71.5,116.6v.5h-.3v-.5h.3ZM71,116.6v.5h-.3v-.5h.3ZM70.5,116.6v.5h-.3v-.5h.3ZM70.1,116.6v.5h-.3v-.5h.3ZM69.6,116.6v.5h-.3v-.5h.3ZM69.1,116.6v.5h-.3v-.5h.3ZM68.6,116.6v.5h-.2v-.5h.2ZM71.5,112.5v.5h-.3v-.5h.3ZM71,112.5v.5h-.3v-.5h.3ZM70.5,112.5v.5h-.3v-.5h.3ZM70.1,112.5v.5h-.3v-.5h.3ZM69.6,112.5v.5h-.3v-.5h.3ZM69.1,112.5v.5h-.3v-.5h.3ZM68.6,112.5v.5h-.2v-.5h.2ZM71.5,108.4v.5h-.3v-.5h.3ZM71,108.4v.5h-.3v-.5h.3ZM70.5,108.4v.5h-.3v-.5h.3ZM70.1,108.4v.5h-.3v-.5h.3ZM69.6,108.4v.5h-.3v-.5h.3ZM69.1,108.4v.5h-.3v-.5h.3ZM68.6,108.4v.5h-.2v-.5h.2ZM68.3,105v-.5h.3v.5h-.3ZM71.5,105h-.3v-.5h.3v.5Z"/>
  <polygon class="st4" points="199.7 62 198 62 198 59.8 168.8 59.8 168.8 62 167 62 167 143.5 165.3 143.5 165.3 112.1 164 112.1 164 110.4 146.5 110.4 146.5 112.1 145.1 112.1 145.1 174.1 144.5 174.1 144.5 184.8 146.5 184.8 164 184.8 187 184.8 187 184.3 199.7 184.3 199.7 62"/>
  <path class="st0" d="M473.9,178v-6.6h-1v-.5h1v-.5h-1v-.5h1v-.5h-17.1v-75.5h3.4v-3.4h-.5v-.4h.5v-.5h-.3c.2-.4.3-.8.3-1.2,0-1.1-.6-2-1.4-2.5h1.4v-2.9h-.5v-.4h.5v-.5h-1.2c.7-.5,1.2-1.4,1.2-2.3s0-.8-.3-1.2h.3v-3.2h-.5v-.4h.5v-.5h-3.4v-3.7h3.4v-3h-.5v-.5h.5v-.5h-.5v-.5h.5v-.5h-1.5c0-.8-.6-1.5-1.4-1.5s-.4,0-.5,0v-10.2h7.7v-15.8h-.4v-.5h.4v-.6h-.4v-.5h.4v-.6h-7.7v-4.8h-1.3v-1.3h-.6v-5.2h-.4v5.2h-.8v-4.5h-.2v4.5h-1.3v-12.3h1v-1.4h-1v-1.2h-1.4v1.2h-1.9v-1.2h-1.4v1.2h-.8v1.4h.8v12.3h-.3v-2.5h-.2v2.5h-1.1v-4.2h-.4v4.2h-.3v-3.1h-.2v3.1h-.7v1.3h-1.3v4.8h-7.7v.6h.2v.5h-.2v.6h.2v.5h-.2v15.8h7.7v11.6h-.7c0-.9-.7-1.6-1.5-1.6s-1.5.7-1.5,1.5.2.9.5,1.1h-.2v.5h.3v.5h-.3v3h3.4v3.7h-3.4v.5h.3v.4h-.3v3.2h3.4v.8h0c-.8,0-1.5.7-1.5,1.5s.2,1,.6,1.2h-2.5v.5h.3v.4h-.3v3h3.4v2.8c-.2-.4-.7-.7-1.1-.7-.7,0-1.4.7-1.4,1.5h-1v.5h.3v.4h-.3v3.5h3.4v75.5h-17.1v.5h.8v.5h-.8v.5h.8v.5h-.8v6.6h-2.3v6.6h52.7v-6.6h-2.3ZM429.5,171h1.6v.5h-1.6v-.5ZM459.8,171h1.6v.5h-1.6v-.5ZM461.9,171h1.6v.5h-1.6v-.5ZM464.1,171h1.6v.5h-1.6v-.5ZM466.3,171h1.6v.5h-1.6v-.5ZM468.5,171h1.6v.5h-1.6v-.5ZM468.5,170.5v-.5h1.6v.5h-1.6ZM467.9,170.5h-1.6v-.5h1.6v.5ZM465.8,170.5h-1.6v-.5h1.6v.5ZM463.6,170.5h-1.6v-.5h1.6v.5ZM461.4,170.5h-1.6v-.5h1.6v.5ZM459.2,170.5h-1.6v-.5h1.6v.5ZM459.2,171v.5h-1.6v-.5h1.6ZM457,171.5h-.2v-.5h.2v.5ZM443.1,171.5h-.4v-.5h.4v.5ZM442,171.5h-1.6v-.5h1.6v.5ZM431.7,171h1.6v.5h-1.6v-.5ZM433.9,171h1.6v.5h-1.6v-.5ZM436.1,171h1.6v.5h-1.6v-.5ZM438.3,171h1.6v.5h-1.6v-.5ZM440.5,170.5v-.5h1.6v.5h-1.6ZM439.9,170.5h-1.6v-.5h1.6v.5ZM437.7,170.5h-1.6v-.5h1.6v.5ZM435.5,170.5h-1.6v-.5h1.6v.5ZM433.3,170.5h-1.6v-.5h1.6v.5ZM431.1,170.5h-1.6v-.5h1.6v.5ZM472.3,171.5h-1.6v-.5h1.6v.5ZM472.3,170.5h-1.6v-.5h1.6v.5ZM457,170v.5h-.2v-.5h.2ZM443.1,82.3v.4h-.4v-.4h.4ZM457,82.3v.4h-.2v-.4h.2ZM443.1,90.4h0ZM459.2,82.7h-1.6v-.4h1.6v.4ZM459.2,75h-1.6v-.4h1.6v.4ZM457,74.7v.4h-.2v-.4h.2ZM456.8,67.3v-.5h.2v.5h-.2ZM459.2,67.3h-1.6v-.5h1.6v.5ZM459.2,65.8v.5h-.8c.1,0,.2-.3.2-.5h.6,0ZM438.3,37.4h1.6v.5h-1.6v-.5ZM459.8,37.9v-.5h1.6v.5h-1.6ZM459.8,36.8v-.5h1.6v.5h-1.6ZM459.2,36.8h-1.6v-.5h1.6v.5ZM459.2,37.4v.5h-1.6v-.5h1.6ZM457,37.9h-.2v-.5h.2v.5ZM443.1,37.9h-.4v-.5h.4v.5ZM442,37.9h-1.6v-.5h1.6v.5ZM440.5,36.8v-.5h1.6v.5h-1.6ZM439.9,36.8h-1.6v-.5h1.6v.5ZM463.5,37.9h-1.6v-.5h1.6v.5ZM463.5,36.8h-1.6v-.5h1.6v.5ZM457,36.3v.5h-.2v-.5h.2ZM448.9,20.5h1.9v1.9h-1.9v-1.9ZM448.9,23.8h1.9v1.9h-1.9v-1.9ZM448.9,27.1h1.9v1.9h-1.9v-1.9ZM450.8,17.2v1.9h-1.9v-1.9h1.9ZM443.1,36.8h-.4v-.5h.4v.5ZM436.2,36.3h1.6v.5h-1.6v-.5ZM436.2,37.4h1.6v.5h-1.6v-.5ZM443.1,66.3h-.4v-.5h.4v.5ZM442,66.2v.2h-.2l.2-.2ZM440.5,67.3v-.5h1.6v.5h-1.6ZM442.6,67.3v-.5h.4v.5h-.4ZM443.1,75h-.4v-.4h.4v.4ZM440.5,74.7h1.6v.4h-1.6v-.4ZM440.5,82.3h1.6v.4h-1.6v-.4ZM440.5,90h.2c0,.2.1.3.2.4h-.4v-.4h0ZM443.1,170.5h-.4v-.5h.4v.5ZM427.3,170h1.6v.5h-1.6v-.5ZM427.3,171h1.6v.5h-1.6v-.5Z"/>
  <path class="st0" d="M197,120.8v-2.4h-2.4v-5.4h.3l3.2-1.4v-.8h-3.4v-10.4h0v-.8h-12v.8h0v10.4h-3.4v.8l3.2,1.4h.3v5.4h-2.4v2.4h-2.8v63.9h22.3v-63.9h-3,0ZM184.8,100.5h.5v10.4h-.5v-10.4ZM186.1,100.5h2.2v10.4h-2.2v-10.4ZM193.9,110.8h-.3v-10.4h.3v10.4ZM192.8,110.8h-.5v-10.4h.5v10.4ZM191.5,110.8h-2.4v-10.4h2.4v10.4ZM183.6,100.5h.5v10.4h-.5v-10.4Z"/>
  <path class="st0" d="M464.1,184.8c-.5-9.5-8.3-17.1-17.9-17.1s-17.5,7.6-17.9,17.1h35.8Z"/>
  <path class="st0" d="M346.5,142.2l-.8-.5h0v-1.9h0c0-.2,0-.4-.1-.5h0c0-.2-.1-.3-.2-.5h0c0-.1-.2-.3-.3-.4h0c-.1-.1-.2-.2-.4-.3h0c-.1,0-.2-.2-.4-.3h-.2v-.9h0v-2.2h0v-.2h0l.4-.3h.1v-.3h-.1c0-.2-.7-1.1-.7-1.1h0v-.3h0s0-.1.1-.2h.2v-.3h-.5v-4.7c.1,0,.3-.3.3-.5s-.1-.4-.3-.5v-2h-.4v2c-.2,0-.4.3-.4.5s.1.4.3.5v4.7h-.5v.3h.2s0,.1.1.2h0v.3h0s-.7,1-.7,1.1h-.1v.3h.1l.3.3h0v.2h0v2.1h0v.8h0v.3c-.8.4-1.7,1.3-1.8,2.3h0v1.1h-52.7v-.9h0c0-.2,0-.4-.1-.5h0c0-.2-.1-.3-.2-.4h0c0-.1-.2-.3-.3-.4h0c-.1-.1-.2-.2-.4-.3h0c-.1,0-.2-.2-.4-.3h-.2v-.9h0v-2.2h0v-.2h0l.4-.3h.1v-.3h-.1c0-.2-.7-1.1-.7-1.1h0v-.3h0s0-.1.1-.2h.2v-.3h-.5v-4.7c.1,0,.3-.3.3-.5s-.1-.4-.3-.5v-2h-.4v2c-.2,0-.4.3-.4.5s.1.4.3.5v4.7h-.5v.3h.2s0,.1.1.2h0v.3h0s-.7,1-.7,1.1h-.1v.3h.1l.3.3h0v.2h0v2.1h0v.8h0v.3c-.8.4-1.7,1.3-1.8,2.3h0v.9h-8.7l-.9-7.4.3-.6h.2v-.2h-.6v-4.5h.2v-.3h-.2v-5.6h1v-.6h-.1l-1-.6h0v-2.5h0v-.4h0v-.4h0c0,0,0-.3-.1-.4h0c0-.2-.2-.3-.2-.5h0c0,0-.2-.2-.3-.3h0l-.2-.2h0s-.2-.2-.3-.2h0c-.1,0-.2-.2-.4-.2h0s-.2,0-.3-.2h0v-.2h0v-1h0c0,0-.1,0-.1,0v-2.8h0v-.4h.2c0,0,.4-.4.4-.4h.1v-.4h-.2c0-.2-1-1.5-1-1.5h0v-.4h0c0,0,.3,0,.3,0v-.4h-.6v-6.3h.1v-.2h0v-.6h0s0,0-.1-.2h0s-.1,0-.2,0h0v-2.7h-.5v2.7c-.3,0-.5.4-.5.7s.2.6.5.7v6.3h-.7v.4h.3s0,0,.1.2h0v.4h0s-1,1.3-1,1.5h-.2v.4h.2l.4.4h0v.3h0v2.9h-.1v1h0v.3c-1,.6-2.3,1.7-2.3,3h0v2.5h0l-1,.6h-.1v.6h1v1h0v2.4h0v.4h0v1.9h-.2v.3h.2v.8h0v2.5h0v.4h0v.2h0v.4h0v.2h-.6v.2h.2l.3.6-.9,7.4h-9.2v-.9h0c0-.2,0-.4-.1-.5h0c0-.2-.1-.3-.2-.5h0c0-.1-.2-.3-.3-.4h0c-.1-.1-.2-.2-.4-.3h0c-.1,0-.2-.2-.4-.3h-.2v-.9h0v-2.2h0v-.2h0l.4-.3h.1v-.3h-.1c0-.2-.7-1.1-.7-1.1h0v-.3h0s0-.1.1-.2h.2v-.3h-.5v-4.7c.1,0,.3-.3.3-.5s-.1-.4-.3-.5v-2h-.4v2c-.2,0-.4.3-.4.5s.1.4.3.5v4.7h-.5v.3h.2s0,.1.1.2h0v.3h0s-.7,1-.7,1.1h-.1v.3h.1l.3.3h0v.2h0v2.1h0v.8h0v.3c-.8.4-1.7,1.3-1.8,2.3h0v.9h-52.8v-1.1h0c0-.2,0-.4-.1-.5h0c0-.2-.1-.3-.2-.4h0c0-.1-.2-.3-.3-.4h0c-.1-.1-.2-.2-.4-.3h0c-.1,0-.2-.2-.4-.3h-.2v-.9h0v-2.2h0v-.2h0l.4-.3h.1v-.3h-.1c0-.2-.7-1.1-.7-1.1h0v-.3h0s0-.1.1-.2h.2v-.3h-.5v-4.7c.1,0,.3-.3.3-.5s-.1-.4-.3-.5v-2h-.4v2c-.2,0-.4.3-.4.5s.1.4.3.5v4.7h-.5v.3h.2s0,.1.1.2h0v.3h0s-.7,1-.7,1.1h-.1v.3h.1l.3.3h0v.2h0v2.1h0v.8h0v.3c-.8.4-1.7,1.3-1.8,2.3h0v1.9h0l-.8.5h-.1v.5h.7v.7h0v3.5h-.1v.2h.1v2.5h0v.8h-.3v.5h.1v4.9h0v.2h0v.7h0v.2h0v.3h-.4v.5h.2v20.9h-.4v3.5h58.6v.2h98.2v-3.5h-.4v-21h0v-.4h-.2v-.3h.2v-.2h-.2v-.7h.2v-.2h-.2v-4.9h.1v-.5h-.1v-.5h0v-2.7h.1v-.2h-.1v-4h0v-.2h.7v-.2h0v-.3h-.1l-2.7-2.8ZM345.5,146.8h-1.1v-1.9c0-.6.2-1,.5-1s.5.5.5,1v1.9h.1ZM194.1,134.4h.2v2.2h-.3v-2.2h.1ZM194.3,136.6v.6h-.2v-.6h.3-.1ZM194.7,137.3h-.1v-.7h.1v.7ZM193.8,137.3h-.2v-.7h.2v.7ZM252.2,134.5h.2v2.2h-.3v-2.2h.1ZM252.5,136.8v.6h-.2v-.6h.3-.1ZM252.8,137.5h-.1v-.7h.1v.7ZM251.9,137.5h-.2v-.7h.2v.7ZM265.7,125.7v-.2c0-.8.3-1.4.7-1.4s.7.6.7,1.4v2.5h-1.4v-2.2h0ZM269.6,115.1h-.2v-.9h.2v.9ZM269.6,114.1h-.2v-2.9h0v2.9h.2ZM272.2,125.7h0v.4h0v1.9h-1.4v-2.5c0-.8.3-1.4.7-1.4s.7.6.7,1.4v.3h0ZM269,124.1h0c.5,0,.9.6.9,1.4v2.5h-1.8v-2.5c0-.8.4-1.4.9-1.4ZM268.8,111.3h0c0,0,.2,0,.2,0h0v3h-.4v-2.9h.2ZM268.9,114.3h.1v.8h-.2v-.8h.2-.1ZM268.4,115.1h-.2v-.9h.2v.9ZM284.9,134.6h.2v2.2h-.3v-2.2h0ZM285.1,136.9v.6h-.2v-.6h.3,0ZM285.5,137.5h-.1v-.7h.1v.7ZM284.6,137.5h-.2v-.7h.2v.7ZM342.9,134.4h.2v2.2h-.3v-2.2h0ZM343.2,136.6v.6h-.2v-.6h.3,0ZM343.6,137.3h-.1v-.7h.1v.7ZM342.6,137.3h-.2v-.7h.2v.7ZM197.1,155.9h.2v.7h-.2v-.7ZM343.8,145.2v1.7h-1.4v-1.8c0-.6.3-1,.7-1s.7.5.7,1v.2h0ZM341.2,144c.3,0,.5.5.5,1v1.8h-1v-2.3h0c0-.4.3-.6.5-.6h0ZM197.3,154.2h0v1.5h-.2v-4.9h.1v-.3h0v3.7h0ZM193.6,145.2v-.2c0-.6.3-1,.7-1s.7.5.7,1v1.8h-1.4v-1.7h0ZM196.7,146.8h-1.1v-1.9c0-.6.2-1,.5-1s.5.5.5,1v1.9h.1ZM197.1,157.2v-.3h.2v.7h0v-.4h-.2ZM192.3,144c.3,0,.5.5.5,1v1.8h-1.1v-1.8c0-.6.2-1,.5-1h.1ZM343.6,136.5h-.1v-2.2h0v2.2h.1ZM342.5,134.4h0v2.2h-.2v-2.2h.2ZM285.5,136.8h-.1v-2.2h0v2.2h.1ZM284.5,134.6h0v2.2h-.2v-2.2h.2ZM268.2,111.3h0v2.9h-.2v-2.9h.2ZM252.8,136.7h-.1v-2.2h0v2.2h.1ZM251.8,134.5h0v2.2h-.2v-2.2h.2ZM194.7,136.5h-.1v-2.2h0v2.2h.1ZM193.7,134.4h0v2.2h-.2v-2.2h.2Z"/>
  <polygon class="st0" points="176.6 169 176.6 152 175.7 152 175.7 151 174.7 151 174.7 130.9 174.2 130.9 174.2 130.1 173.6 130.1 173.6 115.7 173.4 115.7 173.4 114.5 172.5 114.5 172.5 112.4 176 112.4 176 110.1 172.5 110.1 172.5 109 171.4 109 171.4 114.5 171.4 115.7 171.4 115.7 171.4 130.1 170.7 130.1 170.7 130.9 170.2 130.9 170.2 148.8 125.4 148.8 125.4 149.7 124.2 149.7 124.2 152 123 152 123 150.9 120.9 150.9 120.9 149.9 119.1 149.9 119.1 149.2 118.3 149.2 118.3 148.7 117.4 148.7 117.4 149.2 116.6 149.2 116.6 149.9 114.8 149.9 114.8 150.9 112.7 150.9 112.7 152 111.5 152 111.5 184.8 124.2 184.8 128.7 184.8 158.5 184.8 170.2 184.8 171.3 184.8 174.7 184.8 175.7 184.8 175.7 184.7 176.6 184.7 177.5 184.7 177.5 169 176.6 169"/>
  <path class="st0" d="M79.1,184.8c-.5-11.4-10-20.5-21.5-20.5s-21,9.1-21.5,20.5h43.1,0Z"/>
  <path class="st4" d="M209.8,184.8c-.5-11.4-10-20.5-21.5-20.5s-21,9.1-21.5,20.5h43.1,0Z"/>
  <path class="st4" d="M305.3,177.3c0,4.1-3.4,7.5-7.7,7.5s-7.7-3.3-7.7-7.5,3.4-7.5,7.7-7.5,7.7,3.3,7.7,7.5Z"/>
  <polygon class="st0" points="138.6 112.8 138.6 118.4 134 118.4 134 114.4 133.8 114.4 133.8 109.9 133.6 109.9 133.6 114.4 133.3 114.4 133.3 118.4 132.5 118.4 132.5 116.4 132.3 116.4 132.3 118.4 126.4 118.4 126.4 116.6 126.2 116.6 126.2 113.5 126 113.5 126 116.6 125.8 116.6 125.8 118.4 114.4 118.4 114.4 116.1 113.9 116.1 113.9 112.9 113.2 112.9 113.2 116.1 112.7 116.1 112.7 118.4 111.2 118.4 111.2 184.8 141.5 184.8 141.5 121.9 141.5 118.4 141.5 112.8 138.6 112.8"/>
  <path class="st4" d="M439.3,116.3v-2.4h1.8c0-.9-.7-1.4-1.5-1.9v-1.2h-.2v-.5h.6l-.2-1.2h-.2l-.2-2.1h-.1v-.4h-.1v-2.3h-.1v-2.7l.4.5v-.5l.4.2-.3-.5.7-.3-.6-.2.4-.4h-.6c0,0,0-.5,0-.5l-.3.5-.3-.5v.7l-.7-.2.3.3h-.5c0,0,.7.4.7.4l-.4.6.4-.2v.4l.3-.4v2.6h-.1v2.3h-.1v.4h-.1l-.2,2.1h-.2l-.2,1.2h.6v.5h-.2v.5c-1.5-.6-3.1-1.3-3.1-2.7v-1.2h.8v-1.5h-.3v-1.4h.3v-.5h-.7v-.9h-.6v-.7h-.3v-9.2h.3v-.4h1.3v-.6h-.5v-.6h-.5v-1.2h0c.1,0,.2-.3.2-.5s-.1-.5-.3-.6v-.3c0-.2,0-.3-.1-.3v-.3h0v-.3h-.1v.3h0v.3h0v.6h0v.2q-.1,0-.1,0h0v.3c0,.3.1.6.3.7v.6c-.1,0-.3-.2-.5-.2h0v-.3c-.6-1.5-2.4-1.8-2.5-4h0l.2-.2h0c0,0,.2-.3.2-.4h0c.2-.3.3-.7.3-1.1h0c0-1.3-1.1-2.4-2.4-2.4h-.9v-.8h0s.2,0,.2,0h0c.3-.3.5-.7.5-1.2s-.4-1.2-1-1.4v-.3c.1,0,.2,0,.4-.2h.1c0,0,0-.2.1-.3,0,0,0,0,.1-.2h0v-.3c0-.6-.4-1-.9-1.2l-.2-5.7h-.4l-.2,5.7c-.5.2-.9.6-.9,1.2s.3,1,.8,1.2v.3c-.6.2-1,.8-1,1.4s.4,1.2.9,1.4v.8h-.7c-1.3,0-2.4,1.1-2.4,2.4h0c0,.7.3,1.4.8,1.8v.2h0c-.2,2-2,2.3-2.5,3.9v.3h0c-.2,0-.4,0-.5.2v-.6c.2,0,.3-.3.3-.7s-.1-.5-.3-.6v-.3c0-.2,0-.3-.1-.3v-.3h0v-.3h-.1v.3h0v.3s-.1.2-.1.3v.3c-.2,0-.3.3-.3.6s.1.6.3.7v1.2h-.5v.6h-.5v.6h1.2v.4h.2v9.2h-.3v.7h-.5v.9h-.7v.5h.3v1.4h-.3v1.5h.7v1.5c-.3,1.2-1.8,1.8-3.2,2.4v-.6h-.2v-.5h.6l-.2-1.2h-.2l-.2-2.1h-.1v-.4h-.1v-2.3h-.1v-2.7l.4.5v-.5l.4.2-.3-.5.7-.3-.6-.2.4-.4h-.6c0,0,0-.5,0-.5l-.3.5-.3-.5v.7l-.7-.2.3.3h-.5c0,0,.7.4.7.4l-.4.6.4-.2v.4l.3-.4v2.6h-.1v2.3h-.1v.4h-.1l-.2,2.1h-.2l-.2,1.2h.6v.5h-.2v1.2h0c-.8.5-1.5,1-1.5,1.9h2.1v24.4h-5.1v-.8h-.3v-4.4h-.3v4.4h-.3v.8h-.3v5.5h.9v1.2h-107.7v6.2c-.2-.3-.4-.8-.4-1.3h0v-.6h0v-3.7h0v-.3h-.2v-.6h0v-.5s.1,0,.1-.2,0-.1-.1-.2v-.2h-.1v.2s-.1,0-.1.2,0,.1.1.2v.5h0v.6h0v-.4h0c0-.1,0-.2-.1-.3h0c0-.1-.1-.2-.2-.3,0,0-.1,0-.2-.1h-.1v-.2c0-.2,0-.1-.1-.2v-.2h-.1v.2s-.1,0-.1.2,0,0,0,.1h-.5v-.6c.4-.2.7-.6.7-1.1s-.3-1-.8-1.2v-.3c.3-.2.6-.5.6-.9s-.3-.8-.7-1v-4.6h-.5v4.6c-.5.1-.8.5-.8,1s.2.8.6.9v.3c-.5.2-.8.6-.8,1.2s.3,1,.7,1.1v.6h-.5c0-.1.1-.2.1-.3s0-.1-.1-.2v-.2h-.1v.2s-.1,0-.1.2,0,.1.1.2v.2h0s-.1.1-.2.2h0c0,.1,0,.3-.1.4h0v.3h0v3.5c-.1,0-.2.1-.3.2v-3.3h0v-.3h-.2v-.6h0v-.5s.1,0,.1-.2,0-.1-.1-.2v-.2h-.1v.2s-.1,0-.1.2,0,.1.1.2v.5h0v.6h-.2v.3h0v5.5c-.2.4-.4.7-.7.9h-1v.3h.3v.6c0,.1-.2.3-.3.5v.2h0c-.3,0-.5.2-.5.5h0c0,.1-.5.1-.5.1v.5h-.4v.5h1.1v29.4h142.4v-3.3h-1.2v-64.8l-.3-.3ZM434.8,89.7c.1,0,.2.2.2.4s0,.3-.1.3h0c-.1,0-.2-.2-.2-.4s0-.3.1-.3h0ZM427.8,97.2c-.1.2-.2.4-.2.7s0,0,0,0h1.7c0-.2,0-.5-.2-.7h0c0-.3-.1-.6-.3-.7h1.4v6.3h-.3v.7h-2.7v-.7h-.3v-6.3h1.1c-.2,0-.3.4-.3.7s0,0,0,0h0ZM431.8,93.6v-.4h.2v.4h.2v2.4h-.3c0,0,0-.2-.2-.2s-.2,0-.2.2,0,0,0,0h0v-2.4h.3ZM431.5,102.7v-4.9h.7v4.9h-.3v.7h-.2v-.7h-.3,0ZM432.2,96.5h-.1c0,0,.1,0,.1,0h0ZM424.9,102.7v-4.9h.7v4.9h-.3v.7h-.2v-.7h-.3,0ZM424.9,96.5h0ZM429.9,93.1v.4h.2v2.4h-1.5c0,0,0-.2-.2-.2s-.2,0-.2.2h-1.3v-2.4h.3v-.4h2.7ZM425.6,93.6v2.4h0s0,0-.2,0-.1,0-.2,0h-.3v-2.4h.3v-.4h.2v.4h.2ZM422.3,90.1c0-.2.1-.4.2-.4s.2.2.2.4-.1.4-.2.4-.2-.2-.2-.4ZM298.9,152.3h.2s-.1.1-.2.2v-.2Z"/>
  <polygon class="st2" points="170.7 184.8 140.1 184.8 140.1 143.9 164.7 176 170.7 184.8"/>
  <path class="st0" d="M137.9,177.1v-.5h-7.8c2-4.3,3.1-9.1,3.1-14.1,0-18.7-15.1-33.8-33.8-33.8s0,0-.2,0h0c-18.7,0-33.8,15.1-33.8,33.8s1.1,9.8,3.1,14.1h-8.1v.5h.6v.8h-.6v.4h0v6.5h77.5v-6.4h0v-.5h-1.4v-.8h1.4ZM131.4,177.1v.8h-2c.1-.3.3-.5.4-.8h1.6ZM69.1,177.9h-.5v-.8h0c0,.3.3.5.4.8ZM66,177.9v-.8h2v.8h-2ZM61.6,177.1h3.9v.8h-3.9v-.8ZM135.9,177.9h-3.9v-.8h3.9v.8Z"/>
  <path class="st4" d="M199.1,165.7h-.8l-7.5-13.6h-.2l-2.3-4.3h-36.9v-5.4h.3v-.4h0v-.3h0l-.6-9.4h0v-.2h0v-.2h0c0-.1-.6-9.3-.6-9.3h0v-.2h0v-.2h0v-.5h.1c0,0-.1,0-.1,0v-.7h.1v-.8h0v-.4h0v-.3c0,0,0-.2-.2-.3v-.2h0v-.3h0v.3h0v.2s-.2,0-.2.3,0,0,0,.2h0v.5h0v.8h.1v.7h-.1.1v.4h0v.2h0v.3h0l-.6,9.2h0v.2h0v.3h0l-.4,6.6-2.9-24.8h1.3v-.4h0v-.3h-.2v-1.7h0v-.3h0l-.7-6h0v-.4h0v-.2c.1,0,.2,0,.2-.2s0-.2-.1-.2h0v-.2h0v.3c0,.1,0,0,0,0,0,0-.1,0-.1.2s0,.2.2.2v.2h0v.4h0l-.7,5.4-2.8-23.9h0v-.5h0v-.4h0v-.3h-.2v-.5h.5c.1-.2.2-.3.2-.4s-.2-.2-.3-.2h-.5c0,0-.2-2.2-.2-2.2h.5c.1-.2.2-.3.2-.4s-.2-.2-.3-.2h-.5c0,0-.2-2.2-.2-2.2h.5c.1-.2.2-.3.2-.4s-.2-.2-.3-.2h-.5c0,0,0-.7,0-.7h.2v-.4h-.2c.1,0,.2-.3.2-.5,0-.4-.2-.6-.6-.7v-1.4h-.1v-.7c.2,0,.4-.2.4-.4h.4v-.2h-.4c0-.2-.2-.4-.4-.4v-.2h0c0-.2,0,0,0,0h0s.1,0,.1,0,0,0-.1,0h-.3c0,0,0,0,0,0h0c0,.2,0,.3-.2.3s0,0,0,0c0,0,.1,0,.2.2h0c-.2.2-.4.3-.4.6h-.4v.2h.4c0,.2.2.4.4.4v.7h-.1v1.4c-.3,0-.6.4-.6.7s0,.4.2.5h-.2v.4h.3v.8h-.5c-.1,0-.3,0-.3.2s0,.3.2.3h.4c0,0-.2,2.4-.2,2.4h-.4c-.1,0-.3,0-.3,0,0,0,0,.3.2.3h.5c0,0-.2,2.4-.2,2.4h-.4c-.1,0-.3,0-.3,0,0,0,0,.3.2.3h.5v.7h-.2v.2h0v.6h0v.5h0l-2.8,23.9-.7-5.4h0v-.4h0v-.2c.1,0,.2,0,.2-.2s0-.2-.1-.2h0v-.2h0v.3c0,.1,0,0,0,0,0,0-.1,0-.1.2s0,.2.2.2v.2h0v.4h0l-.7,6h0v.3h0v1.7h-.2v.2h0v.6h1.3l-2.7,22.7-.3-4.4h0v-.2h0v-.2h0c0-.1-.6-9.3-.6-9.3h0v-.2h0v-.2h0v-.5h.1c0,0-.1,0-.1,0v-.7h.1v-.8h0v-.4h0v-.3c0,0,0-.2-.2-.3v-.2h0v-.3h0v.3h0v.2s-.2,0-.2.3,0,0,0,.2h0v.5h0v.8h.1v.7h-.1.1v.4h0v.2h0v.3h0l-.6,9.2h0v.2h0v.3h0l-.6,9.4h-.1v.3h0v.4h.3v10h-.1v.3h.1v.2h0l-.4,10.7h-.4v19.8h-.5v.8h69.6v-17.7h.4v-.8l-2.5-.5ZM140.9,73.7h.1-.1ZM141.1,73.9h-.1.1ZM140.7,73.7h-.1.1c0,0,0,0,0,0ZM140.7,73.9h-.1.1ZM140.9,74.2h0c.1,0,.2-.2.2-.3h0c0,.2-.2.3-.3.3h.1ZM141.3,73.7h0c0,0-.1-.2-.2-.2h0c.2,0,.3,0,.3.2h-.1ZM140.7,73.3h0c-.1,0-.2.2-.2.3h0c0-.2.2-.3.3-.3h-.1ZM140.4,73.9h0c0,0,.1.2.2.2h0c-.2,0-.3,0-.3-.2h.1Z"/>
  <path class="st0" d="M533.1,157.9h0s0-.2,0-.3v-.2h0v-.5h-.5s0-.1-.2-.2c0,0-.2-.2-.3-.3,0,0,0-.1-.2-.2h0c0-.4-.2-.8-.3-1.2h0c0-.3-.2-.7-.3-1v-.2c0-.3-.3-.6-.4-.9h0c-.4-.7-.8-1.3-1.2-1.8h0c-.2-.3-.5-.5-.7-.7h0c-.5-.5-1.1-.8-1.7-1.1v-.7h.5v-.4h0c0-.2,0-.3-.2-.4h0s0-.1-.2-.2h0v-.3h0s0-.2-.2-.2h0v-.3h0s0-.2-.2-.2h0s-.2-.1-.3-.2h0c0,0-.2-.1-.3-.2h0v-.2h0s0-.1,0-.2h0c0-.1-.3-.2-.4-.3h-.3c0,0,0,0,0,0h0c0,0-.3,0-.4.2h0c-.2,0-.3.2-.4.3h0v.2h0v.2h0c0,0-.2.1-.4.2h0s-.2.1-.3.2h0c0,.1,0,.3-.2.3h0v.5h0c0,.1,0,.2,0,.3v.3h0s0,.1-.2.2h0c0,.1-.2.2-.2.4h0v.5h.4v.7c-.6.3-1.2.7-1.7,1.1h0c-.2.2-.5.4-.7.7h0c-.5.5-.9,1.1-1.2,1.8h0c-.2.3-.3.6-.4.9v.2c0,.3-.2.6-.3.9h0c0,.5-.2.9-.3,1.2h0s0,.1-.2.2c0,0,0,.1-.2.2v-33.4h0v-.4h-.3l-.4-.9h-.3v-.6h0v-4.7h0v-1.4h-.9v-2.4h-.2c0,0-.3,0-.3,0v-14.6h0v-.2h0v-.5h-.3v-1.2h0l-.6-6.7h0v-1.5c0,0,0,0,0,0h0c0,0,0-.2,0-.2v-.3h0v-.3h0-.2v-.2h0v.2h-.2.2v.3h0v.3s0,0,0,0h0v1.6h0l-.6,6.7h0v1.2h-.4v.5h0v.2h0v.8h-.4v-.5h-.4l-1-13.6h0v-.5h0l-.6-8.6h0l-1.3-17.5h0l-.3-3.9s.1,0,.2,0h0v-.4h0s-.1,0-.2,0h0v-.9h0v-1h.4v-.2h-.4v-.6h0v.6h-.4v.2h.4v1h0v.9c-.2,0-.3.2-.3.4s.1.3.3.4l-.3,3.9h0l-1.3,17.5h0l-.6,8.7h0v.5h0l-1,13.6h-.4v.5h-.3v-.8h0v-.2h0v-.5h-.3v-1.2h-.1l-.6-6.7h0v-1.5c-.1,0,0,0,0,0h0c0,0,0-.2-.1-.2v-.3h0v-.3h.1-.2v-.2h0v.2h-.2.2v.3h0v.3s-.1,0-.1,0h0v1.6h-.1l-.6,6.7h0v1.2h-.4v.5h0v.2h0v14.6h-.3c0,0-.2,0-.2,0v2.4h-.4v1.4h.1v4.6h0v.6h-.3l-.4.9h-.2v.4h0v29.3h-10.6c0-.2.1-.4.1-.7,0-.7-.4-1.2-.9-1.5v-7h.2v-.3h0v-.3h-.4c-.1-.8-.8-1.5-1.6-1.6v-.5c.3-.1.6-.5.6-.9s-.3-.8-.6-.9v-3.3c-.1,0,.7,0,.7,0h0c0-.1-.8-.1-.8-.1v-.8h-.3v.8h-.8c0,.1.8.1.8.1v3.3c-.5.1-.8.5-.8.9s.2.7.6.9v.5c-.9.2-1.5.8-1.6,1.6h-.4v.3h.1v.3h.2v7.1c-.4.3-.7.8-.7,1.4s.2,1,.6,1.4v.2h0c-.1,1.2-2.1,1.9-2.7,2.7-.2.3-.2.6,0,.8h-.3c-.3,0-.5.2-.5.5s0,0,0,.1h-.4v.4h-.3v.4h4.5-6.5v25.7h54.2v-25.7h1v-.5h0l-2-.7ZM502.2,97h0c0,0,.2.2.2.2l.2-.3h0c0,0-.2.4-.2.4h-.1l-.2-.3h.1ZM502,96.6h0ZM502.2,93.1h.2c0,0-.2,0-.2,0h0ZM502.2,92.9h.2c0,0-.2,0-.2,0h0ZM502.2,92.5h.2c0,0-.2,0-.2,0h0ZM502.2,92.3h.2c0,0-.2,0-.2,0h0ZM502.2,92.1h.2c0,0-.2,0-.2,0h0ZM502.2,91.9h.2c0,0-.2,0-.2,0h0ZM502.9,97.4h0l-.2-.3h0l.2.2.2-.3h0v.5h-.2ZM501.9,95.4h0ZM501.9,95h0ZM502,94.7h.1c0,0-.1,0-.1,0h0ZM502,94.5h.1c0,0-.1,0-.1,0h0ZM502,94.3h.1c0,0-.1,0-.1,0h0ZM502,94.1h.1c0,0-.1,0-.1,0h0ZM502,93.9h.1c0,0-.1,0-.1,0h0ZM502.2,92.7h.2c0,0-.2,0-.2,0h0ZM502.2,91.7h.2c0,0-.2,0-.2,0h0ZM502.2,91.5h.2c0,0-.2,0-.2,0h0ZM502.2,91.2h.2c0,0-.2,0-.2,0h0ZM502.2,91h.2c0,0-.2,0-.2,0h0ZM502.4,89.4h0ZM502.4,89.6h0ZM502,95.6h0v-.2h0v.2h0v.2h0v-.2ZM502.2,95.2h0v-.2h.2v.2h0v.2h-.2v-.2ZM502.2,94.8h.2c0,0-.2,0-.2,0h0ZM502.2,94.5h.2c0,0-.2,0-.2,0h0ZM502.2,94.3h.2c0,0-.2,0-.2,0h0ZM502.2,94.1h.2c0,0-.2,0-.2,0h0ZM502.2,93.9h.2c0,0-.2,0-.2,0h0ZM502,93.7h.1c0,0-.1,0-.1,0h0ZM502,93.5h0ZM502,93.3h.1c0,0-.1,0-.1,0h0ZM502.9,94.1h0ZM502.9,94.3h0ZM502.9,94.5h0c0,0,0,0,0,0h0ZM502.2,93.7h.2c0,0-.2,0-.2,0h0ZM502.2,93.5h.2c0,0-.2,0-.2,0h0ZM502.6,90.4h0c0,0-.1,0-.1,0h0c0,0,.1,0,.1,0ZM502.6,92.4h-.2c0,0,.2,0,.2,0h0ZM503,96.6h0ZM502.6,92.6h-.2c0,0,.2,0,.2,0h0ZM502.6,92.8h-.2c0,0,.2,0,.2,0h0ZM502.4,92.7h0ZM502.6,92.8h0c0,0-.2,0-.2,0h0c0,0,.2,0,.2,0ZM502.6,93h0c0,0-.2,0-.2,0h0c0,0,.2,0,.2,0ZM502.8,94h-.1c0,0,.1,0,.1,0h0ZM502.8,94.8h-.1c0,0,.1,0,.1,0h0ZM502.4,95.4h0ZM502.5,95.5h0c0,0,.1,0,.1,0h0v.2h0v.2h-.1v-.2h0ZM502.4,95h0ZM502.5,95.1h0c0,0,.2,0,.2,0h0v.2h0v.2h-.2v-.2h0ZM502.8,93.8h-.1c0,0,.1,0,.1,0h0ZM502.6,93.5h-.1c0,0,.2,0,.2,0h-.1ZM502.6,93.7h0c0,0-.2,0-.2,0h0c0,0,.2,0,.2,0ZM502.4,93.5h0ZM502.4,93.7h0ZM502.6,93.9h0c0,0-.2,0-.2,0h0c0,0,.2,0,.2,0ZM502.8,94.4h-.1c0,0,.1,0,.1,0h0ZM502.8,94.6h-.1c0,0,.1,0,.1,0h0ZM502.6,94.1h0c0,0-.2,0-.2,0h0c0,0,.2,0,.2,0ZM502.6,94.3h0c0,0-.2,0-.2,0h0c0,0,.2,0,.2,0ZM502.6,94.5h0c0,0-.2,0-.2,0h0c0,0,.2,0,.2,0ZM502.6,94.7h0c0,0-.2,0-.2,0h0c0,0,.2,0,.2,0ZM502.8,95.7h0v-.2h0v.2h0ZM502.9,95.2h0ZM502.9,95h0ZM502.8,95.1h0c0,0,0,0,0,0h0v-.2h.1v.2h-.1ZM502.8,94.2h-.1c0,0,.1,0,.1,0h0ZM502.8,93.6h-.1c0,0,.1,0,.1,0h0ZM502.6,93.3h-.1c0,0,.2,0,.2,0h-.1ZM502.4,93.3h0ZM502.4,93.9h0ZM502.4,94.1h0ZM502.4,94.3h0ZM502.4,94.5h0ZM502.4,94.7h0ZM502.4,95.2h0ZM502.4,95.6h0ZM502.7,96.1h0ZM502.6,96h0ZM502.7,96.1h0ZM502.9,95.6h0ZM502.9,95.4h0ZM502.9,93.9h0ZM502.9,93.8h0ZM502.8,93.5h0ZM502.8,93.4h-.1c0,0,.1,0,.1,0h0ZM502.6,96.1h0ZM503.1,96.2h0ZM502.9,94.8h0ZM502.9,94.6h0ZM502.9,94.4h0ZM502.9,94.2h0ZM502.4,91.7h0ZM502.6,91.5h-.2c0,0,.2,0,.2,0h0ZM502.6,91.7h-.2c0,0,.2,0,.2,0h0ZM502.6,91.2h0c0,0-.2,0-.2,0h0c0,0,.2,0,.2,0ZM502.4,91h0ZM502.4,91.2h0ZM502.4,91.5h0ZM502.6,91.8h0c0,0-.2,0-.2,0h0c0,0,.2,0,.2,0ZM502.6,92h0c0,0-.2,0-.2,0h0c0,0,.2,0,.2,0ZM502.7,91.6h0ZM502.7,91.4h0ZM502.6,91.1h-.1c0,0,.2,0,.2,0h-.1ZM502.4,90.6h0ZM502.6,90.6h0c0,0-.1,0-.1,0h0c0,0,.1,0,.1,0ZM502.6,90.8h0c0,0-.2,0-.2,0h0c0,0,.2,0,.2,0ZM502.4,90.4h0ZM502.4,90.8h0ZM502.4,91.9h0ZM502.4,92.1h0ZM502.4,92.3h0ZM502.4,92.5h0ZM502.4,92.9h0ZM502.4,93.1h0ZM502.5,96.6h0ZM502.9,96.6h0ZM502.9,95.6h0v-.2h0v.4h0v-.2ZM502.9,95.2h0v-.2h0v-.2h0v.3h0ZM502.8,93.2h-.1c0,0,.1,0,.1,0h0ZM502.7,92.9h0c0,0,0,0,0,0ZM502.7,92.8h0ZM502.7,92.6h0ZM502.7,92.1h0ZM502.7,91.9h0ZM502.4,90h0ZM502.5,90.1h0v-.2h0v.2h0ZM502.6,90.2h0c0,0,0,0,0,0h.1-.1ZM502.4,89.8h0ZM502.4,90.2h0ZM502.4,93.2h0c0,0-.2,0-.2,0h0c0,0,.2,0,.2,0ZM502,93.5h.1c0,0-.1,0-.1,0h0ZM502.4,95.3h0v.3h-.1v-.3h.1ZM502.3,96h0ZM502.2,96.1h0ZM502.9,94.8h0ZM502.7,92.3h0c0,0,0,0,0,0ZM502.5,89.9h0v-.2h0v.2h0ZM502.4,90.6h0c0,0-.1,0-.1,0h0c0,0,.1,0,.1,0ZM502,93.7h0ZM502,95.2h0v-.2h.1v.2h0v.2h-.1v-.2ZM502.1,96h0v.2h0v-.2h0ZM502.4,89.6h0v.2h0v-.2ZM502.4,89.4h0c0,0,0,0,0,0h0ZM502.4,90h0v-.2h0v.2ZM502.4,90.4h0c0,0-.1,0-.1,0h0c0,0,.1,0,.1,0ZM502.2,90.8h.2c0,0-.2,0-.2,0h0ZM502.2,91.5h0ZM502.2,91.7h0ZM502.1,92.6h0ZM502,93.9h0c0,0,0,0,0,0ZM502,94.1h0c0,0,0,0,0,0ZM502,94.3h0c0,0,0,0,0,0ZM502,94.5h0c0,0,0,0,0,0ZM502,94.7h0c0,0,0,0,0,0ZM502,95.1h0c0,0,0,0,0,0ZM502,95.5h0c0,0,0,0,0,0ZM501.8,96.2h0ZM501.9,96.6h0ZM502.4,96.6h0ZM502.4,89.8h0v-.2h0v.2ZM502.4,90.2h0c0,0-.1,0-.1,0h0c0,0,.1,0,.1,0ZM502.1,91.8h0c0,0,0,0,0,0ZM502.1,92h0c0,0,0,0,0,0ZM502.1,92.2h0c0,0,0,0,0,0ZM502.1,92.4h0c0,0,0,0,0,0ZM502.1,92.8h0c0,0-.1,0-.1,0h0c0,0,.1,0,.1,0ZM502.1,93h0c0,0-.1,0-.1,0h0c0,0,.1,0,.1,0ZM501.9,94.1h0ZM501.9,94.3h0ZM501.9,94.5h0ZM501.9,94.7h0v-.2h0v.2ZM501.9,94.9h0v.2h0v.2h0v-.3h0ZM501.9,95.3h0v.2h0v.2h0v-.4h0ZM501.7,97l.2-.4h0l-.2.3.2.4.2-.3h0l-.2.4h-.1l-.2-.3h.1ZM505.1,95h.4c-.2,0-.5.4-.5.6v.5h-.2v-.4c0-.3.2-.5.3-.7h0ZM507,67.5v-.2h.4v.4h-.3v-.2h-.1ZM507,67v-.2h.4v.4h-.3v-.2h-.1ZM507,65.9v-.2h.4v.4h-.3v-.2h-.1ZM507,65.3v-.2h.4v.4h-.3v-.2h-.1ZM507,64.8v-.2h.4v.4h-.3v-.2h-.1ZM507,64.3v-.2h.4v.4h-.3v-.2h-.1ZM505.7,95h.4c.2.2.3.5.3.7v.4h-.3v-.5c0-.3-.3-.5-.5-.6h.1ZM506.7,91.7s-.4.2-.4.5v.2h-.3v-.2c0-.5.7-1,.7-1,0,0,.7.4.7,1v.2h-.2v-.2c0-.3-.4-.5-.4-.5h-.1ZM505.3,90.4v-.2h1l-.2.5h-.6l-.3-.5h0v.2h.1ZM507.3,88l-.3-.5h.4v.2h0v-.2h.4l-.2.5h-.5.2ZM506.5,73.4h0c0,0,0,0,0,0h0c0,0,0,0,0,0ZM506.5,72.4h0c0,0,0,0,0,0h0c0,0,0,0,0,0ZM506.6,71.8v-.2h.3v.4h-.2v-.2h0ZM506.6,71.3v-.2h.3v.4h-.2v-.2h0ZM506.6,70.7v-.2h.3v.4h-.2v-.2h0ZM506.6,70.2v-.2h.3v.4h-.2v-.2h0ZM506.6,69.6v-.2h.3v.4h-.2v-.2h0ZM507,66.4v-.2h.4v.4h-.3v-.2h-.1ZM507,63.7v-.2h.4v.4h-.3v-.2h-.1ZM507,63.2v-.2h.4v.4h-.3v-.2h-.1ZM507,62.6v-.2h.4v.4h-.3v-.2h-.1ZM507,62h.3v.4h-.4v-.3h.1ZM507,95h.4c-.2,0-.5.4-.5.6v.5h-.2v-.4c0-.3.2-.5.3-.7h0ZM506.9,90.2h.5v.2h0v-.2h.5l-.2.5h-.7l-.3-.5h.2ZM506.6,74v-.3c.1,0,0-.3,0-.3v-.2h.2v.3c.1,0,0,.3,0,.3v.3c.1,0,0,.3,0,.3h-.2v-.3c-.1,0,0-.1,0-.1ZM507,72.9v-.3c.1,0,0-.3,0-.3v-.2h.4v.8c.1,0,0,.2,0,.2h-.3v-.2h-.1ZM507,71.8v-.2h.4v.4h-.3v-.2h-.1ZM507,71.3v-.2h.4v.4h-.3v-.2h-.1ZM507,70.7v-.2h.4v.4h-.3v-.2h-.1ZM507,70.2v-.2h.4v.4h-.3v-.2h-.1ZM507,69.7v-.2h.4v.4h-.3v-.2h-.1ZM506.6,69.1v-.2h.3v.4h-.2v-.2h0ZM506.6,68.5h0c0,0,0,0,0,0ZM506.6,68h0v-.2h.2v.4h-.2v-.2ZM508.6,70.2h0ZM508.6,70.8h0c0,0,0,0,0,0ZM508.6,71.3v-.2.4c.1,0,.1-.2.1-.2h-.1ZM510.2,95.4v.8h-.2v-.5h0v-.2h0s0,0-.1-.2h0s-.1,0-.2,0h.4s.2.2.2.3h0ZM509,88.4h.5l.2.3-.3.8h-.3l-.2-.6.2-.5h-.1ZM508.6,87.6v-.2h.9l-.2.5h-.5l-.2-.4h0ZM509,92.2v.2h-.2v-.4c-.1-.2-.4-.3-.4-.3,0,0-.4.2-.4.5v.2h-.3v-.2c0-.5.7-1,.7-1,0,0,.3.2.5.4.1.2.2.3.2.5h-.1ZM509.2,95.2h0l-.2.2h0v.8h-.2v-.4h0v-.3h0c0,0,.1-.2.2-.3h.4s-.1,0-.2,0h0ZM508,95.4h0s0,0-.1-.2h0s-.1,0-.2,0h.4s.1.2.2.3h0v.8h-.2v-.5h0v-.2h0ZM508.9,98.3h-.2v-1.7h.2v1.7ZM508.1,96.7h.2v1.7h-.2v-1.7ZM508,92.9v1.6h-.3v-1.6h.3ZM510.1,98.3v-1.7h.2v1.7h-.2ZM508.8,94.5v-1.6h.2v1.6h-.2ZM509.3,91.5l-.2-.5h.5l-.2.5h0ZM508.9,90.7l-.3-.5h.9v.2h0v-.2h.2l-.2.5h-.7.1ZM509.2,86.7h-.2l-.3-.7.2-.4h.2l.3.6-.2.5ZM507,69.1v-.2h.4v.4h-.3v-.2h-.1ZM507,68.6v-.2h.4v.4h-.3v-.2h-.1ZM507.9,60.3v.4h-.2v-.2c-.1,0,0-.2,0-.2h.3,0ZM508.5,84.8h0c0,0,0,0,0,0h0ZM507.9,66.8v.4h-.3v-.2c-.1,0,0-.2,0-.2h.4-.1ZM507.6,66.6v-.2c-.1,0,0-.2,0-.2h.4v.4h-.4ZM507.6,65.7h.4v.4h-.3v-.2c-.1,0,0-.2,0-.2h-.1ZM507.6,81l.4.9h-.1l-.4-.9h.1ZM507.6,78.8h0l.4.9h0l-.4-.9h0ZM507.8,80.4v.2h-.3v-.2h.3ZM508.4,80.4h.1v.2h0v-.2h-.1ZM508.5,78.8h0ZM508.3,78.3h.3c0,0-.2,0-.2,0h0ZM507.9,78.3h0c0,0-.3,0-.3,0h0c0,0,.3,0,.3,0ZM508.4,68.6h0ZM508.4,72.4h0c0,0,0,0,0,0h0c0,0,0,0,0,0ZM508.4,72.9h0c0,0,0,0,0,0h0c0,0,0,0,0,0ZM508.4,73.5v.3c-.1,0,0,.3,0,.3v.2h-.2v-.3c-.1,0-.1-.3-.1-.3.1,0,0-.3,0-.3v-.3h.3v.3c.1,0,0,.1,0,.1ZM507.6,74.2v-.3c-.1,0,0-.3,0-.3v-.3c-.1,0,0-.2,0-.2h.3v.3c.1,0,0,.3,0,.3v.3c.1,0,0,.3,0,.3h-.3ZM507.5,72.4v-.2h.4v.8c.1,0,0,.2,0,.2h-.3v-.2c-.1,0,0-.3,0-.3v-.3h-.1ZM507.9,70v.4h-.3v-.2c-.1,0,0-.2,0-.2h.4-.1ZM507.9,70.6v.4h-.3v-.2c-.1,0,0-.2,0-.2h.4-.1ZM507.9,71.1v.4h-.3v-.2c-.1,0,0-.2,0-.2h.4-.1ZM507.9,71.7v.4h-.3v-.2c-.1,0,0-.2,0-.2h.4-.1ZM508.3,71.5h-.2v-.2c-.1,0,0-.2,0-.2h.2v.4ZM508.3,71h-.2v-.2c-.1,0,0-.2,0-.2h.2v.4ZM508.3,70.4h-.2v-.2c-.1,0,0-.2,0-.2h.2v.4ZM507.9,68.4v.4h-.3v-.2c-.1,0,0-.2,0-.2h.4-.1ZM507.9,69v.4h-.3v-.2c-.1,0,0-.2,0-.2h.4-.1ZM507.9,69.5v.4h-.3v-.2c-.1,0,0-.2,0-.2h.4-.1ZM508.3,69.3h-.2v-.2c-.1,0,0-.2,0-.2h.2v.4ZM508.4,74h0c0,0,0,0,0,0h0c0,0,0,0,0,0ZM508.4,73.5h0c0,0,0,0,0,0h0c0,0,0,0,0,0ZM508.3,72.7v.3c.1,0,0,.2,0,.2h-.2v-.2c-.1,0,0-.3,0-.3v-.3c-.1,0,0-.2,0-.2h.2v.5ZM508.1,72v-.2c-.1,0,0-.2,0-.2h.2v.4h-.2ZM508.5,71.4h0v-.3h0v.3ZM508.5,70.9h0v-.3h0v.3ZM508.5,70.4h0v-.3h0v.3ZM508.1,69.9v-.2c-.1,0,0-.2,0-.2h.2v.4h-.2ZM508.3,68.8h-.2v-.2c-.1,0,0-.2,0-.2h.2v.4ZM507.9,67.9v.4h-.3v-.2c-.1,0,0-.2,0-.2h.4-.1ZM507.9,75.3v-.2h0v.2ZM507.9,75.5h0ZM507.7,76.6h0c0,0,0,0,0,0h.1-.1ZM508.5,76.6h0ZM508.2,75.6h0c0,0-.1-.4-.1-.4h.2v.4s-.1,0-.1,0ZM508.4,71.8h0c0,0,0,0,0,0h0c0,0,0,0,0,0ZM508.4,69.7h0c0,0,0,0,0,0h0v.2h0v-.2ZM508.5,69.3h0v-.3h0v.2h0ZM508.3,68.2h-.2v-.2c-.1,0,0-.2,0-.2h.2v.4ZM508,67.5v.2h-.4v-.2c-.1,0,0-.2,0-.2h.4v.2ZM509,81.8l-.4-.9h.2l.4.9h-.3,0ZM508.6,80.6v-.2h.4v.2h-.4ZM509,79.7l-.4-.9h.1l.4.9h-.1ZM508.6,78.4h0c0,0,.3,0,.3,0h0c0,0-.3,0-.3,0ZM507.6,63.5h.4v.4h-.3v-.2c-.1,0,0-.2,0-.2h-.1ZM507.6,63.4v-.2c-.1,0,0-.2,0-.2h.4v.4h-.4ZM507.6,62.8v-.2c-.1,0,0-.2,0-.2h.4v.2h0v.2h-.4ZM507.9,64.6v.4h-.3v-.2c-.1,0,0-.2,0-.2h.4-.1ZM508,64.2v.2h-.4v-.2c-.1,0,0-.2,0-.2h.4v.2ZM507.6,65.5v-.2c-.1,0,0-.2,0-.2h.4v.4h-.4ZM508,63.7h0c0,0,0,.2,0,.2v-.2ZM508,63.2h0ZM508,62.2h0c0,0-.3,0-.3,0v-.2c-.1,0,0-.2,0-.2h.4v.2h-.1ZM507.9,60.8v.4h-.3v-.2c-.1,0,0-.2,0-.2h.3ZM507.6,61.7v-.2c-.1,0,0-.2,0-.2h.3v.3h-.3ZM507.5,76.6h0ZM507.4,78.3v.2h-.2v-.2h.2ZM507.5,78.8l-.4.9h0l.4-.9h0ZM507.4,80.4v.2h-.1v-.2h.1ZM507.5,81l-.4.9h-.1l.4-.9h.1ZM508.8,85.3l-.2-.3v-.2h.8l-.2.5h-.4,0ZM509,84l-.3-.8h0l-.3-.6h0v.2h0v-.2h.5l-.2.5.5,1h-.5.3ZM508.6,76.6h.1c0,0,0,0,0,0h-.1ZM508.9,75.6h0ZM508.7,74.3v-.2c-.1,0,0-.3,0-.3v-.3c-.1,0,0-.3,0-.3h.1v1.1s-.1,0-.1,0ZM508.6,73.1v-.8c-.1,0,0-.2,0-.2h0v.9h0ZM508.3,67.7h-.2v-.2c-.1,0,0-.2,0-.2h.2v.3s0,0,0,0ZM508.1,67.2v-.2c-.1,0,0-.2,0-.2h.2v.4s-.2,0-.2,0ZM508.1,66.6v-.2c-.1,0,0-.2,0-.2h.2v.4h-.2ZM508.1,66.1v-.2c-.1,0,0-.2,0-.2h.1v.4s-.1,0-.1,0ZM508.1,65v-.2c-.1,0,0-.2,0-.2h0v.4h0ZM508.1,64.5v-.2c-.1,0,0-.2,0-.2h0v.4h0ZM507.6,59.1h.1v.5h-.1v-.2c-.1,0,0-.2,0-.2h0ZM507.6,60.1v-.2c-.1,0,0-.2,0-.2h.2v.4h-.2ZM507.4,67.9v.4h-.3v-.2c-.1,0,0-.2,0-.2h.3ZM506.6,68.6v-.2h.3v.4h-.2v-.2h0ZM507.4,73.2h0v.3c.1,0,.1.3.1.3-.1,0,0,.3,0,.3v.2h-.4v-.3c-.1,0-.1-.3-.1-.3.1,0,0-.3,0-.3v-.3h.4ZM507.2,75.2h0c0,0,0,0,0,0h.1-.1ZM507.1,75.4h0c0,0-.1,0-.1,0h.1ZM506.6,76.6h0c0,0,0,0,0,0h.1-.1ZM506.7,78.3v.2h-.3v-.2h.3ZM506.5,78.8h0ZM506.6,80.4v.2h-.2v-.2h.2ZM506.4,81h0ZM507.4,82.6v.2h0v-.2h.3l-.2.5.4.9h-.2l-.4-1h0l-.4,1h-.2l.5-1-.2-.4h.4ZM507.8,91l-.2.4-.2-.4h.4ZM506.9,96.7v1.7h-.2v-1.7h.2ZM508.6,72v-.4.4h0ZM508.1,65.5v-.2c-.1,0,0-.2,0-.2h0v.4h0ZM507.6,59v-.2c-.1,0,0-.2,0-.2h.1v.5h-.1ZM507.4,60.8v.4h-.3v-.4h.3ZM506.6,69.1h0c0,0,0,0,0,0h0ZM506.6,72.9v-.3c.1,0,0-.3,0-.3v-.2h.3v.8c.1,0,0,.2,0,.2h-.2v-.2h0ZM506.9,75.2v.3c-.1,0,0,0,0,0h-.1v-.4h.2-.1ZM506.4,76.6h0ZM506.4,76.7l-.4.8h0l.4-.9h0ZM506.3,78.3v.2h-.2v-.2h.2ZM506.4,78.8l-.4.9h-.2l.4-.9h.2ZM506.3,80.4v.2h-.2v-.2h.2ZM506.3,81h0l-.4.9h-.4l.4-.9h.4ZM506.3,82.6v.2l.2-.2h0l-.3.6h0l-.3.8h-.5l.5-1.2v-.2c-.1,0,.3,0,.3,0h0ZM507.4,84.8v.2h0v-.2h.3l-.2.5h-.3l-.3-.5h.5ZM507.6,85.6l.6,1.1h-.2l-.4-1h0l-.4,1h-.3l.5-1.1h.2,0ZM506,91l-.2.4-.2-.4h.4ZM507.3,92.9v1.6h-.2v-1.6h.2ZM506.4,96.7v1.7h-.3v-1.7h.3ZM507.6,58.5v-.2c-.1,0,0-.2,0-.2h0v.5h0ZM507.6,58v-.2c-.1,0,0-.3,0-.3v.5h0ZM507.5,59.4v.2h-.3v-.5h.2v.3q.1,0,0,0ZM507.4,60.3v.4h-.3v-.4h.3ZM507.1,61.4h.3v.4h-.4v-.4h.1ZM507,63.2h0ZM507,63.7v.2-.3h0ZM506.9,66.2v.4h-.2v-.4s.2,0,.2,0ZM506.5,69.5h0v.3h0v-.2h0ZM506.5,70h0v.3h0v-.3ZM506.5,70.6h0v.3h0v-.3ZM506.5,71.1h0v.3h0v-.3ZM506.5,71.7h0v.3h0v-.3ZM506.5,72.8h0v.3h0v-.3ZM506.5,73.8h0v.3h0v-.3ZM506.1,75.6h0ZM506.3,84.8v.2l.2-.2h0l-.2.5h-.3l-.3-.5h.6,0ZM506.1,85.6l.2.4-.3.7h-.1l-.3-.6.2-.5h.3,0ZM505.6,87.5h.8v.6h-.5l-.3-.5h0ZM505.8,88h-.3v-.3c.1,0,.3.3.3.3ZM506.1,88.3h0ZM507.7,88.3l.5,1h-.3l-.4-1h0l-.4,1h-.3c0,0,.4-1.1.4-1.1h.5,0ZM506,92.9h.3v1.6h-.3v-1.6ZM504.8,96.7h.2v1.7h-.2v-1.7ZM507.5,58.9v.2h-.2v-.5h.1v.3ZM507.4,59.8v.4h-.2v-.4h.2ZM506.9,64.1h0v.4h0v-.4ZM506.9,64.6h0v.4h0s0-.4,0-.4ZM506.8,65.2h0v.4h-.1v-.4h.1ZM506.8,65.7h.1v.4h-.1s0-.4,0-.4ZM506.9,66.8v.4h-.2v-.4s.2,0,.2,0ZM506.9,67.3v.4h-.2v-.4s.2,0,.2,0ZM506.5,70.2h0ZM506.5,70.7h0c0,0,0,0,0,0h0ZM506.5,71.3v.2c-.1,0,0-.4,0-.4h0v.2ZM506.5,71.8v.2h-.1v-.4s.1.2.1.2ZM506.3,72.2h0v.8c.1,0,0,.2,0,.2h-.1v-.9h.1ZM506.3,73.2v.2c.1,0,0,.3,0,.3v.3c.1,0,0,.3,0,.3h-.2v-1.1s.2,0,.2,0ZM505.4,88.3h.6l.3.6-.2.6h-.3l-.4-1-.2.6h0l.3-.7h0ZM512.4,97h0c0,0,.2.2.2.2l.2-.3h0c0,0-.2.4-.2.4h0l-.2-.3h0ZM512.2,96.6h0ZM512.5,93.1h.2c0,0-.2,0-.2,0h0ZM512.5,92.9h.2c0,0-.2,0-.2,0h0ZM512.5,92.5h.2c0,0-.2,0-.2,0h0ZM512.5,92.3h.2c0,0-.2,0-.2,0h0ZM512.5,92.1h.2c0,0-.2,0-.2,0h0ZM512.5,91.9h.2c0,0-.2,0-.2,0h0ZM513.2,97.4h0l-.2-.3h0l.2.2.2-.3h0v.5h-.2ZM512.2,95.4h0ZM512.2,95h0ZM512.3,94.7h0c0,0,0,0,0,0h0ZM512.3,94.5h0c0,0,0,0,0,0h0ZM512.3,94.3h0c0,0,0,0,0,0h0ZM512.3,94.1h0c0,0,0,0,0,0h0ZM512.3,93.9h0c0,0,0,0,0,0h0ZM512.5,92.7h.2c0,0-.2,0-.2,0h0ZM512.5,91.7h.2c0,0-.2,0-.2,0h0ZM512.5,91.5h.2c0,0-.2,0-.2,0h0ZM512.5,91.2h.2c0,0-.2,0-.2,0h0ZM512.5,91h.2c0,0-.2,0-.2,0h0ZM512.7,89.4h0ZM512.7,89.6h0ZM512.3,95.6h0v-.2h0v.2h0v.2h0v-.2ZM512.5,95.2h0v-.2h.2v.2h0v.2h-.2v-.2ZM512.5,94.8h.2c0,0-.2,0-.2,0h0ZM512.5,94.5h.2c0,0-.2,0-.2,0h0ZM512.5,94.3h.2c0,0-.2,0-.2,0h0ZM512.5,94.1h.2c0,0-.2,0-.2,0h0ZM512.5,93.9h.2c0,0-.2,0-.2,0h0ZM512.3,93.7h0c0,0,0,0,0,0h0ZM512.3,93.5h0ZM512.3,93.3h0c0,0,0,0,0,0h0ZM513.2,94.1h0ZM513.2,94.3h0ZM513.2,94.5h0c0,0,0,0,0,0h0ZM512.5,93.7h.2c0,0-.2,0-.2,0h0ZM512.5,93.5h.2c0,0-.2,0-.2,0h0ZM512.9,90.4h0c0,0,0,0,0,0h0c0,0,0,0,0,0ZM512.9,92.4h-.2c0,0,.2,0,.2,0h0ZM513.3,96.6h0ZM512.9,92.6h-.2c0,0,.2,0,.2,0h0ZM512.9,92.8h-.2c0,0,.2,0,.2,0h0ZM512.7,92.7h0ZM512.9,92.8h0c0,0-.2,0-.2,0h0c0,0,.2,0,.2,0ZM512.9,93h0c0,0-.2,0-.2,0h0c0,0,.2,0,.2,0ZM513.1,94h0c0,0,0,0,0,0h0ZM513.1,94.8h0c0,0,0,0,0,0h0ZM512.7,95.4h0ZM512.8,95.5h0c0,0,0,0,0,0h0v.2h0v.2h0v-.2h0ZM512.7,95h0ZM512.8,95.1h0c0,0,.2,0,.2,0h0v.2h0v.2h-.2v-.2h0ZM512.9,93.5h0c0,0,.2,0,.2,0h-.1ZM512.9,93.7h0c0,0-.2,0-.2,0h0c0,0,.2,0,.2,0ZM513.1,93.8h0c0,0,0,0,0,0h0ZM512.7,93.5h0ZM512.7,93.7h0ZM512.9,93.9h0c0,0-.2,0-.2,0h0c0,0,.2,0,.2,0ZM513.1,94.4h0c0,0,0,0,0,0h0ZM513.1,94.6h0c0,0,0,0,0,0h0ZM512.9,94.1h0c0,0-.2,0-.2,0h0c0,0,.2,0,.2,0ZM512.9,94.3h0c0,0-.2,0-.2,0h0c0,0,.2,0,.2,0ZM512.9,94.5h0c0,0-.2,0-.2,0h0c0,0,.2,0,.2,0ZM512.9,94.7h0c0,0-.2,0-.2,0h0c0,0,.2,0,.2,0ZM513.1,95.7h0v-.2h0v.2h0ZM513.2,95.2h0ZM513.2,95h0ZM513.1,95.1h0c0,0,0,0,0,0h0v-.2h0v.2h0ZM513.1,94.2h0c0,0,0,0,0,0h0ZM513.1,93.6h0c0,0,0,0,0,0h0ZM512.9,93.3h0c0,0,.2,0,.2,0h-.1ZM512.7,93.3h0ZM512.7,93.9h0ZM512.7,94.1h0ZM512.7,94.3h0ZM512.7,94.5h0ZM512.7,94.7h0ZM512.7,95.2h0ZM512.7,95.6h0ZM513,96.1h0ZM512.9,96h0ZM513,96.1h0ZM513.2,95.6h0ZM513.2,95.4h0ZM513.2,93.8h0ZM513.1,93.5h0ZM513.1,93.4h0c0,0,0,0,0,0h0ZM512.9,96.1h0ZM513.4,96.2h0ZM513.2,94.8h0ZM513.2,94.6h0ZM513.2,94.4h0ZM513.2,94.2h0ZM513.1,93.9h0ZM512.7,91.7h0ZM512.9,91.5h-.2c0,0,.2,0,.2,0h0ZM512.9,91.7h-.2c0,0,.2,0,.2,0h0ZM512.9,91.2h0c0,0-.2,0-.2,0h0c0,0,.2,0,.2,0ZM512.7,91h0ZM512.7,91.2h0ZM512.7,91.5h0ZM512.9,91.8h0c0,0-.2,0-.2,0h0c0,0,.2,0,.2,0ZM512.9,92h0c0,0-.2,0-.2,0h0c0,0,.2,0,.2,0ZM513,91.6h0ZM513,91.4h0ZM512.9,91.1h0c0,0,.2,0,.2,0h-.1ZM512.7,90.6h0ZM512.9,90.6h0c0,0,0,0,0,0h0c0,0,0,0,0,0ZM512.9,90.8h0c0,0-.2,0-.2,0h0c0,0,.2,0,.2,0ZM512.7,90.4h0ZM512.7,90.8h0ZM512.7,91.9h0ZM512.7,92.1h0ZM512.7,92.3h0ZM512.7,92.5h0ZM512.7,92.9h0ZM512.7,93.1h0ZM512.8,96.6h0ZM513.2,96.6h0ZM513.2,95.6h0v-.2h0v.4h0v-.2ZM513.2,95.2h0v-.2h0v-.2h0v.3h0ZM513.1,93.2h0c0,0,0,0,0,0h0ZM513,92.9h0c0,0,0,0,0,0ZM513,92.8h0ZM513,92.6h0ZM513,92.1h0ZM513,91.9h0ZM512.7,90h0ZM512.8,90.1h0v-.2h0v.2h0ZM512.8,90.2h0c0,0,0,0,0,0h0,0ZM512.7,89.8h0ZM512.7,90.2h0ZM512.7,93.2h0c0,0-.2,0-.2,0h0c0,0,.2,0,.2,0ZM512.3,93.5h0c0,0,0,0,0,0h0ZM512.6,95.3h0v.3h0v-.3h0ZM512.5,96h0ZM512.5,96.1h0ZM513.2,94.8h0ZM513,92.3h0c0,0,0,0,0,0ZM512.8,89.9h0v-.2h0v.2h0ZM512.7,90.6h0c0,0,0,0,0,0h0c0,0,0,0,0,0ZM512.3,93.7h0ZM512.3,95.2h0v-.2h0v.2h0v.2h0v-.2ZM512.4,96h0v.2h0v-.2h0ZM512.7,89.6h0v.2h0v-.2ZM512.7,89.4h0c0,0,0,0,0,0h0ZM512.7,90h0v-.2h0v.2ZM512.7,90.4h0c0,0,0,0,0,0h0c0,0,0,0,0,0ZM512.5,90.8h.2c0,0-.2,0-.2,0h0ZM512.5,91.5h0ZM512.5,91.7h0ZM512.4,92.6h0ZM512.2,93.9h0c0,0,0,0,0,0ZM512.2,94.1h0c0,0,0,0,0,0ZM512.2,94.3h0c0,0,0,0,0,0ZM512.2,94.5h0c0,0,0,0,0,0ZM512.2,94.7h0c0,0,0,0,0,0ZM512.2,95.1h0c0,0,0,0,0,0ZM512.2,95.5h0c0,0,0,0,0,0ZM512,96.2h0ZM512.2,96.6h0ZM512.7,96.6h0ZM512.7,89.8h0v-.2h0v.2ZM512.7,90.2h0c0,0,0,0,0,0h0c0,0,0,0,0,0ZM512.4,91.8h0c0,0,0,0,0,0ZM512.4,92h0c0,0,0,0,0,0ZM512.4,92.2h0c0,0,0,0,0,0ZM512.4,92.4h0c0,0,0,0,0,0ZM512.4,92.8h0c0,0,0,0,0,0h0c0,0,0,0,0,0ZM512.4,93h0c0,0,0,0,0,0h0c0,0,0,0,0,0ZM512.2,94.1h0ZM512.2,94.3h0ZM512.2,94.5h0ZM512.2,94.7h0v-.2h0v.2ZM512.1,94.9h0v.2h0v.2h0v-.3h0ZM512.2,95.3h0v.2h0v.2h0v-.4h0ZM512,97l.2-.4h0l-.2.3.2.4.2-.3h0l-.2.4h0l-.2-.3h0ZM512.6,89.3h0v.2h0v-.2ZM512.6,89.5h0c0,0,0,0,0,0h0ZM507.4,57.5v.3c.1,0,0,.2,0,.2h0v-.5ZM507.4,58h0v.3c.1,0,.1.2.1.2h-.2v-.5h.1ZM502.3,89.3h0v.2h0v-.2ZM502.4,89.5h0c0,0,0,0,0,0h0ZM488.2,158.4h-.3.3ZM499.8,158.3h-.4.4ZM499.1,158.3h-.8.8ZM498,158.3h-.8.8ZM496.9,158.4h-.6.6ZM485.1,158.3h2.4-2.4Z"/>
  <path class="st4" d="M78.9,179.9c0,6.6-5.9,4.6-13.4,4.6s-13.7,2-13.7-4.6,6.1-11.9,13.5-11.9,13.5,5.3,13.5,11.9h0Z"/>
  <path class="st4" d="M91.9,176.8c-2.3,0-4.5.9-6,2.4-1.6-1.5-3.7-2.4-6-2.4s-4.4.9-5.9,2.3c-1.6-1.4-3.6-2.3-6-2.3-4.7,0-8.4,3.6-8.7,8h41.3c-.2-4.5-4-8-8.7-8Z"/>
  <path class="st4" d="M137.5,184.8c-.3-5.3-4.8-9.6-10.3-9.6s-10.1,4.3-10.3,9.6h20.7,0Z"/>
  <path class="st4" d="M318.2,184.8c-.3-5.3-4.7-9.5-10.2-9.5s-10,4.2-10.2,9.5h20.5,0Z"/>
  <path class="st4" d="M484.4,184.8c-.4-7.6-6.8-13.7-14.8-13.7s-14.4,6.1-14.8,13.7h29.6,0Z"/>
  <path class="st4" d="M506.3,176.9c-2.3,0-4.4.9-5.9,2.3-1.5-1.4-3.6-2.3-5.9-2.3s-4.3.9-5.8,2.3c-1.5-1.4-3.6-2.3-5.8-2.3-4.6,0-8.3,3.5-8.5,7.9h40.5c-.2-4.4-3.9-7.9-8.5-7.9h-.1Z"/>
  <path class="st4" d="M430.8,178.8c-1.8,0-3.4.7-4.5,1.8-1.2-1.1-2.8-1.8-4.5-1.8s-3.3.7-4.5,1.7c-1.2-1.1-2.7-1.7-4.5-1.7-3.5,0-6.4,2.7-6.5,6h31c-.2-3.4-3-6-6.5-6Z"/>
  <rect class="st4" x="25.9" y="180.2" width="548.2" height="4.6"/>
  <path class="st1" d="M104.2,176.7c-2.4,0-4.3.9-5.9,2.4-1.5-1.5-3.7-2.4-5.9-2.4s-4.3.9-5.9,2.4c-1.5-1.5-3.7-2.4-5.9-2.4-4.6,0-8.2,3.7-8.5,8h40.5c-.2-4.6-3.9-8-8.5-8h-.2Z"/>
  <path class="st1" d="M58.7,177.7c-2,0-3.8.8-5,2-1.3-1.3-3-2-5-2s-3.8.8-5,2c-1.3-1.3-3-2-5-2-4,0-7,3-7.3,7h34.6c0-3.8-3.3-7-7.3-7Z"/>
  <path class="st1" d="M313.4,175.4c-2.6,0-5.1,1.1-6.9,2.8-1.7-1.7-4.1-2.8-6.8-2.8s-5.1.9-6.8,2.6c-1.7-1.7-4.1-2.6-6.8-2.6-5.3,0-9.6,4.1-10,9.4h46.9c-.2-5.3-4.5-9.4-10-9.4h.2Z"/>
  <path class="st1" d="M140.7,178.8c-1.6,0-3.2.6-4.4,1.8-1.2-1-2.6-1.8-4.4-1.8s-3.2.6-4.4,1.8c-1.2-1-2.6-1.8-4.2-1.8-3.4,0-6.2,2.6-6.2,6h29.7c0-3.4-3-6-6.2-6h0Z"/>
  <path class="st1" d="M190.5,179c-1.5,0-3.1.6-4.2,1.7-1.2-1-2.5-1.7-4.2-1.7s-3.1.6-4.2,1.7c-1.2-1-2.5-1.7-4-1.7-3.3,0-6,2.5-6,5.8h28.7c0-3.3-2.9-5.8-6-5.8h0Z"/>
  <path class="st1" d="M229.4,179.1c-1.7,0-3,.7-4.1,1.7-1.1-1.1-2.6-1.7-4.1-1.7s-3,.7-4.1,1.7c-1.1-1.1-2.6-1.7-4.1-1.7-3.3,0-5.9,2.6-6.1,5.7h28.7c0-3.3-2.8-5.7-6.1-5.7h0Z"/>
  <path class="st1" d="M257.9,178.9c-1.8,0-3.1.7-4.3,1.8-1.1-1.1-2.7-1.8-4.3-1.8s-3.1.7-4.3,1.8c-1.1-1.1-2.7-1.8-4.3-1.8-3.4,0-6.1,2.7-6.3,5.8h29.7c0-3.4-2.9-5.8-6.3-5.8h0Z"/>
  <path class="st1" d="M355.1,178.4c-1.9,0-3.4.7-4.6,1.9-1.2-1.2-2.9-1.9-4.6-1.9s-3.4.7-4.6,1.9c-1.2-1.2-2.9-1.9-4.6-1.9-3.6,0-6.6,2.9-6.8,6.3h32.1c0-3.6-3.2-6.3-6.8-6.3h0Z"/>
  <path class="st1" d="M543.9,182c-.8,0-1.5.3-2,.8-.5-.5-1.3-.8-2-.8s-1.5.3-2,.8c-.5-.5-1.3-.8-2-.8-1.6,0-2.8,1.3-3,2.7h13.9c0-1.6-1.4-2.7-3-2.7h0Z"/>
  <path class="st1" d="M565.6,182c-.8,0-1.5.3-2,.8-.5-.5-1.3-.8-2-.8s-1.5.3-2,.8c-.5-.5-1.3-.8-2-.8-1.6,0-2.8,1.3-3,2.7h13.9c0-1.6-1.4-2.7-3-2.7h0Z"/>
  <path class="st1" d="M486.7,180.6c-1.2,0-2.2.4-3.1,1.3-.7-.7-1.8-1.3-3.1-1.3s-2.2.4-3,1.2c-.7-.7-1.8-1.2-3-1.2-2.3,0-4.2,1.8-4.3,4.1h20.7c-.1-2.3-2-4.1-4.3-4.1h0Z"/>
  <path class="st1" d="M448,181.6c-.9,0-1.7.3-2.3.9-.6-.6-1.4-.9-2.3-.9s-1.7.3-2.3.9c-.6-.5-1.4-.9-2.3-.9-1.8,0-3.3,1.4-3.4,3.2h15.8c0-1.8-1.6-3.2-3.4-3.2h.2Z"/>
</svg>