<?xml version="1.0" encoding="UTF-8"?>
<svg id="Layer_1" xmlns="http://www.w3.org/2000/svg" version="1.1" viewBox="0 0 237.9 182.8">
  <!-- Generator: Adobe Illustrator 29.0.1, SVG Export Plug-In . SVG Version: 2.1.0 Build 192)  -->
  <defs>
    <style>
      .st0 {
        fill: #fecc07;
      }

      .st1 {
        fill: #005392;
      }
    </style>
  </defs>
  <path class="st0" d="M69.1,25.5l18.6,9.2-25.3,5.9s-3.5,26.3-32.6,34.7v22.5l16.4-3.7.2,41.3s.7,10.5-14.2,12.4v22.4h1.6l-2.2.9-16-12.9v-20.2s14.2-2.2,14.2-11.4v-28.9l-16.4-11v-20.8s31.8-14.5,32.9-34.9l22.8-5.5Z"/>
  <g>
    <path class="st1" d="M65.2,76c0,2.1,0,3.6-.1,4.5,0,.9-.4,1.8-.9,2.6-.5.8-1.2,1.6-2.1,2.2-.9.6-1.9,1-3.1,1.3-1.1.3-2.1.3-3,.2-.9-.2-1.6-.5-2.2-1.1-.5-.6-.9-1.3-1-2.2-.1-.8-.2-2.3-.2-4.5v-3.6c0-2.1,0-3.6.1-4.5,0-.9.4-1.8.9-2.6.5-.8,1.2-1.6,2.1-2.2.9-.6,1.9-1,3.1-1.3,1.1-.3,2.1-.3,3-.2.9.2,1.6.5,2.2,1.1.5.6.9,1.3,1,2.2.1.8.2,2.3.2,4.5v3.6ZM59.8,70.4c0-1,0-1.6-.2-1.8-.1-.2-.3-.3-.7-.3-.3,0-.5.2-.7.5-.2.3-.2.9-.2,2v9.8c0,1.2,0,2,.1,2.2,0,.3.3.3.7.3.4,0,.6-.3.7-.7.1-.4.2-1.1.2-2.4v-9.6Z"/>
    <path class="st1" d="M80.5,60.1v21l-4.8,1.1-2.8-8.9v9.5l-4.6,1.1v-21l4.6-1.1,3.1,8.7v-9.4l4.6-1.1Z"/>
    <path class="st1" d="M83.8,59.3l9.1-2.1v4.2l-3.6.9v4l3.4-.8v4l-3.4.8v4.6l4-.9v4.2l-9.4,2.2v-21Z"/>
    <path class="st1" d="M114.3,61.2l-5.4,1.3v-3.6c0-1.1,0-1.7-.2-1.9-.1-.2-.4-.3-.8-.2-.4.1-.7.3-.9.7-.1.3-.2,1.1-.2,2.1v9.7c0,1,0,1.7.2,2,.1.3.4.4.8.3.4,0,.7-.3.8-.7.1-.3.2-1.1.2-2.2v-2.6l5.4-1.3v.8c0,2.2-.2,3.7-.5,4.7-.3,1-1,1.9-2,2.9-1,.9-2.3,1.6-3.9,1.9-1.6.4-2.9.4-3.9,0-1-.3-1.7-1-2.1-1.9-.3-.9-.5-2.4-.5-4.5v-6.1c0-1.5,0-2.7.2-3.4.1-.8.4-1.6.9-2.4.5-.8,1.2-1.5,2.1-2.2.9-.6,2-1.1,3.1-1.3,1.6-.4,2.9-.4,4,0,1,.4,1.7,1,2.1,1.8.3.8.5,2.3.5,4.2v2Z"/>
    <path class="st1" d="M129.8,48.4v21l-5.4,1.3v-8.8l-1.6.4v8.8l-5.4,1.3v-21l5.4-1.3v7.5l1.6-.4v-7.5l5.4-1.3Z"/>
    <path class="st1" d="M142.5,45.5l3.1,20.2-5.6,1.3-.3-3.7-1.9.5-.3,3.8-5.6,1.3,2.8-21.6,7.9-1.9ZM139.6,59.6c-.3-2.3-.6-5.2-.8-8.6-.6,4.1-.9,7.2-1,9l1.9-.4Z"/>
    <path class="st1" d="M153,43v16.8l3.3-.8v4.2l-8.8,2.1v-21l5.4-1.3Z"/>
    <path class="st1" d="M164.2,40.3v16.8l3.3-.8v4.2l-8.8,2.1v-21l5.4-1.3Z"/>
    <path class="st1" d="M169.9,39l9.1-2.1v4.2l-3.6.9v4l3.4-.8v4l-3.4.8v4.6l4-.9v4.2l-9.4,2.2v-21Z"/>
    <path class="st1" d="M194.1,33.2v21l-4.8,1.1-2.8-8.9v9.5l-4.6,1.1v-21l4.6-1.1,3.1,8.7v-9.4l4.6-1.1Z"/>
    <path class="st1" d="M209.9,37.2l-5.4,1.3v-1.9c0-1.2,0-1.9-.2-2.2-.1-.3-.3-.4-.7-.3-.3,0-.6.3-.7.6-.1.3-.2,1-.2,2v10.1c0,.9,0,1.5.2,1.8.1.3.4.4.7.3.4,0,.7-.3.8-.7.1-.4.2-1,.2-2v-2.5l-1.1.3v-3.2l6.4-1.5v11.2l-3.4.8-.5-1.4c-.4.7-.8,1.3-1.4,1.8-.6.5-1.2.8-2,1-.9.2-1.8.2-2.6,0-.8-.3-1.4-.7-1.8-1.2-.4-.6-.7-1.2-.8-1.9-.1-.7-.2-1.8-.2-3.2v-6.2c0-2,.1-3.5.3-4.4.2-1,.8-1.9,1.9-2.9,1-1,2.3-1.7,4-2.1,1.6-.4,2.9-.4,4,0,1.1.4,1.7,1,2.1,1.9.3.8.5,2.1.5,3.8v.9Z"/>
    <path class="st1" d="M213.1,28.8l9.1-2.1v4.2l-3.6.9v4l3.4-.8v4l-3.4.8v4.6l4-.9v4.2l-9.4,2.2v-21Z"/>
    <path class="st0" d="M82.1,101.7l-12.2,2.9v-3.7c0-1.7-.2-2.8-.5-3.2-.3-.4-.8-.5-1.6-.3-.8.2-1.4.6-1.8,1.4-.4.7-.6,1.8-.6,3.1s.2,2.9.7,3.6c.4.7,1.7,1.5,3.7,2.2,5.8,2.1,9.5,4.1,11,5.9,1.5,1.9,2.3,5.3,2.3,10.2s-.4,6.3-1.3,8.2c-.8,1.9-2.5,3.7-4.9,5.4-2.4,1.7-5.2,3-8.4,3.7-3.5.8-6.5.9-9,.1-2.5-.7-4.1-2.1-4.9-3.9-.8-1.9-1.2-4.7-1.2-8.5v-3.3l12.2-2.9v6.1c0,1.9.2,3.1.5,3.5.3.5,1,.6,1.8.4.9-.2,1.5-.7,1.9-1.5s.6-1.9.6-3.2c0-3-.4-4.8-1.2-5.5-.8-.7-2.9-1.8-6.1-3.1-3.3-1.4-5.4-2.4-6.5-3.2-1.1-.7-1.9-1.9-2.6-3.4-.7-1.6-1-3.7-1-6.4,0-3.9.5-6.8,1.5-8.8,1-2,2.6-3.8,4.8-5.3,2.2-1.5,4.9-2.7,8-3.4,3.4-.8,6.3-.9,8.7-.4,2.4.5,4,1.5,4.8,3,.8,1.5,1.2,4.2,1.2,8.2v2Z"/>
    <path class="st0" d="M115.6,78.5v10.1l-7.8,1.8v40.3l-13.1,3.1v-40.3l-7.8,1.8v-10.1l28.7-6.8Z"/>
    <path class="st0" d="M150.7,70.2v50.4l-13.1,3.1v-21.2l-3.9.9v21.2l-13.1,3.1v-50.4l13.1-3.1v18l3.9-.9v-18l13.1-3.1Z"/>
    <path class="st0" d="M171,65.4v40.3l8-1.9v10.1l-21.1,5v-50.4l13.1-3.1Z"/>
    <path class="st0" d="M224.5,52.8v50.4l-11.5,2.7v-34s-4.6,35.1-4.6,35.1l-8.1,1.9-4.8-32.1v33.3s-11.5,2.7-11.5,2.7v-50.4l17-4c.5,2.9,1,6.4,1.6,10.4l1.9,12.4,3-24.3,17.1-4Z"/>
  </g>
  <polygon class="st1" points="87.7 38.8 203.5 11.7 222.1 20.9 87.7 52.3 87.7 38.8"/>
  <polygon class="st0" points="52.6 161 224.5 119.3 224.5 111.4 52.6 153.1 52.6 161"/>
</svg>