<?xml version="1.0" encoding="UTF-8"?>
<svg id="OBJECTS" xmlns="http://www.w3.org/2000/svg" version="1.1" viewBox="0 0 214.2 98.4">
  <!-- Generator: Adobe Illustrator 29.0.1, SVG Export Plug-In . SVG Version: 2.1.0 Build 192)  -->
  <defs>
    <style>
      .st0 {
        fill: none;
        stroke: #fff;
        stroke-linecap: round;
        stroke-linejoin: round;
        stroke-width: .5px;
      }

      .st1 {
        opacity: .4;
      }

      .st2 {
        fill: #f7f7f7;
      }
    </style>
  </defs>
  <g>
    <g class="st1">
      <polyline class="st0" points="78.7 61 83.5 89 139.1 50.9 170.1 81.8 164 53.2"/>
      <path class="st0" d="M196.9,71.1l6.9-4.3c-.4-.3-13.6-16.2-13.6-16.2l-26.2,2.6,13.3-29.3,29.4,22.8-16.5,3.9"/>
      <polyline class="st0" points="164 53.2 158.8 27.5 133.1 28.7 125.2 9.6 103.1 20.5 62.7 8.2"/>
      <polyline class="st0" points="139.1 50.9 158.8 27.5 151.1 8.2 177.4 23.9 158.8 27.5"/>
      <polyline class="st0" points="133.1 28.7 103.1 20.5 65.3 38.2"/>
      <line class="st0" x1="177.4" y1="23.9" x2="190.3" y2="50.5"/>
      <path class="st0" d="M27.3,69.3l27.8,13.4c1.1-1.2,23.5-21.7,23.5-21.7l-13.4-22.7,73.8,12.6-40,7.3-33.8-20,67.7-9.5,6,22.1,24.9,2.3,32.9,17.9-22.4,16.9-4.4-6.1"/>
      <path class="st0" d="M174.5,88l-24.8-5.3-12.2-14.3-54.1,20.7,15.7-30.8-20.5,2.8-51.4,8.3-19.8-14.1c.9-.4,57.8-17,57.8-17l-2.6-30.1-33.3,7.7L7.5,55.2l43.3.5"/>
      <polyline class="st0" points="137.5 68.4 139.1 50.9 124.5 40 133.1 28.7"/>
      <polyline class="st0" points="124.5 40 65.3 38.2 50.8 55.7"/>
      <polyline class="st0" points="78.7 61 50.8 55.7 27.3 69.3"/>
      <line class="st0" x1="29.6" y1="15.9" x2="65.3" y2="38.2"/>
    </g>
    <g>
      <polyline class="st0" points="145.1 63.4 124.5 86.8 84.7 53.3 53.7 84.2 55.8 51.8"/>
      <path class="st0" d="M26.9,73.5l-6-7.5c.4-.3,21.8-16.8,21.8-16.8l13.2,2.6-9.4-25.5-20.7-9.5,16.9,32.5"/>
      <polyline class="st0" points="55.8 51.8 65 29.9 83 35.2 100.3 13.7 118.9 31.1 167.2 15.1"/>
      <polyline class="st0" points="84.7 53.3 65 29.9 67.7 13.2 46.4 26.3 65 29.9"/>
      <polyline class="st0" points="83 35.2 118.9 31.1 158.5 40.6"/>
      <line class="st0" x1="46.4" y1="26.3" x2="42.6" y2="49.2"/>
      <path class="st0" d="M196.5,71.7l-27.8,13.4c-1.1-1.2-23.5-21.7-23.5-21.7l13.4-22.7-73.8,12.6,40,7.3,33.8-20-75.4-5.4,1.6,18-28.9-1.4-28.9,21.7,22.4,16.9,4.4-6.1"/>
      <path class="st0" d="M49.3,90.4l24.8-5.3,12.2-14.3,38.3,16.1v-26.2c0,0,20.6,2.8,20.6,2.8l51.4,8.3-1-14.5c-.9-.4-37-16.5-37-16.5l8.7-25.5,25.8,24.9,2.4,17.1-22.4,1"/>
      <polyline class="st0" points="86.2 70.8 84.7 53.3 99.3 42.4 83 35.2"/>
      <polyline class="st0" points="99.3 42.4 158.5 40.6 173 58.1"/>
      <polyline class="st0" points="145.1 63.4 173 58.1 196.5 71.7"/>
      <line class="st0" x1="192.8" y1="40" x2="158.5" y2="40.6"/>
    </g>
  </g>
  <g>
    <circle class="st2" cx="46.4" cy="26.2" r=".8"/>
    <path class="st2" d="M67.8,12.3c-.5,0-.8.4-.8.8s.4.8.8.8.8-.4.8-.8-.4-.8-.8-.8Z"/>
    <path class="st2" d="M65.8,29.8c0-.5-.4-.8-.8-.8s-.8.4-.8.8.4.8.8.8.8-.4.8-.8Z"/>
    <path class="st2" d="M100.3,13c-.5,0-.8.4-.8.8s.4.8.8.8.8-.4.8-.8-.4-.8-.8-.8Z"/>
    <path class="st2" d="M83.9,35.2c0-.5-.4-.8-.8-.8s-.8.4-.8.8.4.8.8.8.8-.4.8-.8Z"/>
    <path class="st2" d="M99.2,41.5c-.5,0-.8.4-.8.8s.4.8.8.8.8-.4.8-.8-.4-.8-.8-.8Z"/>
    <circle class="st2" cx="119" cy="31" r=".8"/>
    <circle class="st2" cx="167.2" cy="15.2" r=".8"/>
    <path class="st2" d="M158.5,39.8c-.5,0-.8.4-.8.8s.4.8.8.8.8-.4.8-.8-.4-.8-.8-.8Z"/>
    <path class="st2" d="M192.9,39.1c-.5,0-.8.4-.8.8s.4.8.8.8.8-.4.8-.8-.4-.8-.8-.8Z"/>
    <path class="st2" d="M196.2,57c0-.5-.4-.8-.8-.8s-.8.4-.8.8.4.8.8.8.8-.4.8-.8Z"/>
    <path class="st2" d="M145.2,62.6c-.5,0-.8.4-.8.8s.4.8.8.8.8-.4.8-.8-.4-.8-.8-.8Z"/>
    <path class="st2" d="M173,57.3c-.5,0-.8.4-.8.8s.4.8.8.8.8-.4.8-.8-.4-.8-.8-.8Z"/>
    <path class="st2" d="M74.1,84.1c-.5,0-.8.4-.8.8s.4.8.8.8.8-.4.8-.8-.4-.8-.8-.8Z"/>
    <path class="st2" d="M124.8,59.9c-.5,0-.8.4-.8.8s.4.8.8.8.8-.4.8-.8-.4-.8-.8-.8Z"/>
    <path class="st2" d="M84.8,52.4c-.5,0-.8.4-.8.8s.4.8.8.8.8-.4.8-.8-.4-.8-.8-.8Z"/>
    <path class="st2" d="M55.7,51c-.5,0-.8.4-.8.8s.4.8.8.8.8-.4.8-.8-.4-.8-.8-.8Z"/>
    <circle class="st2" cx="42.5" cy="49.3" r=".8"/>
    <path class="st2" d="M26.7,16.7c0-.5-.4-.8-.8-.8s-.8.4-.8.8.4.8.8.8.8-.4.8-.8Z"/>
    <path class="st2" d="M21,65.2c-.5,0-.8.4-.8.8s.4.8.8.8.8-.4.8-.8-.4-.8-.8-.8Z"/>
    <circle class="st2" cx="27" cy="73.4" r=".8"/>
    <path class="st2" d="M53.8,83.4c-.5,0-.8.4-.8.8s.4.8.8.8.8-.4.8-.8-.4-.8-.8-.8Z"/>
    <path class="st2" d="M86.2,70.1c-.5,0-.8.4-.8.8s.4.8.8.8.8-.4.8-.8-.4-.8-.8-.8Z"/>
    <path class="st2" d="M124.5,85.8c-.5,0-.8.4-.8.8s.4.8.8.8.8-.4.8-.8-.4-.8-.8-.8Z"/>
    <path class="st2" d="M168.6,84.1c-.5,0-.8.4-.8.8s.4.8.8.8.8-.4.8-.8-.4-.8-.8-.8Z"/>
    <path class="st2" d="M49.3,89.5c-.5,0-.8.4-.8.8s.4.8.8.8.8-.4.8-.8-.4-.8-.8-.8Z"/>
    <path class="st2" d="M177.4,23c-.5,0-.8.4-.8.8s.4.8.8.8.8-.4.8-.8-.4-.8-.8-.8Z"/>
    <circle class="st2" cx="151" cy="8.1" r=".8"/>
    <path class="st2" d="M158.8,26.6c-.5,0-.8.4-.8.8s.4.8.8.8.8-.4.8-.8-.4-.8-.8-.8Z"/>
    <path class="st2" d="M125.2,8.9c-.5,0-.8.4-.8.8s.4.8.8.8.8-.4.8-.8-.4-.8-.8-.8Z"/>
    <path class="st2" d="M133,27.9c-.5,0-.8.4-.8.8s.4.8.8.8.8-.4.8-.8-.4-.8-.8-.8Z"/>
    <path class="st2" d="M124.6,40.7c.5,0,.8-.4.8-.8s-.4-.8-.8-.8-.8.4-.8.8.4.8.8.8Z"/>
    <path class="st2" d="M103,19.7c-.5,0-.8.4-.8.8s.4.8.8.8.8-.4.8-.8-.4-.8-.8-.8Z"/>
    <path class="st2" d="M62.7,7.4c-.5,0-.8.4-.8.8s.4.8.8.8.8-.4.8-.8-.4-.8-.8-.8Z"/>
    <path class="st2" d="M65.3,37.4c-.5,0-.8.4-.8.8s.4.8.8.8.8-.4.8-.8-.4-.8-.8-.8Z"/>
    <path class="st2" d="M29.5,15c-.5,0-.8.4-.8.8s.4.8.8.8.8-.4.8-.8-.4-.8-.8-.8Z"/>
    <path class="st2" d="M7.6,54.2c-.5,0-.8.4-.8.8s.4.8.8.8.8-.4.8-.8-.4-.8-.8-.8Z"/>
    <path class="st2" d="M27.4,68.4c-.5,0-.8.4-.8.8s.4.8.8.8.8-.4.8-.8-.4-.8-.8-.8Z"/>
    <path class="st2" d="M78.6,60.1c-.5,0-.8.4-.8.8s.4.8.8.8.8-.4.8-.8-.4-.8-.8-.8Z"/>
    <path class="st2" d="M50.8,54.9c-.5,0-.8.4-.8.8s.4.8.8.8.8-.4.8-.8-.4-.8-.8-.8Z"/>
    <path class="st2" d="M149.7,81.7c-.5,0-.8.4-.8.8s.4.8.8.8.8-.4.8-.8-.4-.8-.8-.8Z"/>
    <circle class="st2" cx="99" cy="58.3" r=".8"/>
    <path class="st2" d="M139,49.9c-.5,0-.8.4-.8.8s.4.8.8.8.8-.4.8-.8-.4-.8-.8-.8Z"/>
    <path class="st2" d="M164.1,52.4c-.5,0-.8.4-.8.8s.4.8.8.8.8-.4.8-.8-.4-.8-.8-.8Z"/>
    <path class="st2" d="M190.3,49.8c-.5,0-.8.4-.8.8s.4.8.8.8.8-.4.8-.8-.4-.8-.8-.8Z"/>
    <path class="st2" d="M206.7,45.9c-.5,0-.8.4-.8.8s.4.8.8.8.8-.4.8-.8-.4-.8-.8-.8Z"/>
    <path class="st2" d="M203.7,65.9c-.5,0-.8.4-.8.8s.4.8.8.8.8-.4.8-.8-.4-.8-.8-.8Z"/>
    <path class="st2" d="M196.8,70.2c-.4,0-.7.3-.8.7-.3.1-.4.4-.4.7,0,.5.4.8.8.8s.7-.3.8-.7c.3-.1.4-.4.4-.7,0-.5-.4-.8-.8-.8Z"/>
    <path class="st2" d="M170,81c-.5,0-.8.4-.8.8s.4.8.8.8.8-.4.8-.8-.4-.8-.8-.8Z"/>
    <path class="st2" d="M137.5,67.7c-.5,0-.8.4-.8.8s.4.8.8.8.8-.4.8-.8-.4-.8-.8-.8Z"/>
    <path class="st2" d="M83.6,88c-.5,0-.8.4-.8.8s.4.8.8.8.8-.4.8-.8-.4-.8-.8-.8Z"/>
    <path class="st2" d="M55.2,81.7c-.5,0-.8.4-.8.8s.4.8.8.8.8-.4.8-.8-.4-.8-.8-.8Z"/>
    <path class="st2" d="M174.5,87c-.5,0-.8.4-.8.8s.4.8.8.8.8-.4.8-.8-.4-.8-.8-.8Z"/>
  </g>
</svg>