<?xml version="1.0" encoding="UTF-8"?>
<svg id="OBJECTS" xmlns="http://www.w3.org/2000/svg" xmlns:xlink="http://www.w3.org/1999/xlink" version="1.1" viewBox="0 0 214.2 98.4">
  <!-- Generator: Adobe Illustrator 29.0.1, SVG Export Plug-In . SVG Version: 2.1.0 Build 192)  -->
  <defs>
    <style>
      .st0 {
        fill: url(#linear-gradient1);
      }

      .st1 {
        fill: url(#linear-gradient);
      }
    </style>
    <linearGradient id="linear-gradient" x1="-4093.8" y1="-2970.3" x2="-3823.1" y2="-2776.5" gradientTransform="translate(-4334 -1885.8) rotate(167.6)" gradientUnits="userSpaceOnUse">
      <stop offset=".2" stop-color="#aeb4ba"/>
      <stop offset=".8" stop-color="#fff"/>
    </linearGradient>
    <linearGradient id="linear-gradient1" x1="55" y1="-126" x2="240.1" y2="6.5" gradientTransform="translate(-39 128.6) rotate(-12.4)" xlink:href="#linear-gradient"/>
  </defs>
  <path class="st1" d="M100.6,24.8c0,0-.2,0-.2,0h-.3s0,0,0,0h0c0,0,0,0,0,0h0c-.1,0-.2,0-.3,0-1.3,0-2.6,0-4-.1-2.3,0-4.5-.2-6.8-.2-.2,0-.4,0-.5,0,0,0,0,0-.1,0-.2,0-.3.2-.5.4-1.2,1.8-2.3,3.5-3.5,5.3-.8,1.2-1.6,2.5-2.4,3.7,0,0,0,0,0,.2,0-.1-.1-.3-.2-.4-.5-.9-.9-1.7-1.4-2.6-1.1-2.1-2.3-4.3-3.4-6.5-.2-.3-.3-.5-.6-.7h0s0,0,0,0c-.2-.1-.4-.2-.7-.2-.4,0-.9,0-1.3,0h-.9c-2.3-.2-4.7-.3-7-.4h-.7s-.6,0-.6,0h0c-.1,0-.2,0-.4,0h-.1s0,0,0,0h-.2s0-.1,0-.1h0c0,0,0,0,0,0h0c-.1,0-.2,0-.3,0-1.1,0-2.1,0-3.2-.1-2.5,0-5-.2-7.6-.3-.7,0-1,.3-1.2.7-1.2,1.8-2.4,3.7-3.6,5.5-.7,1.1-1.5,2.2-2.2,3.3,0,.1-.1.3-.2.4,0,0,0,0,0,0h0s0,0,0,0h0c0,0,0,0,0,0h-.1c-.1,0-.2,0-.3,0,0,0-.2,0-.3,0h-2.8c0,0-2.1-.2-2.1-.2h-.7c-1.6,0-3.2-.1-4.8-.2-.7,0-1,.4-1.3.7-1.3,2-2.6,4-4,6.1-.6.9-1.2,1.8-1.8,2.7,0,0,0,.1-.1.2h0s-.2.3-.2.3h-.3c0,0-.2,0-.2,0h-2.9c-2.6-.2-5.2-.3-7.8-.4-.7,0-1,.3-1.2.7-1.1,1.7-2.2,3.4-3.4,5.2-.8,1.2-1.6,2.4-2.4,3.6,0,.1-.1.3-.2.4,0,0,0,.1,0,.2h0s-.3,0-.3,0v.3c.1,0,0,.3,0,.3h.3s0,0,0,0c0,0,0,.1,0,.2,0,.1,0,.2.1.3.5,1,1,1.9,1.5,2.9,1.1,2.2,2.3,4.4,3.5,6.6.1.2.3.4.4.5s.5.2.7.2c1.3,0,2.5.1,3.8.2h1.2c0,0,.3,0,.3,0h0s.9,0,.9,0c1.5,0,2.9.2,4.4.2.1,0,.2,0,.3,0,0,0,0,0,.2,0h0s0,0,0,0c0,0,0,.2,0,.2,0,.1.1.3.2.4l1.3,2.5c1.2,2.2,2.4,4.5,3.6,6.7.1.2.3.4.5.5h0s0,0,0,0c.2.1.4.2.7.2,2.7.1,5.4.3,8,.4h2.4c.1.1.3.1.4.2h.2s0,0,0,0h0s0,0,0,0h0s.3,0,.3,0h0c0,0,0,0,0,0h.3s-.1-.3-.1-.3h0c0-.1.1-.3.1-.3,0,0,.1-.2.2-.3l1.3-2.1c1.4-2.2,2.8-4.6,4.3-6.8.1-.2.2-.4.2-.6.2,0,.4.1.6.1,2.9.2,5.7.3,8.6.5h1.9c.1.1.2.1.4.1h.3s.2,0,.2,0v.2c.1,0,.2-.2.2-.2h.3s0,0,0,0c0,0,.1,0,.2,0h2.1c2.8.2,5.7.3,8.6.4.7,0,1-.3,1.2-.7,1.3-2,2.6-4,3.9-6l1.8-2.8c0,0,.1-.2.2-.3,0,0,0,.1,0,.2l1.4,2.7c1.2,2.3,2.4,4.5,3.6,6.8.1.2.2.4.4.5h0s0,0,0,0c.2,0,.4.1.6.2,2.3.1,4.7.3,7,.4,1.2,0,2.4.1,3.6.2.1,0,.3,0,.4,0,0,0,.1,0,.2,0h0s.2.3.2.3l.2-.3h0s.2,0,.2,0c.1,0,.3,0,.4,0,1,0,2,0,3,.1,2.5,0,5.1.2,7.6.3.7,0,1-.3,1.3-.7,1.3-2,2.5-3.9,3.8-5.8.6-1,1.3-1.9,1.9-2.9,0-.1.1-.2.2-.4,0,0,0-.1,0-.2h0s.1,0,.1,0h.1c.1,0,.3,0,.4,0h2.6c2.3.2,4.6.3,6.9.3h.4s.5,0,.5,0c.7,0,1.1-.2,1.5-.8,1.3-2.1,2.7-4.2,4-6.2.5-.8,1.1-1.6,1.6-2.4,0,0,.1-.2.2-.3h0s0,0,0,0c0,0,0,.1,0,.2.5,1,1,2,1.6,2.9,1.2,2.2,2.3,4.3,3.5,6.5,0,0,0,.2.1.2h0s0,0,0,0c0,0,.2.1.2.2h0c.1,0,.3.1.5.2h0s0,0,0,0h0c0,0,.1,0,.2,0,1.9.1,3.9.2,5.8.3,1.6,0,3.1.2,4.7.3.1,0,.3,0,.4,0,0,0,.1,0,.2,0h0s.2,0,.2,0h0c0,.1,0,0,0,0h.1s.1,0,.1,0h0c0,0,.2,0,.3,0,1,0,2,0,3,.1,2.5,0,5,.2,7.5.3,0,0,0,0,0,0,0,0,.1,0,.2,0h0s0,0,0,0c.6,0,.9-.4,1.1-.7,1.3-2,2.6-4,3.9-6,.6-.9,1.2-1.8,1.8-2.7,0-.1.1-.2.2-.4,0,0,0-.1.1-.2h0s.1,0,.1,0h.9c.6,0,1.1,0,1.7.1,1,0,2.1,0,3.1.1,1.8,0,3.6.1,5.3.2,0,0,0,0,0,0h0s0,0,0,0h0c.4,0,.7-.1.9-.4h0s0,0,0,0h0c0,0,0-.1.1-.2,1.3-2,2.7-4.1,4-6.1.6-1,1.3-1.9,1.9-2.9,0,0,0-.1,0-.2,0,.1,0,.2.2.3l1.2,2.3.4.8v.2c.1,0,.7,1.1.7,1.1.9,1.7,1.8,3.3,2.6,5,.1.2.2.3.4.5s.5.2.7.2c2,.1,4.1.2,6.1.3,1.5,0,3.1.2,4.6.3.1,0,.3,0,.4,0,0,0,0,0,.1,0h.6c0,0-.3-.6-.3-.6v-.2c-.2-.1-.2-.3-.3-.4-.4-.8-.8-1.6-1.3-2.4-1.2-2.2-2.4-4.6-3.6-6.8-.1-.3-.3-.5-.5-.6s-.5-.2-.8-.2c-2.3-.1-4.5-.2-6.6-.4h-.3s0,0,0,0h-.7s-2.6-.2-2.6-.2c-.1,0-.3,0-.4,0h-.3s-.1,0-.1,0c0,0,0-.1,0-.1,0-.1,0-.2-.1-.3l-1.4-2.6c-1.2-2.2-2.4-4.6-3.6-6.9-.1-.2-.2-.4-.4-.5h0s0,0,0,0c-.2-.1-.4-.2-.7-.2-2.4-.1-4.8-.3-7.1-.4l-3.4-.2c-.1,0-.3,0-.4,0,0,0-.1,0-.2,0h0s0-.1,0-.1c0,0,0-.1,0-.2,0-.1-.1-.3-.2-.4l-1.2-2.3c-1.2-2.2-2.4-4.5-3.6-6.8-.1-.2-.3-.4-.4-.6h0s0,0,0,0c0,0,0,0,0,0-.2-.1-.5-.2-.8-.2-2.6-.1-5.2-.3-7.8-.4h-2.5c-.2-.2-.4-.2-.6-.2h0s0,0,0,0h-.1s-.2,0-.2,0h0c0,0,0,0,0,0h0s0,0,0,0h0s0,0,0,0h-.1c-.2,0-.4,0-.5,0h-2c-2.7-.2-5.5-.3-8.2-.4-.7,0-1.1.2-1.4.7-1.3,2-2.7,4.1-4,6.1-.6.9-1.1,1.7-1.7,2.6,0,.1-.1.2-.2.3,0,0,0-.1,0-.2l-1.2-2.3c-1.2-2.3-2.5-4.8-3.8-7.1-.1-.2-.3-.4-.4-.5h0s0,0,0,0c-.2,0-.4-.1-.6-.1-2.8-.2-5.7-.3-8.5-.5h-1.9c0-.1-.2-.1-.3-.1h-.3s-.1,0-.1,0h0c0,0,0,0,0,0h-.4s.1.3.1.3h0s0,.1,0,.1c0,0-.1.1-.2.2l-1.7,2.6c-1.4,2.2-2.8,4.4-4.2,6.6-.1.2-.2.3-.2.5-.2,0-.4-.1-.7-.2-2.5-.1-5-.3-7.5-.4-1,0-1.9-.1-2.9-.2-.1,0-.3,0-.4,0ZM190.9,39.8c1.2,0,2.4.1,3.6.2h0c2.2,0,4.4.2,6.6.3.2,0,.4,0,.6.2s.3.2.4.4c1.6,3.1,3.3,6.2,4.9,9.2,0,.2.2.3.3.5-.2,0-.3,0-.5,0-3.6-.2-7.1-.4-10.7-.6-.2,0-.3,0-.5-.1s-.2-.1-.2-.3c-1.1-2-2.1-4-3.2-6.1h0c-.6-1.1-1.2-2.2-1.7-3.3,0-.2-.2-.3-.3-.6.3,0,.5,0,.7,0ZM101.2,27.5c1.4,2.8,2.8,5.5,4.1,8.2-2,3.3-4.1,6.5-6.1,9.8-.3-.5-1.9-3.5-3.3-6.2h0c-.4-.8-.8-1.6-1.2-2.4-.4-.8-.7-1.4-.8-1.7,2-3.2,4-6.4,6.1-9.7.1.1.6.9,1.2,2.1ZM87.9,25.2c0-.1.2-.2.3-.3,0,0,0,0,0,0,.1,0,.2,0,.4,0,3.6.1,7.2.3,10.8.4.1,0,.2,0,.4,0-.1.2-.2.4-.3.5-1.9,2.9-3.8,5.8-5.7,8.7-.2.3-.4.5-.8.5-3.6-.1-7.2-.3-10.8-.4,0,0-.2,0-.3,0,0-.1,0-.3.2-.4,2-3,3.9-6,5.9-9ZM81.2,34.8s0,0,0,0c-.1.2-.2.4-.3.6-1.9,2.9-3.8,5.8-5.7,8.7-.2.4-.5.6-1,.5-3.5-.1-7-.3-10.5-.4-.1,0-.3,0-.5,0,0-.2.1-.3.2-.4,2-3,3.9-6,5.9-9,0-.1.2-.2.3-.3,0,0,0,0,0,0,0,0,0,0,0,0,0,0,0,0,0,0,0,0,.1,0,.2,0,1.5,0,3,.1,4.5.2.8,0,1.7,0,2.5,0,1.2,0,2.4,0,3.6.1.1,0,.3,0,.4,0ZM64.7,23.6s0,0,0,0c.4,0,.8,0,1.2,0,2.3.1,4.7.3,7,.4.7,0,1.5,0,2.2.1.2,0,.4,0,.5.1h0c.2.1.3.3.4.5,1.6,3,3.2,6.1,4.8,9.1,0,.2.2.4.3.6-.2,0-.3,0-.5,0-3.6-.2-7.1-.4-10.7-.6-.1,0-.2,0-.3,0,0,0,0,0,0,0,0,0,0,0-.1-.1,0,0,0,0-.1-.1-1.7-3.2-3.4-6.4-5.1-9.6,0,0,0-.1-.1-.3.2,0,.3,0,.4,0ZM65,25.8c1.3,2.7,2.7,5.3,4,7.9,0,.2.1.3.2.4-2,3.2-4.1,6.5-6.1,9.8-.3-.4-1.2-2.2-2.3-4.2-.7-1.4-1.4-2.8-2.2-4.3-.4-.9-.8-1.6-.9-1.9,2-3.2,4-6.4,6.1-9.7.1.1.6.9,1.1,2ZM62.5,44.8c-1.9,2.9-3.9,5.9-5.8,8.8-.2.4-.5.5-.9.5-3.5-.1-7-.3-10.6-.4-.1,0-.2,0-.4,0,.1-.2.2-.4.3-.5,1.9-2.9,3.8-5.9,5.8-8.8.1-.2.2-.3.4-.4.1,0,.3,0,.5,0,3.6.1,7.1.3,10.7.4,0,0,.2,0,.3,0,0,0,0,0,0,0,0,.2-.1.3-.2.5ZM57.2,33.8c.1,0,.3.2.4.4,1.6,3.1,3.2,6.1,4.9,9.2,0,.2.2.4.3.6-.2,0-.4,0-.6,0-3.5-.2-7-.4-10.5-.6-.2,0-.3,0-.5-.1,0,0,0,0,0,0,0,0-.1-.1-.2-.2,0,0-.1-.1-.1-.2-1.6-3.1-3.3-6.2-4.9-9.3,0-.1-.1-.3-.3-.6.2,0,.4,0,.6,0,0,0,.1,0,.2,0,3.4.2,6.7.4,10.1.6,0,0,.1,0,.2,0,.1,0,.2,0,.3,0,0,0,0,0,0,0,0,0,.1,0,.2,0,0,0,0,0,0,0ZM51.8,23.6c.2-.3.4-.5.8-.5,3.6.1,7.2.3,10.7.4.1,0,.2,0,.4,0-.1.2-.2.4-.3.5-1.9,2.9-3.8,5.9-5.7,8.8-.2.3-.4.5-.8.4-3.6-.1-7.1-.3-10.7-.4-.1,0-.2,0-.4,0,0-.2.1-.3.2-.5,1.9-2.9,3.9-5.9,5.8-8.8ZM46.5,35.3c1.3,2.6,2.7,5.3,4,7.9,0,0,0,0,0,.1.1.2.1.4,0,.7-2,3.1-3.9,6.2-5.8,9.3,0,0,0,0-.1.2-.2-.2-.5-.9-1-1.8-1.4-2.8-2.8-5.5-4.2-8.3,0,0,0-.2-.1-.3,2-3.3,4.1-6.5,6.1-9.8.1.1.5.9,1.1,1.9ZM33.2,33.1c.2-.3.4-.5.9-.5,1.6,0,3.2.1,4.8.2h0c1.9,0,3.7.1,5.6.2,0,0,.2,0,.2,0,.1,0,.2,0,.4,0,0,.2-.2.3-.2.5-1.9,2.9-3.9,5.9-5.8,8.8-.2.3-.4.5-.8.5-1.9,0-3.8-.1-5.8-.2h0c-.9,0-1.8,0-2.7,0-.8,0-1.7,0-2.6-.1.1-.2.2-.4.3-.5,1.9-2.9,3.8-5.9,5.7-8.8ZM8.6,52.1c.1-.2.2-.4.3-.5,1.9-2.9,3.8-5.9,5.7-8.8.2-.3.4-.5.8-.5,3.6.1,7.1.3,10.7.4.1,0,.3,0,.5,0-.2.3-.3.5-.4.7-1.9,2.9-3.7,5.7-5.6,8.6-.3.4-.6.6-1.1.6-3.5-.2-7-.3-10.4-.4-.2,0-.3,0-.5,0ZM25.2,63.2c-1.9-.1-3.7-.2-5.6-.3h0c-1.7,0-3.3-.2-5-.2-.2,0-.4,0-.5-.1s-.2-.2-.3-.3c-1.7-3.2-3.3-6.3-5-9.5,0-.1-.1-.2-.2-.4.2,0,.4,0,.6,0,3.5.2,7,.4,10.5.6.2,0,.4,0,.5.1s.2.2.3.3c.8,1.5,1.6,3,2.4,4.5h0c.9,1.7,1.7,3.3,2.6,5,0,.1,0,.2.2.4-.2,0-.3,0-.4,0ZM24.4,60.1c-1.3-2.5-2.5-5-3.7-7.4,2.1-3.3,4.1-6.5,6.2-9.9.5.9.9,1.7,1.3,2.5.4.8.8,1.6,1.2,2.4h0c.9,1.8,1.8,3.5,2.7,5.3,0,.2,0,.3,0,.4-2,3.2-4,6.4-6,9.6-.2-.3-.8-1.4-1.6-2.8ZM32.6,52.9c-.2-.1-.3-.3-.4-.5-.9-1.7-1.8-3.3-2.6-5h0c-.7-1.4-1.5-2.7-2.2-4.1,0-.2-.1-.3-.3-.6.6,0,1.1,0,1.6,0,2,.1,4.1.2,6.1.3,1.1,0,2.3.1,3.4.2.2,0,.4,0,.5.2s.1.1.2.2c0,0,0,0,0,.1,1.7,3.2,3.3,6.3,5,9.5,0,.1.1.2.2.5-.3,0-.5,0-.6,0-3.4-.2-6.8-.4-10.2-.6-.3,0-.5,0-.7-.2ZM26.3,63.2c0-.1,0-.2.1-.3,2-3,4-6,5.9-9.1,0,0,0,0,0,0,.2-.2.4-.3.7-.3,3.6.1,7.3.3,10.9.4,0,0,0,0,.2,0-.1.2-.2.3-.3.5-1.9,2.9-3.9,5.9-5.8,8.8-.2.3-.4.4-.8.4-3.6-.1-7.2-.3-10.8-.4,0,0-.2,0-.3,0ZM43.2,74.5c-.3,0-.5,0-.6,0-3.4-.2-6.9-.4-10.3-.6-.2,0-.4,0-.5-.1-.1,0-.2-.2-.3-.4-1.6-3.1-3.3-6.1-4.9-9.2,0-.2-.2-.4-.3-.6.3,0,.5,0,.7,0,3.4.2,6.9.4,10.3.6,0,0,.2,0,.3,0,0,0,.1,0,.1,0,0,0,0,0,0,0,0,0,0,0,.1,0,0,0,.1,0,.2.2,0,0,.1.2.2.3,1.6,3.1,3.2,6.1,4.8,9.2,0,.2.2.3.3.6,0,0,0,0,0,0ZM43.5,74.3c0,0-.2-.2-.2-.3-1.6-3.2-3.3-6.4-4.9-9.7,0-.2-.1-.4,0-.5,0,0,0,0,0,0,0,0,0-.1,0-.2,1.9-3.1,3.9-6.2,5.8-9.3,0,0,0,0,.2-.2.1.2.2.4.3.5,1.6,3.1,3.1,6.2,4.7,9.3.2.4.2.6,0,1-1.9,3-3.7,6-5.6,9,0,.1-.2.2-.3.4ZM61.2,64.9c-3.5-.2-7-.4-10.5-.6-.2,0-.3,0-.4,0h0s0,0,0,0c0,0,0,0,0,0,0,0-.1-.1-.1-.2-1.7-3.2-3.3-6.3-5-9.5,0-.1-.1-.2-.2-.4,0,0,0,0,.1,0,.2,0,.3,0,.5,0,3.5.2,7,.4,10.5.6.1,0,.3,0,.4,0,0,0,0,0,0,0,0,0,0,0,0,0,0,0,0,0,0,0,0,0,.1.1.1.2,1.7,3.2,3.3,6.3,5,9.5,0,.1.1.2.2.5-.3,0-.5,0-.6,0ZM61.8,64.3c-1.6-3.2-3.2-6.3-4.8-9.5-.1-.3-.2-.5,0-.8,1.9-3.1,3.8-6.1,5.8-9.2,0,0,.1-.1.2-.3.9,1.7,1.8,3.4,2.6,5.1.9,1.7,1.7,3.5,2.6,5.2-2,3.3-4.1,6.5-6.2,9.8-.1-.2-.2-.3-.3-.4ZM68.8,54.6c0,0-.1,0-.2-.1,0,0-.1-.1-.2-.2-1.6-3.1-3.3-6.2-4.9-9.3,0-.1-.1-.3-.2-.5.1,0,.3,0,.4,0,.3,0,.5,0,.7,0,.8,0,1.5,0,2.3.1,1.8.1,3.6.2,5.4.3.7,0,1.5,0,2.2.1.2,0,.4,0,.5.1,0,0,0,0,0,0,.2.1.3.3.4.5,1.6,3,3.2,6,4.8,9,0,.2.2.4.3.6,0,0,0,0,0,0-.2,0-.4,0-.5,0-3.5-.2-7-.4-10.6-.6-.2,0-.3,0-.4,0,0,0,0,0-.1,0ZM74.3,64.9c-.2.3-.4.5-.8.5-3.6-.1-7.2-.3-10.8-.4,0,0-.2,0-.3,0,0-.1.1-.3.2-.4,2-3,3.9-6,5.9-9,.2-.3.3-.4.7-.4,3.7.1,7.3.3,11,.4,0,0,0,0,0,0,0,0,.1,0,.2,0-.1.2-.2.4-.3.5-1.9,2.9-3.8,5.9-5.7,8.8ZM80.6,55.2c-1.8-3.5-3.5-6.9-5.2-10.4,2-3.3,4.1-6.5,6.2-9.9.1.1.2.2.2.3,1.6,3.2,3.2,6.4,4.9,9.6.1.3.2.5,0,.7-2,3.1-3.9,6.2-5.8,9.3,0,0,0,0-.2.2ZM87.3,45c0,0-.1,0-.2-.2,0,0-.1-.1-.2-.2-1.6-3.1-3.3-6.2-4.9-9.3,0-.1-.1-.3-.2-.6.2,0,.4,0,.5,0,0,0,.2,0,.2,0,2.9.2,5.8.3,8.7.5.5,0,1,0,1.5,0,.2,0,.4,0,.5.1,0,0,0,0,0,0,.1,0,.3.2.4.4,1.6,3.1,3.2,6.1,4.9,9.2,0,.2.2.4.3.6-.2,0-.4,0-.6,0-3.5-.2-7-.4-10.5-.6-.2,0-.4,0-.5-.1h0ZM80.9,55.4s0,0,0,0c.1-.2.2-.4.3-.5,1.9-2.9,3.8-5.8,5.7-8.7.2-.3.4-.5.9-.5,3.5.1,7,.3,10.6.4.1,0,.3,0,.5,0,0,.2,0,.3-.2.4-2,3-3.9,6-5.9,9-.2.4-.5.4-.9.4-3.1-.1-6.3-.2-9.4-.4-.5,0-1,0-1.6,0ZM97.4,66.5c-3.5-.2-7.1-.4-10.6-.6-.2,0-.3,0-.4,0-.1,0-.2-.2-.3-.3-1.7-3.2-3.4-6.3-5-9.5,0,0,0-.2-.2-.4.3,0,.4,0,.6,0,3.5.2,7,.4,10.5.6.2,0,.3,0,.5.1.1,0,.2.2.3.4,1.6,3.1,3.3,6.3,5,9.4,0,.1.1.2.2.4-.2,0-.4,0-.5,0ZM97.9,65.8c-1.6-3.1-3.1-6.2-4.7-9.3-.2-.3-.2-.6,0-.9,1.9-3,3.8-6,5.7-9,0-.1.2-.2.2-.3,0,0,0,0,0,0,0,0,0,0,0,0,0,.1.1.2.2.3,1.7,3.3,3.3,6.6,5,9.9-2,3.3-4.1,6.5-6.2,9.9-.1-.2-.2-.4-.3-.6ZM99.8,45.2c1.9-2.9,3.8-5.7,5.6-8.6.3-.4.5-.6,1-.5,3.4.1,6.9.2,10.3.4.2,0,.4,0,.7,0-.2.3-.3.5-.4.6-1.9,2.9-3.8,5.7-5.6,8.6-.3.4-.5.6-1,.6-3.5-.1-6.9-.3-10.4-.4-.2,0-.4,0-.6,0,.1-.2.2-.4.3-.6ZM104.5,55.8c-1.6-3.1-3.3-6.2-4.9-9.2,0-.2-.1-.3-.3-.6.3,0,.6,0,.8,0,3.4.2,6.9.4,10.3.6.2,0,.4,0,.6.1,0,0,.2.2.2.3,1.7,3.2,3.3,6.3,5,9.5,0,.1.1.2.2.4-.2,0-.4,0-.5,0-3.5-.2-7-.4-10.5-.6-.2,0-.4,0-.5-.1-.1,0-.2-.2-.3-.4ZM110.4,66.5c-.2.3-.4.5-.9.5-3.5-.1-7-.3-10.6-.4-.2,0-.3,0-.5,0,.1-.2.2-.4.3-.6,1.9-2.9,3.8-5.7,5.6-8.6.3-.4.5-.6,1-.5,3.4.1,6.9.3,10.3.4.2,0,.4,0,.7,0-.1.2-.2.4-.3.6-1.9,2.9-3.8,5.8-5.7,8.7ZM116.7,56.8c0-.1-.2-.3-.2-.4-1.6-3.2-3.2-6.3-4.8-9.5-.2-.3-.2-.6,0-.9,1.9-3,3.8-6,5.7-9,0-.1.2-.2.3-.4.1.2.2.3.3.4,1.6,3.1,3.2,6.3,4.8,9.4.2.3.2.6,0,.9-1.9,3-3.8,6-5.7,9,0,.1-.2.2-.3.4ZM129,56.9c-.3.4-.6.6-1.1.6-.3,0-.6,0-.9,0-3.2-.1-6.3-.2-9.5-.3-.1,0-.3,0-.5,0,0-.2.2-.3.2-.5,1.9-2.9,3.9-5.9,5.8-8.8.2-.3.4-.5.8-.5,3.5.1,7.1.3,10.6.4.1,0,.3,0,.5,0-.2.3-.2.4-.4.6-1.9,2.9-3.8,5.7-5.6,8.6ZM135.5,47.4s0,0,0,0c.1-.2.2-.4.3-.5,1.9-2.9,3.8-5.7,5.6-8.6.3-.4.5-.6,1-.5,3.4.1,6.9.2,10.3.4.2,0,.3,0,.6,0,0,0,0,0,0,0,0,.2,0,.3-.2.4-2,3-3.9,6-5.9,9,0,0,0,0-.1.1-.2.2-.4.2-.6.2,0,0,0,0-.1,0-2.8-.1-5.6-.2-8.4-.3-.8,0-1.6,0-2.6-.1ZM152,58.7c-3.5-.2-7-.4-10.6-.6,0,0-.1,0-.2,0-.1,0-.2,0-.3-.1s-.1,0-.2-.1c0,0,0,0-.1-.1-1.7-3.2-3.3-6.3-5-9.5,0-.1-.1-.3-.2-.5.3,0,.5,0,.6,0,3.5.2,7,.4,10.4.6.2,0,.3,0,.5.1.1,0,.2.2.3.3,1.7,3.2,3.4,6.3,5,9.5,0,0,0,.2.2.4-.2,0-.4,0-.5,0ZM152.9,58.4c-.3-.4-1.1-2-2.1-3.9-.7-1.4-1.4-2.7-2.1-4.1-.5-1-.9-1.8-1-2.2,0-.1,0-.3,0-.4,2-3.2,4-6.4,6.1-9.7,0,0,0,.1.1.2,1.7,3.4,3.4,6.6,5,9.9,0,.2,0,.3,0,.5-2,3.2-3.9,6.3-5.9,9.5,0,0,0,0,0,0ZM165.1,58.6c-.2.3-.4.5-.8.5,0,0,0,0-.1,0,0,0,0,0,0,0-3.5-.1-7-.3-10.6-.4,0,0-.1,0-.2,0,0,0-.1,0-.2,0,0-.2.1-.3.2-.4,2-3,3.9-6,5.9-9,.2-.3.4-.4.8-.4,3.6.1,7.2.3,10.8.4,0,0,.2,0,.4,0-.1.2-.2.4-.3.6-1.9,2.9-3.8,5.8-5.7,8.7ZM189.4,40.1c-2,3-3.9,6-5.9,9,0,0,0,0-.1.1-.2.2-.4.2-.6.2,0,0,0,0-.1,0-2.8-.1-5.6-.2-8.4-.3-.8,0-1.6,0-2.6-.1,0-.2.2-.3.2-.4,1.9-3,3.9-5.9,5.8-8.9.2-.3.4-.4.8-.4,3.5.1,7.1.3,10.6.4.1,0,.2,0,.4,0,0,.2,0,.3-.2.4ZM173.2,28.6c3.5.2,7,.4,10.5.6.2,0,.3,0,.5.1.1,0,.2.2.3.3,1.7,3.2,3.3,6.3,5,9.5,0,.1.1.2.2.5-.4,0-.6,0-.8,0-3.2-.2-6.3-.4-9.5-.5-.2,0-.5,0-.7,0-.1,0-.2,0-.3,0,0,0,0,0,0,0,0,0-.1,0-.2,0,0,0,0,0,0,0-.1,0-.3-.2-.4-.4-1.6-3.1-3.2-6.1-4.8-9.2,0-.2-.2-.4-.3-.6.2,0,.4,0,.6,0ZM172.6,29.2c1.6,3.1,3.2,6.3,4.8,9.4.2.3.2.6,0,.9-1.9,3-3.7,6-5.6,9,0,.1-.2.3-.3.5,0,0-.1-.2-.2-.3-1.7-3.3-3.3-6.5-5-9.8,0-.2,0-.3,0-.5,2-3.2,4-6.4,6.1-9.7.1.2.2.3.3.5ZM165.6,38.8c.1,0,.2.2.3.4,1.6,3.1,3.3,6.2,4.9,9.3,0,.1.1.3.2.5,0,0-.1,0-.2,0-.1,0-.3,0-.4,0-2.9-.2-5.8-.3-8.7-.5-.6,0-1.2,0-1.8-.1,0,0-.2,0-.2,0,0,0,0,0,0,0,0,0-.1,0-.2,0,0,0,0,0,0,0-.1,0-.2-.2-.3-.4-1.6-3.1-3.3-6.2-4.9-9.3,0-.1-.1-.3-.3-.6,0,0,0,0,0,0,.3,0,.5,0,.7,0,3.5.2,6.9.4,10.4.6.2,0,.4,0,.5.1ZM172,28.6c-.1.2-.2.4-.3.6-1.9,2.9-3.8,5.8-5.7,8.7-.1.2-.3.3-.4.4,0,0,0,0,0,0,0,0,0,0-.1,0,0,0-.1,0-.2,0,0,0,0,0,0,0-3.5-.1-7.1-.3-10.6-.4,0,0,0,0,0,0-.1,0-.2,0-.4,0,0-.2.1-.3.2-.5,1.9-2.9,3.9-5.9,5.8-8.8.2-.3.4-.5.8-.4,3.6.1,7.1.3,10.7.4.1,0,.2,0,.4,0ZM155.1,17.3c.2,0,.4,0,.6,0,3.4.2,6.9.4,10.3.6.2,0,.4,0,.6.2s0,0,0,0c.1,0,.2.2.3.4,1.6,3.1,3.2,6.1,4.8,9.2,0,.2.2.4.3.6-.3,0-.5,0-.7,0-2.9-.2-5.8-.3-8.6-.5-.6,0-1.2,0-1.8,0,0,0,0,0,0,0,0,0-.1,0-.2,0,0,0,0,0,0,0,0,0,0,0-.1,0-.1,0-.2-.2-.3-.4-1.6-3.1-3.3-6.1-4.9-9.2,0-.2-.2-.3-.3-.6,0,0,0,0,.1,0ZM154.7,17.5c0,.1.2.2.2.3,1.6,3.2,3.2,6.4,4.9,9.6.1.3.2.5,0,.7-1.9,3.1-3.9,6.2-5.8,9.3,0,0,0,0-.2.2-.1-.2-.2-.3-.3-.5-1.6-3.1-3.1-6.2-4.7-9.3,0-.1-.1-.3-.1-.4,0,0,0,0,0,0,0-.1,0-.3.1-.5,1.9-3,3.8-6.1,5.7-9.1,0,0,.1-.2.2-.3ZM148.1,27.7h0c.1.1.3.2.4.5,1.6,3,3.2,6.1,4.8,9.1,0,.2.2.4.3.6-.2,0-.3,0-.5,0-3.6-.2-7.1-.4-10.7-.6,0,0-.1,0-.2,0,0,0-.2,0-.2,0s0,0-.1-.1c0,0,0,0,0-.1-1.7-3.2-3.4-6.4-5.1-9.6,0,0,0-.2-.1-.4.3,0,.5,0,.8,0,3.4.2,6.8.4,10.2.6.3,0,.4,0,.6.2ZM142.5,17.4c.3-.4.5-.5,1-.5,3.4.1,6.8.3,10.2.4.2,0,.4,0,.6,0,0,0,0,0,0,0-.1.2-.2.4-.3.5-1.9,2.9-3.8,5.8-5.7,8.7-.2.3-.4.5-.9.5-3.5-.1-7-.3-10.6-.4-.2,0-.3,0-.5,0,.1-.2.2-.4.3-.5,1.9-2.9,3.8-5.8,5.7-8.7ZM138.6,31.7h0c.7,1.4,1.4,2.8,2.1,4.2.3.7.6,1.2.7,1.5-2,3.2-4.1,6.5-6.2,9.9-1.8-3.5-3.5-6.9-5.2-10.4,2-3.3,4.1-6.5,6.1-9.8.3.4,1.4,2.4,2.5,4.5ZM129.8,37.6c1.6,3.1,3.2,6.1,4.9,9.2,0,.2.2.4.3.6-.2,0-.4,0-.6,0-3.5-.2-7-.4-10.5-.6-.2,0-.4,0-.5-.1-.1,0-.2-.2-.3-.4-1.6-3.1-3.3-6.2-4.9-9.3,0-.2-.1-.3-.3-.6.3,0,.6,0,.8,0,3.4.2,6.8.4,10.2.6.2,0,.4,0,.6.1.1,0,.3.2.4.4ZM135.9,26.9c-.1.2-.2.4-.3.5-1.9,2.9-3.8,5.9-5.7,8.8-.2.3-.4.5-.8.5-3.6-.1-7.1-.3-10.7-.4-.1,0-.2,0-.4,0,.1-.2.2-.4.3-.5,1.9-2.9,3.8-5.9,5.7-8.8.2-.3.4-.5.8-.5,3.6.1,7.2.3,10.8.4,0,0,.2,0,.4,0ZM119.5,15.7c3.5.2,7,.4,10.5.6.2,0,.3,0,.4.1h0c.1,0,.2.2.3.3,1.7,3.2,3.3,6.3,5,9.5,0,.1.1.2.2.4-.2,0-.4,0-.6,0-3.5-.2-7-.4-10.5-.6-.2,0-.3,0-.4-.1h0c-.1,0-.2-.2-.3-.3-1.7-3.2-3.3-6.3-5-9.5,0-.1-.1-.2-.2-.5.3,0,.5,0,.6,0ZM118.6,15.8c.1.2.2.4.3.5,1.6,3.1,3.1,6.2,4.7,9.3.2.4.2.6,0,1-1.9,3-3.7,6-5.6,9,0,.1-.2.2-.3.4,0,0-.2-.2-.2-.3-1.6-3.2-3.3-6.4-4.9-9.7-.1-.3-.2-.5,0-.7,1.9-3.1,3.9-6.2,5.8-9.3,0,0,0,0,.2-.2ZM111.4,25.8c.2,0,.4,0,.6.1.1,0,.3.2.4.4,1.6,3.1,3.2,6.1,4.8,9.2,0,.2.2.4.3.6-.3,0-.5,0-.7,0-3.4-.2-6.9-.4-10.3-.6-.2,0-.4,0-.5-.1-.1,0-.2-.2-.3-.4-1.6-3.1-3.3-6.1-4.9-9.2,0-.2-.2-.4-.3-.6.3,0,.5,0,.7,0,3.4.2,6.9.4,10.3.6Z"/>
  <path class="st0" d="M126.2,68c0,0,.1,0,.2,0h.2s0,0,0,0h0c0,0,0,0,0,0h0c0,0,.2,0,.2,0,.9,0,1.8,0,2.7,0,1.5,0,3.1.1,4.6.2.1,0,.3,0,.4,0,0,0,0,0,0,0,.1,0,.2-.2.3-.3.8-1.2,1.6-2.4,2.4-3.6.6-.8,1.1-1.7,1.7-2.5,0,0,0,0,0-.1,0,0,0,.2.1.3.3.6.6,1.2.9,1.8.8,1.5,1.6,3,2.3,4.4.1.2.2.3.4.4h0s0,0,0,0c.1,0,.3.1.5.1.3,0,.6,0,.9,0h.6c1.6.1,3.2.2,4.8.3h.5s.4,0,.4,0h0c0,0,.2,0,.3,0h0s0,0,0,0h.1s0,0,0,0h0c0,0,0,0,0,0h0c0,0,.1,0,.2,0,.7,0,1.5,0,2.2,0,1.7,0,3.4.1,5.2.2.5,0,.7-.2.8-.5.8-1.3,1.6-2.5,2.5-3.8.5-.8,1-1.5,1.5-2.3,0,0,0-.2.1-.3,0,0,0,0,0,0h0s0,0,0,0h0s0,0,0,0h0c0,0,.1,0,.2,0,0,0,.1,0,.2,0h1.9c0,0,1.4.1,1.4.1h.5c1.1,0,2.2,0,3.3.1.5,0,.7-.2.9-.5.9-1.4,1.8-2.8,2.7-4.2.4-.6.8-1.2,1.2-1.9,0,0,0,0,0-.1h0s.2-.2.2-.2h.2c0,0,.1,0,.2,0h2c1.8.1,3.6.2,5.4.3.4,0,.7-.2.8-.5.8-1.2,1.5-2.3,2.3-3.5.5-.8,1.1-1.7,1.6-2.5,0,0,.1-.2.1-.3,0,0,0,0,0-.1h0s.2,0,.2,0v-.2c0,0,0-.2,0-.2h-.2s0,0,0,0c0,0,0,0,0-.1,0,0,0-.1,0-.2-.3-.7-.7-1.3-1-2-.8-1.5-1.6-3-2.4-4.5,0-.2-.2-.3-.3-.3s-.4-.1-.5-.1c-.9,0-1.7,0-2.6-.1h-.8s-.2,0-.2,0h0s-.6,0-.6,0c-1,0-2-.1-3-.2,0,0-.2,0-.2,0,0,0,0,0-.1,0h0s0,0,0,0c0,0,0-.1,0-.2,0,0,0-.2-.1-.3l-.9-1.7c-.8-1.5-1.6-3.1-2.4-4.6,0-.2-.2-.3-.3-.4h0s0,0,0,0c-.1,0-.3-.1-.5-.1-1.8,0-3.7-.2-5.5-.3h-1.6c0,0-.2-.1-.3-.1h-.2s0,0,0,0h0s0,0,0,0h0s-.2,0-.2,0h0s0,0,0,0h-.2s0,.2,0,.2h0c0,0,0,.2,0,.2,0,0,0,.1-.1.2l-.9,1.5c-1,1.5-1.9,3.1-2.9,4.7,0,.1-.1.3-.2.4-.1,0-.2,0-.4,0-2-.1-3.9-.2-5.9-.3h-1.3c0,0-.2,0-.3,0h-.2s-.2,0-.2,0h0c0-.1,0,0,0,0h-.2s0,0,0,0c0,0,0,0-.1,0h-1.5c-1.9-.1-3.9-.2-5.9-.3-.4,0-.7.2-.8.5-.9,1.4-1.8,2.7-2.7,4.1l-1.3,1.9c0,0,0,.1-.1.2,0,0,0,0,0-.1l-1-1.9c-.8-1.5-1.6-3.1-2.5-4.6,0-.1-.2-.2-.3-.3h0s0,0,0,0c-.1,0-.3,0-.4-.1-1.6,0-3.2-.2-4.8-.3-.8,0-1.6,0-2.4-.1,0,0-.2,0-.3,0,0,0,0,0-.1,0h0s-.1-.2-.1-.2v.2c-.1,0-.2,0-.2,0h-.1c0,0-.2,0-.3,0-.7,0-1.4,0-2,0-1.7,0-3.5-.1-5.2-.2-.5,0-.7.2-.9.5-.9,1.3-1.7,2.7-2.6,4-.4.7-.9,1.3-1.3,2,0,0-.1.2-.2.3,0,0,0,0,0,.1h0s0,0,0,0h0c0,0-.2,0-.3,0h-1.8c-1.5-.1-3.1-.2-4.7-.2h-.3s-.3,0-.3,0c-.5,0-.8.1-1,.5-.9,1.4-1.9,2.9-2.8,4.2-.4.6-.7,1.1-1.1,1.7,0,0,0,.1-.1.2h0s0,0,0,0c0,0,0,0,0-.1-.4-.7-.7-1.3-1.1-2-.8-1.5-1.6-3-2.4-4.5,0,0,0-.1,0-.1h0s0,0,0,0c0,0-.1-.1-.2-.1h0c0,0-.2-.1-.3-.1h0s0,0,0,0h0s0,0-.1,0c-1.3,0-2.7-.1-4-.2-1.1,0-2.1-.1-3.2-.2-.1,0-.2,0-.3,0,0,0,0,0-.1,0h0s-.1,0-.1,0h0c0,0,0,0,0,0h0s0,0,0,0h0c0,0-.1,0-.2,0-.7,0-1.4,0-2.1,0-1.7,0-3.4-.1-5.2-.2,0,0,0,0,0,0,0,0,0,0-.1,0h0s0,0,0,0c-.4,0-.6.3-.7.5-.9,1.4-1.8,2.7-2.7,4.1-.4.6-.8,1.2-1.2,1.9,0,0,0,.2-.2.3,0,0,0,0,0,.1h0s0,0,0,0h-.6c-.4,0-.8,0-1.1,0-.7,0-1.4,0-2.1,0-1.2,0-2.4,0-3.6-.1,0,0,0,0,0,0h0s0,0,0,0h0c-.3,0-.5,0-.6.2h0s0,0,0,0h0s0,0,0,.1c-.9,1.4-1.8,2.8-2.7,4.2-.4.7-.9,1.3-1.3,2,0,0,0,0,0,.1,0,0,0-.2-.1-.2l-.8-1.6-.3-.5v-.2c0,0-.5-.7-.5-.7-.6-1.1-1.2-2.3-1.8-3.4,0-.1-.2-.2-.3-.3s-.3-.1-.5-.1c-1.4,0-2.8-.2-4.2-.2-1.1,0-2.1-.1-3.2-.2-.1,0-.2,0-.3,0,0,0,0,0-.1,0h-.4c0,0,.2.4.2.4h0c0,.2,0,.3.1.4.3.5.6,1.1.9,1.6.8,1.5,1.7,3.1,2.5,4.7,0,.2.2.3.4.4s.3.1.5.2c1.5,0,3.1.2,4.5.3h.2s0,0,0,0h.5s1.8.1,1.8.1c0,0,.2,0,.3,0h.2s.1,0,.1,0c0,0,0,0,0,.1,0,0,0,.1,0,.2l.9,1.8c.8,1.5,1.7,3.1,2.5,4.7,0,.1.2.2.3.3h0s0,0,0,0c.1,0,.3.1.4.1,1.6,0,3.3.2,4.9.3h2.3c0,.1.2.1.3.1,0,0,0,0,.1,0h0s0,0,0,0c0,0,0,0,0,.1,0,0,0,.2.1.3l.8,1.6c.8,1.5,1.7,3.1,2.5,4.7,0,.2.2.3.3.4h0s0,0,0,0c0,0,0,0,0,0,.2,0,.3.1.5.2,1.8,0,3.6.2,5.3.3h1.7c.1.1.2.1.4.1h0s0,0,0,0h0s.2,0,.2,0h0c0,0,0,0,0,0h0s0,0,0,0h0s0,0,0,0h0c.1,0,.2,0,.4,0h1.4c1.8.1,3.8.2,5.6.3.4,0,.7-.1,1-.5.9-1.4,1.8-2.8,2.7-4.2.4-.6.8-1.2,1.2-1.8,0,0,0-.1.1-.2,0,0,0,0,0,.1l.8,1.6c.8,1.6,1.7,3.2,2.6,4.9,0,.1.2.3.3.3h0s0,0,0,0c.1,0,.3,0,.4.1,1.9.1,3.9.2,5.8.3h1.3c0,0,.1,0,.2,0h.2s0,0,0,0h0c0,0,0,0,0,0h.3s0-.2,0-.2h0s0,0,0,0c0,0,0,0,.1-.1l1.1-1.8c1-1.5,1.9-3,2.9-4.5,0-.1.1-.2.1-.3.1,0,.3,0,.5.1,1.7,0,3.4.2,5.1.3.7,0,1.3,0,2,.1,0,0,.2,0,.3,0ZM64.5,57.7c-.8,0-1.6,0-2.5-.1h0c-1.5,0-3-.2-4.5-.2-.2,0-.3,0-.4-.1s-.2-.2-.2-.3c-1.1-2.1-2.2-4.2-3.3-6.3,0-.1-.1-.2-.2-.4.1,0,.2,0,.3,0,2.4.1,4.9.3,7.3.4.1,0,.2,0,.3,0s.1.1.2.2c.7,1.4,1.5,2.8,2.2,4.2h0c.4.8.8,1.5,1.2,2.3,0,.1.1.2.2.4-.2,0-.4,0-.5,0ZM125.8,66.1c-1-1.9-1.9-3.7-2.8-5.6,1.4-2.2,2.8-4.5,4.2-6.7.2.3,1.3,2.4,2.3,4.2h0c.3.6.5,1.1.8,1.6.3.6.5,1,.5,1.2-1.4,2.2-2.7,4.4-4.2,6.7,0,0-.4-.6-.8-1.4ZM134.9,67.7c0,0-.1.2-.2.2,0,0,0,0,0,0,0,0-.2,0-.2,0-2.5,0-4.9-.2-7.4-.3,0,0-.2,0-.3,0,0-.1.1-.3.2-.4,1.3-2,2.6-4,3.9-6,.1-.2.3-.3.5-.3,2.5,0,4.9.2,7.4.3,0,0,.1,0,.2,0,0,0,0,.2-.1.3-1.3,2.1-2.7,4.1-4,6.2ZM139.5,61.2s0,0,0,0c0-.2.2-.3.2-.4,1.3-2,2.6-4,3.9-5.9.2-.3.3-.4.7-.4,2.4.1,4.8.2,7.2.3,0,0,.2,0,.3,0,0,.1,0,.2-.1.3-1.3,2-2.7,4.1-4,6.1,0,0-.1.2-.2.2,0,0,0,0,0,0,0,0,0,0,0,0,0,0,0,0,0,0,0,0,0,0-.1,0-1,0-2,0-3.1-.1-.6,0-1.2,0-1.7,0-.8,0-1.7,0-2.5,0,0,0-.2,0-.3,0ZM150.8,68.8s0,0,0,0c-.3,0-.6,0-.8,0-1.6,0-3.2-.2-4.8-.3-.5,0-1,0-1.5,0-.1,0-.3,0-.3,0h0c-.1,0-.2-.2-.3-.3-1.1-2.1-2.2-4.1-3.3-6.2,0-.1-.1-.2-.2-.4.1,0,.2,0,.3,0,2.4.1,4.9.3,7.3.4,0,0,.2,0,.2,0,0,0,0,0,0,0,0,0,0,0,0,0,0,0,0,0,0,0,1.2,2.2,2.3,4.4,3.5,6.6,0,0,0,.1,0,.2-.1,0-.2,0-.3,0ZM150.6,67.3c-.9-1.8-1.8-3.6-2.7-5.4,0-.1,0-.2-.1-.3,1.4-2.2,2.8-4.4,4.2-6.7.2.2.8,1.5,1.5,2.8.5,1,1,1.9,1.5,2.9.3.6.5,1.1.6,1.3-1.4,2.2-2.7,4.4-4.2,6.7,0,0-.4-.6-.8-1.3ZM152.3,54.3c1.3-2,2.6-4,4-6.1.2-.3.3-.3.6-.3,2.4,0,4.8.2,7.2.3,0,0,.2,0,.3,0,0,.1-.1.3-.2.3-1.3,2-2.6,4-3.9,6,0,.1-.2.2-.3.3,0,0-.2,0-.3,0-2.4,0-4.9-.2-7.3-.3,0,0-.1,0-.2,0,0,0,0,0,0,0,0-.1,0-.2.2-.3ZM155.9,61.8c0,0-.2-.2-.3-.3-1.1-2.1-2.2-4.2-3.3-6.3,0-.1-.1-.2-.2-.4.2,0,.3,0,.4,0,2.4.1,4.8.3,7.2.4.1,0,.2,0,.3,0,0,0,0,0,0,0,0,0,0,0,.1.1,0,0,0,0,.1.2,1.1,2.1,2.2,4.2,3.4,6.3,0,0,0,.2.2.4-.2,0-.3,0-.4,0,0,0,0,0-.1,0-2.3-.1-4.6-.3-6.9-.4,0,0,0,0-.1,0,0,0-.1,0-.2,0,0,0,0,0,0,0,0,0,0,0-.1,0,0,0,0,0,0,0ZM159.6,68.8c-.1.2-.3.3-.5.3-2.4,0-4.9-.2-7.3-.3,0,0-.1,0-.3,0,0-.1.1-.2.2-.3,1.3-2,2.6-4,3.9-6,.1-.2.3-.3.5-.3,2.4,0,4.9.2,7.3.3,0,0,.2,0,.3,0,0,.1,0,.2-.2.3-1.3,2-2.6,4-4,6ZM163.3,60.8c-.9-1.8-1.8-3.6-2.7-5.4,0,0,0,0,0,0,0-.2,0-.3,0-.5,1.3-2.1,2.7-4.2,4-6.4,0,0,0,0,0-.1.1.1.4.6.7,1.2,1,1.9,1.9,3.8,2.9,5.7,0,0,0,.1,0,.2-1.4,2.2-2.8,4.4-4.2,6.7,0,0-.4-.6-.8-1.3ZM172.3,62.3c-.1.2-.3.3-.6.3-1.1,0-2.2,0-3.3-.1h0c-1.3,0-2.5,0-3.8-.1,0,0-.1,0-.2,0,0,0-.2,0-.3,0,0-.1.1-.2.2-.3,1.3-2,2.6-4,4-6,.1-.2.3-.3.5-.3,1.3,0,2.6.1,3.9.1h0c.6,0,1.2,0,1.9,0,.6,0,1.2,0,1.8,0,0,.2-.1.3-.2.4-1.3,2-2.6,4-3.9,6ZM189.1,49.3c0,.1-.1.3-.2.4-1.3,2-2.6,4-3.9,6-.1.2-.3.3-.5.3-2.4,0-4.9-.2-7.3-.3,0,0-.2,0-.3,0,.1-.2.2-.3.3-.4,1.3-2,2.6-3.9,3.8-5.9.2-.3.4-.4.7-.4,2.4.1,4.8.2,7.1.3.1,0,.2,0,.4,0ZM177.8,41.7c1.3,0,2.6.1,3.8.2h0c1.1,0,2.3.1,3.4.2.1,0,.3,0,.3,0s.1.1.2.2c1.1,2.2,2.3,4.3,3.4,6.5,0,0,0,.2.1.3-.2,0-.3,0-.4,0-2.4-.1-4.8-.3-7.2-.4-.1,0-.3,0-.3,0s-.1-.1-.2-.2c-.5-1-1.1-2-1.6-3.1h0c-.6-1.1-1.2-2.3-1.8-3.4,0,0,0-.2-.1-.3.1,0,.2,0,.3,0ZM178.4,43.8c.9,1.7,1.7,3.4,2.6,5.1-1.4,2.2-2.8,4.5-4.3,6.8-.3-.6-.6-1.2-.9-1.7-.3-.5-.5-1.1-.8-1.6h0c-.6-1.2-1.2-2.4-1.8-3.6,0-.1,0-.2,0-.3,1.4-2.2,2.7-4.4,4.1-6.5.1.2.6,1,1.1,1.9ZM172.7,48.7c.1,0,.2.2.3.3.6,1.1,1.2,2.3,1.8,3.4h0c.5.9,1,1.9,1.5,2.8,0,.1,0,.2.2.4-.4,0-.7,0-1.1,0-1.4,0-2.8-.2-4.2-.2-.8,0-1.6,0-2.3-.1-.1,0-.3,0-.4-.1s0,0-.1-.1c0,0,0,0,0,0-1.1-2.2-2.3-4.3-3.4-6.5,0,0,0-.2-.1-.3.2,0,.3,0,.4,0,2.3.1,4.7.3,7,.4.2,0,.4,0,.5.1ZM177.1,41.7c0,0,0,.2,0,.2-1.3,2.1-2.7,4.1-4.1,6.2,0,0,0,0,0,0-.1.1-.3.2-.5.2-2.5,0-5-.2-7.4-.3,0,0,0,0-.1,0,0-.1.1-.2.2-.3,1.3-2,2.6-4,4-6,.1-.2.3-.3.5-.3,2.5,0,4.9.2,7.4.3,0,0,.1,0,.2,0ZM165.5,34c.2,0,.3,0,.4,0,2.4.1,4.7.3,7.1.4.1,0,.3,0,.3,0,0,0,.2.1.2.3,1.1,2.1,2.2,4.2,3.3,6.3,0,.1.1.2.2.4-.2,0-.3,0-.4,0-2.4-.1-4.7-.3-7.1-.4,0,0-.1,0-.2,0,0,0,0,0-.1,0,0,0,0,0,0,0,0,0,0,0,0,0,0,0,0,0-.1-.1,0,0,0-.1-.1-.2-1.1-2.1-2.2-4.2-3.3-6.3,0-.1-.1-.2-.2-.4,0,0,0,0,0,0ZM165.3,34.1c0,0,.1.1.1.2,1.1,2.2,2.2,4.4,3.3,6.6,0,.1,0,.2,0,.4,0,0,0,0,0,0,0,0,0,0,0,.1-1.3,2.1-2.7,4.2-4,6.4,0,0,0,0-.1.1,0-.1-.1-.2-.2-.3-1.1-2.1-2.1-4.2-3.2-6.4-.1-.2-.1-.4,0-.7,1.3-2,2.6-4.1,3.8-6.1,0,0,.1-.2.2-.3ZM153.2,40.6c2.4.1,4.8.3,7.2.4.1,0,.2,0,.3,0h0s0,0,0,0c0,0,0,0,0,0,0,0,0,0,0,.1,1.1,2.2,2.3,4.3,3.4,6.5,0,0,0,.2.1.3,0,0,0,0,0,0-.1,0-.2,0-.3,0-2.4-.1-4.8-.3-7.2-.4,0,0-.2,0-.3,0,0,0,0,0,0,0,0,0,0,0,0,0,0,0,0,0,0,0,0,0,0,0,0-.1-1.1-2.2-2.3-4.3-3.4-6.5,0,0,0-.2-.1-.3.2,0,.3,0,.4,0ZM152.8,40.9c1.1,2.2,2.2,4.3,3.3,6.5.1.2.1.3,0,.5-1.3,2.1-2.6,4.2-3.9,6.3,0,0,0,0-.1.2-.6-1.2-1.2-2.3-1.8-3.5-.6-1.2-1.2-2.4-1.8-3.6,1.4-2.2,2.8-4.5,4.2-6.7,0,.1.1.2.2.3ZM148,47.6s0,0,.1,0c0,0,0,0,.1.2,1.1,2.1,2.2,4.2,3.4,6.3,0,0,0,.2.2.4-.1,0-.2,0-.3,0-.2,0-.3,0-.5,0-.5,0-1,0-1.5,0-1.2,0-2.5-.1-3.7-.2-.5,0-1,0-1.5,0-.1,0-.2,0-.3,0,0,0,0,0,0,0-.1,0-.2-.2-.3-.3-1.1-2.1-2.2-4.1-3.3-6.2,0-.1-.1-.3-.2-.4,0,0,0,0,0,0,.1,0,.2,0,.3,0,2.4.1,4.8.3,7.2.4.1,0,.2,0,.3,0,0,0,0,0,0,0ZM144.3,40.6c.1-.2.3-.3.5-.3,2.5,0,4.9.2,7.4.3,0,0,.1,0,.2,0,0,.1,0,.2-.1.3-1.3,2-2.7,4.1-4,6.1-.1.2-.2.3-.5.3-2.5,0-5-.2-7.5-.3,0,0,0,0,0,0,0,0,0,0-.1,0,0-.1.1-.2.2-.3,1.3-2,2.6-4,3.9-6ZM139.9,47.2c1.2,2.4,2.4,4.7,3.6,7.1-1.4,2.2-2.8,4.5-4.2,6.7,0,0-.1-.2-.2-.2-1.1-2.2-2.2-4.4-3.3-6.6,0-.2-.1-.3,0-.5,1.3-2.1,2.7-4.2,4-6.4,0,0,0,0,.1-.2ZM135.3,54.1s0,0,.1.1c0,0,0,0,.1.2,1.1,2.1,2.2,4.2,3.4,6.3,0,0,0,.2.2.4-.1,0-.2,0-.4,0,0,0-.1,0-.2,0-2-.1-4-.2-6-.3-.3,0-.7,0-1,0-.1,0-.2,0-.3,0,0,0,0,0,0,0,0,0-.2-.2-.3-.3-1.1-2.1-2.2-4.2-3.3-6.3,0-.1-.1-.2-.2-.4.2,0,.3,0,.4,0,2.4.1,4.8.3,7.2.4.1,0,.2,0,.3,0h0ZM139.7,47.1s0,0,0,0c0,.1-.2.3-.2.4-1.3,2-2.6,4-3.9,5.9-.1.2-.3.3-.6.3-2.4,0-4.8-.2-7.2-.3,0,0-.2,0-.3,0,0-.1,0-.2.1-.3,1.3-2,2.7-4.1,4-6.1.2-.2.3-.3.6-.3,2.1,0,4.3.2,6.4.2.3,0,.7,0,1.1,0ZM128.5,39.4c2.4.1,4.8.3,7.3.4.1,0,.2,0,.3,0,0,0,.1.1.2.2,1.1,2.2,2.3,4.3,3.4,6.5,0,0,0,.1.1.3-.2,0-.3,0-.4,0-2.4-.1-4.8-.3-7.2-.4-.1,0-.2,0-.3,0,0,0-.2-.1-.2-.2-1.1-2.1-2.3-4.3-3.4-6.4,0,0,0-.2-.1-.3.1,0,.3,0,.4,0ZM128.1,39.9c1.1,2.1,2.1,4.3,3.2,6.4.1.2.1.4,0,.6-1.3,2.1-2.6,4.1-3.9,6.2,0,0-.1.1-.1.2,0,0,0,0,0,0,0,0,0,0,0,0,0,0,0-.1-.1-.2-1.1-2.3-2.3-4.5-3.4-6.8,1.4-2.2,2.8-4.4,4.2-6.7,0,.2.2.3.2.4ZM126.8,54c-1.3,2-2.6,3.9-3.9,5.9-.2.3-.4.4-.7.4-2.3,0-4.7-.2-7-.3-.1,0-.3,0-.5,0,.1-.2.2-.3.2-.4,1.3-2,2.6-3.9,3.9-5.9.2-.3.4-.4.7-.4,2.4,0,4.7.2,7.1.3.1,0,.2,0,.4,0,0,.2-.2.3-.2.4ZM123.6,46.7c1.1,2.1,2.2,4.2,3.3,6.3,0,.1,0,.2.2.4-.2,0-.4,0-.5,0-2.3-.1-4.7-.3-7-.4-.1,0-.3,0-.4,0,0,0-.1-.1-.2-.2-1.1-2.2-2.3-4.3-3.4-6.5,0,0,0-.2-.1-.3.1,0,.3,0,.4,0,2.4.1,4.8.3,7.2.4.1,0,.3,0,.4,0,0,0,.2.2.2.3ZM119.5,39.4c.1-.2.3-.3.6-.3,2.4,0,4.8.2,7.2.3.1,0,.2,0,.4,0,0,.2-.2.3-.2.4-1.3,2-2.6,3.9-3.9,5.9-.2.3-.4.4-.7.4-2.3,0-4.7-.2-7-.3-.1,0-.3,0-.5,0,0-.2.1-.3.2-.4,1.3-2,2.6-4,3.9-6ZM115.2,46.1c0,0,.1.2.2.3,1.1,2.2,2.2,4.3,3.3,6.5.1.2.1.4,0,.6-1.3,2.1-2.6,4.1-3.9,6.2,0,0-.1.2-.2.3,0-.1-.1-.2-.2-.3-1.1-2.2-2.2-4.3-3.3-6.5-.1-.2-.1-.4,0-.6,1.3-2.1,2.6-4.1,3.9-6.2,0,0,.1-.2.2-.3ZM106.8,46c.2-.3.4-.4.7-.4.2,0,.4,0,.6,0,2.2,0,4.3.2,6.5.2,0,0,.2,0,.3,0,0,.1-.1.2-.2.3-1.3,2-2.6,4-4,6-.1.2-.3.3-.5.3-2.4,0-4.8-.2-7.3-.3,0,0-.2,0-.3,0,.1-.2.2-.3.2-.4,1.3-2,2.6-3.9,3.9-5.9ZM102.3,52.5s0,0,0,0c0,.1-.1.3-.2.4-1.3,2-2.6,3.9-3.9,5.9-.2.3-.4.4-.7.4-2.3,0-4.7-.2-7-.3-.1,0-.2,0-.4,0,0,0,0,0,0,0,0-.1,0-.2.1-.3,1.3-2.1,2.7-4.1,4-6.2,0,0,0,0,0,0,.1-.1.2-.2.4-.2,0,0,0,0,0,0,1.9,0,3.8.1,5.8.2.6,0,1.1,0,1.8,0ZM91.1,44.8c2.4.1,4.8.3,7.2.4,0,0,0,0,.1,0,0,0,.2,0,.2,0s0,0,.1,0c0,0,0,0,0,.1,1.1,2.2,2.3,4.3,3.4,6.5,0,0,0,.2.1.3-.2,0-.3,0-.4,0-2.4-.1-4.8-.3-7.1-.4-.1,0-.2,0-.3,0,0,0-.1-.1-.2-.2-1.1-2.2-2.3-4.3-3.4-6.5,0,0,0-.1-.1-.3.1,0,.3,0,.4,0ZM90.5,45c.2.3.8,1.4,1.4,2.7.5.9.9,1.8,1.4,2.8.3.7.6,1.2.7,1.5,0,0,0,.2,0,.3-1.4,2.2-2.7,4.4-4.1,6.6,0,0,0-.1,0-.1-1.2-2.3-2.3-4.5-3.4-6.8,0-.1,0-.2,0-.4,1.4-2.2,2.7-4.3,4-6.5,0,0,0,0,0,0ZM82.2,44.9c.1-.2.3-.3.5-.4,0,0,0,0,.1,0,0,0,0,0,0,0,2.4.1,4.8.2,7.2.3,0,0,0,0,.1,0,0,0,0,0,.1,0,0,.1,0,.2-.1.3-1.3,2-2.7,4.1-4,6.1-.1.2-.3.3-.5.3-2.5,0-4.9-.2-7.4-.3,0,0-.1,0-.2,0,0-.2.2-.3.2-.4,1.3-2,2.6-4,3.9-5.9ZM65.5,57.5c1.3-2.1,2.7-4.1,4-6.2,0,0,0,0,0,0,.1-.1.3-.2.4-.2,0,0,0,0,0,0,1.9,0,3.8.1,5.8.2.6,0,1.1,0,1.8,0,0,.1-.1.2-.2.3-1.3,2-2.7,4.1-4,6.1-.1.2-.3.3-.6.3-2.4,0-4.8-.2-7.3-.3,0,0-.2,0-.3,0,0-.1,0-.2.1-.3ZM76.6,65.4c-2.4-.1-4.8-.3-7.2-.4-.1,0-.2,0-.3,0,0,0-.1-.1-.2-.2-1.1-2.2-2.3-4.3-3.4-6.5,0,0,0-.2-.1-.3.2,0,.4,0,.6,0,2.2.1,4.3.3,6.5.4.2,0,.3,0,.5,0,0,0,.1,0,.2,0,0,0,0,0,0,0,0,0,0,0,.1,0,0,0,0,0,0,0,0,0,.2.2.2.3,1.1,2.1,2.2,4.2,3.3,6.3,0,.1.1.2.2.4-.2,0-.3,0-.4,0ZM77,65c-1.1-2.2-2.2-4.3-3.3-6.4-.1-.2-.1-.4,0-.6,1.3-2,2.6-4.1,3.8-6.1,0,0,.1-.2.2-.3,0,0,0,.1.1.2,1.1,2.3,2.3,4.5,3.4,6.7,0,.1,0,.2,0,.3-1.4,2.2-2.7,4.4-4.1,6.6,0-.1-.1-.2-.2-.3ZM81.8,58.4c0,0-.2-.1-.2-.3-1.1-2.1-2.2-4.2-3.4-6.3,0-.1,0-.2-.2-.4,0,0,0,0,.1,0,0,0,.2,0,.3,0,2,.1,4,.2,6,.3.4,0,.8,0,1.2,0,0,0,.1,0,.2,0,0,0,0,0,0,0,0,0,0,0,.1,0,0,0,0,0,0,0,0,0,.2.1.2.3,1.1,2.1,2.2,4.2,3.4,6.3,0,0,0,.2.2.4,0,0,0,0,0,0-.2,0-.4,0-.5,0-2.4-.1-4.7-.3-7.1-.4-.1,0-.2,0-.3,0ZM77.4,65.4c0-.2.2-.3.2-.4,1.3-2,2.6-3.9,3.9-5.9,0-.1.2-.2.3-.3,0,0,0,0,0,0,0,0,0,0,0,0,0,0,0,0,.2,0,0,0,0,0,0,0,2.4,0,4.8.2,7.3.3,0,0,0,0,0,0,0,0,.2,0,.2,0,0,.1-.1.2-.2.3-1.3,2-2.6,4-4,6-.1.2-.3.3-.6.3-2.4,0-4.9-.2-7.3-.3,0,0-.2,0-.3,0ZM88.9,73.1c-.2,0-.3,0-.4,0-2.3-.1-4.7-.3-7-.4-.2,0-.3,0-.4-.1s0,0,0,0c0,0-.2-.2-.2-.3-1.1-2.1-2.2-4.2-3.3-6.3,0-.1-.1-.2-.2-.4.2,0,.3,0,.4,0,2,.1,3.9.2,5.9.3.4,0,.8,0,1.2,0,0,0,0,0,0,0,0,0,0,0,.1,0,0,0,0,0,0,0,0,0,0,0,0,0,0,0,.2.1.2.3,1.1,2.1,2.2,4.2,3.3,6.3,0,.1.1.2.2.4,0,0,0,0,0,0ZM89.2,72.9c0,0-.1-.1-.2-.2-1.1-2.2-2.2-4.4-3.3-6.6,0-.2-.1-.3,0-.5,1.3-2.1,2.7-4.2,4-6.4,0,0,0,0,.1-.1,0,.1.1.2.2.3,1.1,2.1,2.1,4.2,3.2,6.4,0,0,0,.2,0,.3,0,0,0,0,0,0,0,0,0,.2,0,.3-1.3,2.1-2.6,4.2-3.9,6.2,0,0,0,.1-.2.2ZM93.8,66h0c0,0-.2-.2-.3-.3-1.1-2.1-2.2-4.2-3.3-6.2,0-.1-.1-.2-.2-.4.1,0,.2,0,.3,0,2.4.1,4.9.3,7.3.4,0,0,0,0,.1,0,0,0,.1,0,.2,0s0,0,0,0c0,0,0,0,0,0,1.2,2.2,2.3,4.4,3.5,6.6,0,0,0,.1,0,.2-.2,0-.4,0-.5,0-2.3-.1-4.7-.3-7-.4-.2,0-.3,0-.4-.1ZM97.6,73c-.2.3-.4.4-.7.4-2.3,0-4.7-.2-7-.3-.1,0-.3,0-.4,0,0,0,0,0,0,0,0-.2.1-.3.2-.4,1.3-2,2.6-4,3.9-6,.1-.2.3-.3.6-.3,2.4,0,4.8.2,7.2.3.1,0,.2,0,.3,0,0,.1-.1.3-.2.4-1.3,2-2.6,3.9-3.9,5.9ZM100.3,63.3h0c-.5-1-1-1.9-1.5-2.9-.2-.5-.4-.9-.5-1.1,1.4-2.2,2.8-4.4,4.2-6.7,1.2,2.4,2.4,4.8,3.6,7.1-1.4,2.2-2.8,4.5-4.2,6.7-.2-.3-.9-1.6-1.7-3.1ZM106.2,59.2c-1.1-2.1-2.2-4.2-3.3-6.3,0-.1-.1-.2-.2-.4.2,0,.3,0,.4,0,2.4.1,4.8.3,7.2.4.1,0,.2,0,.3,0,0,0,.2.1.2.3,1.1,2.1,2.2,4.2,3.4,6.3,0,.1,0,.2.2.4-.2,0-.4,0-.5,0-2.3-.1-4.7-.3-7-.4-.2,0-.3,0-.4,0,0,0-.2-.2-.3-.3ZM102.1,66.5c0-.1.1-.3.2-.3,1.3-2,2.6-4,3.9-6,.1-.2.3-.3.5-.3,2.4,0,4.9.2,7.3.3,0,0,.2,0,.3,0,0,.1-.1.2-.2.3-1.3,2-2.6,4-3.9,6-.1.2-.3.3-.5.3-2.5,0-4.9-.2-7.4-.3,0,0-.1,0-.2,0ZM113.3,74.2c-2.4-.1-4.8-.3-7.2-.4-.1,0-.2,0-.3,0h0c0,0-.1-.1-.2-.2-1.1-2.2-2.3-4.3-3.4-6.5,0,0,0-.2-.1-.3.2,0,.3,0,.4,0,2.4.1,4.8.3,7.2.4.1,0,.2,0,.3,0h0c0,0,.1.1.2.2,1.1,2.2,2.3,4.3,3.4,6.5,0,0,0,.2.1.3-.2,0-.3,0-.4,0ZM113.9,74.1c0-.1-.1-.2-.2-.3-1.1-2.1-2.1-4.2-3.2-6.4-.1-.2-.1-.4,0-.7,1.3-2,2.6-4.1,3.8-6.1,0,0,.1-.2.2-.3,0,0,.1.1.1.2,1.1,2.2,2.2,4.4,3.3,6.6,0,.2.1.3,0,.5-1.3,2.1-2.7,4.2-4,6.4,0,0,0,0-.1.1ZM118.9,67.3c-.2,0-.3,0-.4-.1,0,0-.2-.2-.2-.3-1.1-2.1-2.2-4.2-3.3-6.3,0-.1-.1-.2-.2-.4.2,0,.4,0,.5,0,2.4.1,4.7.3,7.1.4.1,0,.2,0,.3,0,0,0,.2.1.2.3,1.1,2.1,2.2,4.2,3.3,6.3,0,.1.1.2.2.4-.2,0-.3,0-.4,0-2.4-.1-4.7-.3-7.1-.4Z"/>
</svg>