<?xml version="1.0" encoding="UTF-8"?>
<svg xmlns="http://www.w3.org/2000/svg" xmlns:xlink="http://www.w3.org/1999/xlink" version="1.1" viewBox="0 0 214.2 98.4">
  <!-- Generator: Adobe Illustrator 29.0.1, SVG Export Plug-In . SVG Version: 2.1.0 Build 192)  -->
  <defs>
    <style>
      .st0 {
        fill: url(#radial-gradient);
      }

      .st0, .st1, .st2, .st3 {
        mix-blend-mode: multiply;
      }

      .st4 {
        isolation: isolate;
      }

      .st2, .st5 {
        fill: #cfd1d2;
      }

      .st3, .st6 {
        fill: #f0f1f1;
      }

      .st7 {
        fill: #e5e5e6;
      }
    </style>
    <radialGradient id="radial-gradient" cx="107.1" cy="50.5" fx="107.1" fy="50.5" r="30.1" gradientUnits="userSpaceOnUse">
      <stop offset=".6" stop-color="#fff" stop-opacity="0"/>
      <stop offset=".7" stop-color="#fefefe" stop-opacity="0"/>
      <stop offset=".8" stop-color="#fcfcfc" stop-opacity="0"/>
      <stop offset=".8" stop-color="#f9f9f9" stop-opacity=".1"/>
      <stop offset=".9" stop-color="#f5f5f5" stop-opacity=".2"/>
      <stop offset=".9" stop-color="#eff0f0" stop-opacity=".3"/>
      <stop offset=".9" stop-color="#e8e9ea" stop-opacity=".4"/>
      <stop offset="1" stop-color="#e0e1e2" stop-opacity=".6"/>
      <stop offset="1" stop-color="#d6d8d9" stop-opacity=".8"/>
      <stop offset="1" stop-color="#cfd1d2" stop-opacity="1"/>
    </radialGradient>
  </defs>
  <g class="st4">
    <g id="OBJECTS">
      <g>
        <circle class="st0" cx="107.1" cy="50.5" r="30.1"/>
        <g class="st1">
          <path class="st6" d="M107.1,83.9c-18.4,0-33.4-15-33.4-33.4s15-33.4,33.4-33.4,33.4,15,33.4,33.4-15,33.4-33.4,33.4ZM107.1,17.4c-18.3,0-33.1,14.9-33.1,33.1s14.9,33.1,33.1,33.1,33.1-14.9,33.1-33.1-14.9-33.1-33.1-33.1Z"/>
        </g>
        <g class="st1">
          <path class="st6" d="M131.5,76.9l-1.1-1.2c7-6.5,11-15.7,11-25.2s-1.1-10.1-3.3-14.7l1.5-.7c2.3,4.8,3.4,10,3.4,15.4,0,10-4.2,19.6-11.6,26.4Z"/>
        </g>
        <g class="st1">
          <path class="st5" d="M92.6,83.4c-6.7-3-12.2-7.8-16.1-14l1.4-.9c3.7,5.9,9,10.6,15.3,13.4l-.7,1.5Z"/>
        </g>
        <g class="st1">
          <path class="st6" d="M73.9,64.3c-1.8-4.4-2.7-9-2.7-13.7,0-9,3.4-17.6,9.4-24.3l1.2,1.1c-5.8,6.3-9,14.6-9,23.2s.9,8.9,2.6,13.1l-1.5.6Z"/>
        </g>
        <g class="st1">
          <path class="st6" d="M90.9,20.3l-.8-1.4c3.6-1.9,7.4-3.2,11.3-3.8l.3,1.6c-3.8.6-7.4,1.8-10.8,3.7Z"/>
        </g>
        <g class="st1">
          <path class="st6" d="M117.8,17.9c-3.4-1.1-7-1.7-10.6-1.7s-1.5,0-2.3,0v-1.6c.7,0,1.5,0,2.3,0,3.8,0,7.6.6,11.1,1.8l-.5,1.6Z"/>
        </g>
        <g class="st1">
          <path class="st5" d="M129.9,24.9c-3.1-2.8-6.7-4.9-10.5-6.4l.6-1.5c4.1,1.6,7.8,3.8,11,6.7l-1.1,1.2Z"/>
        </g>
        <g class="st1">
          <polygon class="st7" points="148.3 45.4 148.3 45.3 152.1 44.8 152.1 44.9 148.3 45.4"/>
          <path class="st7" d="M149.8,65.9l-3.6-1.3v-.2c0,0,3.7,1.3,3.7,1.3v.3ZM150.2,64.5l-3.6-1.2v-.2c0,0,3.7,1.2,3.7,1.2v.3ZM150.6,63.2l-3.7-1.1v-.2c0,0,3.7,1,3.7,1v.3ZM151,61.8l-3.7-.9v-.3c0,0,3.8.9,3.8.9v.3ZM151.3,60.4l-3.7-.8v-.2c0,0,3.8.8,3.8.8v.3ZM151.6,59l-3.7-.7v-.3s3.8.7,3.8.7v.3ZM151.9,57.7l-3.8-.6v-.3s3.8.6,3.8.6v.3ZM152.1,56.2l-3.8-.5v-.3s3.8.5,3.8.5v.3ZM152.2,54.8l-3.8-.4v-.3s3.8.3,3.8.3v.3ZM152.3,53.4l-3.8-.2v-.3s3.8.2,3.8.2v.3ZM152.4,52h-3.8c0-.1,0-.4,0-.4h3.8c0,.1,0,.4,0,.4ZM152.4,50.6h-3.8v-.3s3.8,0,3.8,0v.3ZM148.6,49.3v-.3s3.8-.1,3.8-.1v.3s-3.8.1-3.8.1ZM148.5,48v-.3s3.8-.3,3.8-.3v.3s-3.8.2-3.8.2ZM148.5,46.7v-.3s3.8-.4,3.8-.4v.3s-3.8.3-3.8.3Z"/>
          <polygon class="st7" points="149.3 67.1 145.8 65.7 145.8 65.6 149.4 66.9 149.3 67.1"/>
        </g>
        <g class="st1">
          <polygon class="st7" points="78.4 85.6 78.3 85.5 80.7 82.6 80.8 82.7 78.4 85.6"/>
          <path class="st7" d="M77.4,84.8l-.2-.2,2.5-2.9.2.2-2.5,2.9ZM76.3,83.8l-.2-.2,2.6-2.8.2.2-2.6,2.8ZM75.3,82.8l-.2-.2,2.7-2.7.2.2-2.7,2.7ZM74.2,81.7l-.2-.2,2.8-2.6.2.2-2.8,2.6ZM73.3,80.6l-.2-.2,2.9-2.5.2.2-2.8,2.5ZM72.3,79.5l-.2-.2,2.9-2.4.2.2-2.9,2.4ZM71.4,78.4c0,0-.1-.2-.2-.2l3-2.3.2.2-3,2.3ZM70.5,77.2c0,0-.1-.2-.2-.2l3.1-2.2.2.2-3.1,2.3Z"/>
          <rect class="st7" x="69.3" y="74.8" width="3.8" height=".1" transform="translate(-29.8 52.8) rotate(-34.1)"/>
        </g>
        <g class="st1">
          <path class="st6" d="M145.8,55.1l-4.3-.5c.2-1.3.2-2.7.2-4.1s0-2.6-.2-3.9l4.3-.5c.2,1.4.2,2.9.2,4.3s0,3.1-.3,4.6Z"/>
        </g>
        <g class="st1">
          <path class="st5" d="M122.6,86.3l-1.7-4c7.8-3.4,14-9.4,17.6-17.1l3.9,1.8c-4,8.6-11.1,15.5-19.8,19.3Z"/>
        </g>
        <g class="st1">
          <path class="st6" d="M103.8,89.3c-9-.8-17.5-4.7-24-11l3.1-3.1c5.7,5.6,13.3,9.1,21.3,9.8l-.4,4.3Z"/>
        </g>
        <g class="st1">
          <path class="st5" d="M107.1,94.1c-9.1,0-17.9-2.8-25.3-8.1l.5-.7c7.3,5.2,15.8,7.9,24.8,7.9,16.2,0,30.8-8.9,38.1-23.4l.7.4c-7.5,14.7-22.4,23.8-38.8,23.8Z"/>
        </g>
        <g class="st1">
          <path class="st5" d="M67.9,71.3c-3.4-6.4-5.2-13.5-5.2-20.8,0-10.8,3.9-21.2,11.1-29.3l4.5,4c-6.2,7-9.6,16-9.6,25.4s1.5,12.5,4.5,18l-5.3,2.8Z"/>
        </g>
        <g class="st1">
          <path class="st5" d="M144.4,41.6c-2-8.2-6.7-15.7-13.4-21-6.9-5.5-15.1-8.4-23.9-8.4s-5.1.2-7.5.7l-1.2-5.9c2.8-.6,5.8-.9,8.7-.9,10,0,19.9,3.4,27.7,9.7,7.7,6.2,13.2,14.8,15.5,24.3l-5.8,1.4Z"/>
        </g>
        <g class="st1">
          <path class="st6" d="M140.2,73.3l-2.2-1.5c4.3-6.3,6.6-13.6,6.6-21.2s-2.5-15.8-7.3-22.2l2.2-1.6c5.1,6.9,7.9,15.2,7.9,23.9s-2.4,16.1-7.1,22.8Z"/>
        </g>
        <g class="st1">
          <path class="st6" d="M107.1,90.7c-8.2,0-16.2-2.5-22.9-7.2l1.6-2.2c6.3,4.4,13.7,6.7,21.4,6.7s17-3,23.7-8.4l1.7,2.1c-7.1,5.8-16.2,9-25.4,9Z"/>
        </g>
        <g class="st1">
          <path class="st6" d="M73.9,73.3h0c-.3-.6-.7-1.1-1-1.7h0c0-.1,2.5-1.7,2.5-1.7h0c.3.6.6,1.1.9,1.5h0c0,.1-2.5,1.8-2.5,1.8ZM73.1,71.6c.3.4.6.9.8,1.3l2-1.4c-.3-.4-.5-.8-.8-1.2l-2.1,1.3Z"/>
          <path class="st6" d="M71.1,41l-2.9-.8h0c.3-1.3.7-2.5,1.1-3.7h0c0-.1,2.8.9,2.8.9h0c-.4,1.2-.8,2.3-1.1,3.5h0ZM68.5,40l2.4.6c.3-1,.6-2.1,1-3.1l-2.3-.9c-.4,1.1-.8,2.2-1.1,3.3Z"/>
          <path class="st6" d="M71.7,69.8h0c-.6-1.2-1.1-2.4-1.6-3.5h0c0-.1,2.8-1.3,2.8-1.3h0c.5,1.2,1,2.2,1.5,3.3h0c0,.1-2.6,1.5-2.6,1.5ZM70.3,66.3c.5,1.1,1,2.1,1.5,3.1l2.2-1.2c-.5-1-1-1.9-1.4-2.9l-2.3,1Z"/>
          <path class="st6" d="M69.2,64.2h0c-.4-1.3-.8-2.5-1.1-3.7h0c0-.1,2.9-.9,2.9-.9h0c.3,1.3.6,2.4,1,3.5h0c0,.1-2.8,1.1-2.8,1.1ZM68.4,60.5c.3,1.1.6,2.2,1,3.3l2.3-.8c-.4-1-.7-2.1-.9-3.1l-2.4.6Z"/>
          <path class="st6" d="M75.5,30.7l-2.5-1.6h0c.7-1.2,1.4-2.2,2.2-3.2h0c0-.1,2.4,1.7,2.4,1.7h0c-.7,1-1.4,2-2,3h0ZM73.4,29l2.1,1.3c.6-.9,1.2-1.8,1.9-2.7l-1.9-1.5c-.7.9-1.4,1.9-2,2.8Z"/>
          <path class="st5" d="M69.9,54.2l-2.7.3c.1,1.2.3,2.5.5,3.7l2.7-.5c-.2-1.1-.4-2.3-.5-3.5Z"/>
          <path class="st5" d="M70.5,42.9l-2.7-.5c-.3,1.2-.4,2.5-.6,3.7l2.7.3c.1-1.2.3-2.3.5-3.5Z"/>
          <path class="st6" d="M72.9,35.7l-2.7-1.2h0c.5-1.3,1.1-2.4,1.7-3.5h0c0-.1,2.6,1.3,2.6,1.3h0c-.6,1.1-1.1,2.2-1.6,3.2h0ZM70.5,34.3l2.2,1c.4-1,.9-2,1.4-2.9l-2.1-1.2c-.6,1-1.1,2.1-1.5,3.1Z"/>
          <path class="st5" d="M69.7,50.5c0-.7,0-1.3,0-2h-2.7c0,.6,0,1.3,0,2s0,1.1,0,1.6h2.7c0-.6,0-1.1,0-1.6Z"/>
          <path class="st6" d="M112.7,13.7h-.1c-1.1-.2-2.3-.3-3.5-.4h-.1s.2-3,.2-3h.1c1.3,0,2.5.2,3.8.4h.1s-.4,3-.4,3ZM109.2,13c1.1,0,2.2.2,3.2.3l.4-2.4c-1.1-.2-2.3-.3-3.5-.3v2.4Z"/>
          <path class="st6" d="M103.3,13.4l-.3-3h.1c1.2-.1,2.5-.2,3.8-.2h.1s0,3,0,3h-.1c-1.2,0-2.3,0-3.5.2h-.1ZM103.3,10.7l.2,2.4c1.1-.1,2.2-.2,3.2-.2v-2.4c-1.2,0-2.3,0-3.5.2Z"/>
          <path class="st6" d="M97.7,14.4l-.7-2.9h.1c1.2-.3,2.5-.6,3.7-.8h.1s.5,2.9.5,2.9h-.1c-1.1.2-2.3.4-3.4.7h-.1ZM97.3,11.7l.6,2.4c1-.3,2.1-.5,3.2-.7l-.4-2.4c-1.1.2-2.3.4-3.4.7Z"/>
          <path class="st5" d="M114.7,13.9c1.1.2,2.3.5,3.4.9l.8-2.6c-1.2-.4-2.4-.7-3.6-.9l-.5,2.7Z"/>
          <path class="st6" d="M78.9,26.2l-2.3-2h0c.8-1,1.7-2,2.6-2.8h0c0,0,2.1,2.1,2.1,2.1h0c-.8.9-1.6,1.7-2.4,2.6h0ZM77,24.2l1.8,1.6c.7-.8,1.5-1.6,2.2-2.3l-1.7-1.8c-.8.8-1.6,1.6-2.4,2.5Z"/>
          <path class="st5" d="M120.1,15.4c1.1.4,2.2.9,3.2,1.4l1.2-2.5c-1.1-.5-2.3-1-3.5-1.5l-.9,2.6Z"/>
          <path class="st6" d="M82.9,22.2l-1.9-2.3h.1c1-.9,2-1.7,3-2.4h.1c0,0,1.7,2.4,1.7,2.4h-.1c-.9.7-1.9,1.5-2.8,2.2h-.1ZM81.3,19.9l1.6,1.9c.8-.7,1.7-1.4,2.6-2l-1.4-2c-.9.7-1.9,1.4-2.7,2.1Z"/>
          <path class="st7" d="M92.4,16.3l-1.2-2.8h.1c1.2-.5,2.3-1,3.5-1.4h.1s.9,2.8.9,2.8h-.1c-1.1.4-2.2.8-3.3,1.3h-.1ZM91.6,13.6l1,2.3c1-.4,2-.8,3-1.1l-.7-2.3c-1.1.4-2.2.8-3.3,1.2Z"/>
          <path class="st5" d="M86,16.4l1.4,2.3c1-.6,2-1.2,3.1-1.7l-1.2-2.4c-1.1.6-2.2,1.2-3.3,1.8Z"/>
          <path class="st5" d="M126.6,15.4l-1.3,2.4c.5.3,1,.6,1.5.9l1.4-2.3c-.5-.3-1-.6-1.6-.9Z"/>
        </g>
        <g class="st1">
          <path class="st6" d="M65.6,54.7l-3-1.7,3-1.7v3.4ZM63.2,53l2.1,1.2v-2.5l-2.1,1.2Z"/>
          <path class="st6" d="M62.2,54.7l-3-1.7,3-1.7v3.4ZM59.8,53l2.1,1.2v-2.5l-2.1,1.2Z"/>
          <path class="st6" d="M58.8,54.7l-3-1.7,3-1.7v3.4ZM56.4,53l2.1,1.2v-2.5l-2.1,1.2Z"/>
          <path class="st6" d="M55.4,54.7l-3-1.7,3-1.7v3.4ZM53,53l2.1,1.2v-2.5l-2.1,1.2Z"/>
          <path class="st6" d="M52,54.7l-3-1.7,3-1.7v3.4ZM49.6,53l2.1,1.2v-2.5l-2.1,1.2Z"/>
        </g>
        <g class="st1">
          <path class="st6" d="M151.7,23.4v-7.3l6.3,3.7-6.3,3.7ZM152,16.5v6.4l5.5-3.2-5.5-3.2Z"/>
          <polygon class="st6" points="159.7 16.3 165.7 19.7 159.7 23.1 159.7 16.3"/>
          <polygon class="st6" points="167.6 16.3 173.6 19.7 167.6 23.1 167.6 16.3"/>
          <path class="st6" d="M175.4,23.4v-7.3l6.3,3.7-6.3,3.7ZM175.7,16.5v6.4l5.5-3.2-5.5-3.2Z"/>
          <path class="st6" d="M183.3,23.4v-7.3l6.3,3.7-6.3,3.7ZM183.6,16.5v6.4l5.5-3.2-5.5-3.2Z"/>
        </g>
        <g class="st1">
          <polygon class="st6" points="166.6 68.4 169.6 70.1 166.6 71.9 166.6 68.4"/>
          <polygon class="st6" points="170.6 68.4 173.6 70.1 170.6 71.9 170.6 68.4"/>
          <polygon class="st6" points="174.6 68.4 177.6 70.1 174.6 71.9 174.6 68.4"/>
          <polygon class="st6" points="178.6 68.4 181.6 70.1 178.6 71.9 178.6 68.4"/>
          <polygon class="st6" points="182.6 68.4 185.6 70.1 182.6 71.9 182.6 68.4"/>
        </g>
        <polygon class="st3" points="199.9 30.4 202.5 31.9 199.9 33.3 199.9 30.4"/>
        <polygon class="st3" points="9.7 41.6 7.1 40.2 9.7 38.7 9.7 41.6"/>
        <polygon class="st3" points="13.1 57.4 10.5 55.9 13.1 54.4 13.1 57.4"/>
        <polygon class="st3" points="21.5 62.4 18.9 60.9 21.5 59.4 21.5 62.4"/>
        <polygon class="st3" points="201.2 54.2 203.8 55.7 201.2 57.2 201.2 54.2"/>
        <polygon class="st3" points="192.7 59.4 195.3 60.9 192.7 62.4 192.7 59.4"/>
        <polygon class="st2" points="174 43.6 176.5 45 174 46.5 174 43.6"/>
        <polygon class="st2" points="40.3 46.5 37.7 45 40.3 43.6 40.3 46.5"/>
        <polygon class="st2" points="14.3 67.8 11.7 66.3 14.3 64.9 14.3 67.8"/>
        <polygon class="st2" points="204.6 65.2 207.1 66.7 204.6 68.2 204.6 65.2"/>
        <g class="st1">
          <polygon class="st6" points="163.6 39.2 136.6 39.2 136.6 38.9 163.5 38.9 170.7 31.7 199.9 31.7 199.9 32 170.8 32 163.6 39.2"/>
        </g>
        <g class="st1">
          <polygon class="st5" points="188.2 44.1 178.4 34.3 138.3 34.3 138.3 34.1 178.5 34.1 188.4 43.9 188.2 44.1"/>
        </g>
        <g class="st1">
          <polygon class="st6" points="167.5 66.2 134.5 66.2 134.5 65.9 167.4 65.9 177.6 55.7 201.1 55.7 201.1 55.9 177.8 55.9 167.5 66.2"/>
        </g>
        <g class="st1">
          <polygon class="st5" points="189.6 73.6 178.4 73.6 159.1 54.4 138.3 54.4 138.3 54.1 159.2 54.1 178.5 73.4 189.5 73.4 196.3 66.6 204.6 66.6 204.6 66.8 196.4 66.8 189.6 73.6"/>
        </g>
        <g class="st1">
          <rect class="st6" x="137.2" y="60.8" width="55.6" height=".3"/>
        </g>
        <g class="st1">
          <rect class="st5" x="138.3" y="44.9" width="35.6" height=".3"/>
        </g>
        <g class="st1">
          <polygon class="st5" points="77.6 73.6 50.6 73.6 43.4 66.5 14.3 66.5 14.3 66.2 43.5 66.2 50.7 73.4 77.6 73.4 77.6 73.6"/>
        </g>
        <g class="st1">
          <polygon class="st5" points="19.4 50.7 19.2 50.5 35.7 34.1 75.9 34.1 75.9 34.3 35.8 34.3 19.4 50.7"/>
        </g>
        <g class="st1">
          <polygon class="st6" points="79.7 66.2 46.7 66.2 36.5 55.9 13.1 55.9 13.1 55.7 36.6 55.7 46.8 65.9 79.7 65.9 79.7 66.2"/>
        </g>
        <g class="st1">
          <polygon class="st6" points="35.9 47.1 24.6 47.1 17.8 40.3 9.7 40.3 9.7 40.1 17.9 40.1 24.7 46.9 35.7 46.9 55 27.6 75.9 27.6 75.9 27.9 55.1 27.9 35.9 47.1"/>
        </g>
        <g class="st1">
          <rect class="st6" x="21.5" y="60.8" width="55.6" height=".3"/>
        </g>
        <g class="st1">
          <rect class="st5" x="40.3" y="44.9" width="35.6" height=".3"/>
        </g>
        <g class="st1">
          <path class="st5" d="M165.9,53.3h-1.8l-.9-1.6.9-1.6h1.8l.9,1.6-.9,1.6ZM164.2,53.1h1.5l.7-1.3-.7-1.3h-1.5l-.7,1.3.7,1.3Z"/>
        </g>
        <polygon class="st3" points="169.7 50.4 168 50.4 167.2 51.8 168 53.2 169.7 53.2 170.5 51.8 169.7 50.4"/>
        <polygon class="st3" points="173.6 50.4 171.9 50.4 171.1 51.8 171.9 53.2 173.6 53.2 174.4 51.8 173.6 50.4"/>
        <g class="st1">
          <path class="st6" d="M53.2,20.4h-5.8l-2.9-5,2.9-5h5.8l2.9,5-2.9,5ZM47.6,20.2h5.5l2.7-4.7-2.7-4.7h-5.5l-2.7,4.7,2.7,4.7Z"/>
        </g>
        <polygon class="st3" points="31.6 78.9 26.8 78.9 24.5 83 26.8 87.2 31.6 87.2 34 83 31.6 78.9"/>
        <polygon class="st3" points="43.6 90.3 42 90.3 41.2 91.7 42 93.1 43.6 93.1 44.4 91.7 43.6 90.3"/>
        <g class="st1">
          <path class="st5" d="M36.9,86.6h-3.7l-1.8-3.2,1.8-3.2h3.7l1.8,3.2-1.8,3.2ZM33.4,86.3h3.3l1.7-2.9-1.7-2.9h-3.3l-1.7,2.9,1.7,2.9Z"/>
        </g>
        <g class="st1">
          <path class="st6" d="M65.4,18.4h-3.4l-1.7-2.9,1.7-2.9h3.4l1.7,2.9-1.7,2.9ZM62.2,18.1h3.1l1.5-2.7-1.5-2.7h-3.1l-1.5,2.7,1.5,2.7Z"/>
        </g>
        <g class="st1">
          <path class="st5" d="M61.3,7h-1.9l-.9-1.6.9-1.6h1.9l.9,1.6-.9,1.6ZM59.6,6.7h1.5l.8-1.3-.8-1.3h-1.5l-.8,1.3.8,1.3Z"/>
        </g>
        <g class="st1">
          <path class="st6" d="M159,86.8h-5.8l-2.9-5,2.9-5h5.8l2.9,5-2.9,5ZM153.4,86.6h5.5l2.7-4.7-2.7-4.7h-5.5l-2.7,4.7,2.7,4.7Z"/>
        </g>
        <g class="st1">
          <path class="st6" d="M183.5,93.6h-3.4l-1.7-2.9,1.7-2.9h3.4l1.7,2.9-1.7,2.9ZM180.2,93.4h3.1l1.5-2.7-1.5-2.7h-3.1l-1.5,2.7,1.5,2.7Z"/>
        </g>
        <g class="st1">
          <path class="st5" d="M168.7,86.6h-1.9l-.9-1.6.9-1.6h1.9l.9,1.6-.9,1.6ZM167,86.3h1.5l.8-1.3-.8-1.3h-1.5l-.8,1.3.8,1.3Z"/>
        </g>
      </g>
    </g>
  </g>
</svg>