<?xml version="1.0" encoding="utf-8"?>
<!-- Generator: Adobe Illustrator 17.0.0, SVG Export Plug-In . SVG Version: 6.00 Build 0)  -->
<!DOCTYPE svg PUBLIC "-//W3C//DTD SVG 1.1//EN" "http://www.w3.org/Graphics/SVG/1.1/DTD/svg11.dtd">
<svg version="1.1" id="Capa_1" xmlns="http://www.w3.org/2000/svg" xmlns:xlink="http://www.w3.org/1999/xlink" x="0px" y="0px"
	 width="512px" height="512px" viewBox="0 0 512 512" enable-background="new 0 0 512 512" xml:space="preserve">
<g id="XMLID_238_">
	<path id="XMLID_239_" fill="#FFFFFF" d="M417.942,294.079c-31.852,0-71.713,5.556-84.753,7.511
		c-53.974-56.364-69.33-88.402-72.784-96.943c4.681-12.027,20.968-57.716,23.282-116.396c1.141-29.379-5.065-51.332-18.451-65.248
		C251.873,9.11,235.699,8.029,231.06,8.029c-16.263,0-43.546,8.224-43.546,63.296c0,47.784,22.279,98.488,28.437,111.589
		c-32.446,94.474-67.281,159.148-74.678,172.448C10.896,404.451,0.7,451.914,0.7,465.366c0,24.173,17.215,38.605,46.051,38.605
		c70.059,0,133.993-117.623,144.564-138.047c49.759-19.826,116.358-32.107,133.288-35.037
		c48.563,46.26,104.728,58.604,128.05,58.604c17.548,0,58.645,0,58.645-42.253C511.301,308.001,461.01,294.079,417.942,294.079z
		 M414.565,321.818c37.842,0,47.843,12.515,47.843,19.131c0,4.152-1.576,17.7-21.86,17.7c-18.189,0-49.593-10.512-80.49-33.321
		C372.943,323.635,392.01,321.818,414.565,321.818z M229.074,34.916c3.451,0,5.722,1.109,7.595,3.706
		c10.884,15.102,2.108,64.449-8.573,103.066c-10.311-33.112-18.049-83.918-7.162-101.792
		C223.062,36.407,225.495,34.916,229.074,34.916z M210.696,330.493c13.701-27.678,29.057-68.015,37.42-90.829
		c16.738,28.016,39.25,54.027,52.271,68.129C259.847,316.34,229.175,324.878,210.696,330.493z M27.915,469.059
		c-0.903-1.071-1.036-3.327-0.356-6.037c1.426-5.678,12.327-33.822,91.169-69.089c-11.289,17.782-28.938,43.19-48.326,62.171
		c-13.648,12.775-24.275,19.253-31.586,19.253C36.2,475.357,32.596,474.644,27.915,469.059z"/>
</g>
</svg>
