<?xml version="1.0" encoding="utf-8"?>
<!-- Generator: Adobe Illustrator 17.0.0, SVG Export Plug-In . SVG Version: 6.00 Build 0)  -->
<!DOCTYPE svg PUBLIC "-//W3C//DTD SVG 1.1//EN" "http://www.w3.org/Graphics/SVG/1.1/DTD/svg11.dtd">
<svg version="1.1" id="Capa_1" xmlns="http://www.w3.org/2000/svg" xmlns:xlink="http://www.w3.org/1999/xlink" x="0px" y="0px"
	 width="512px" height="512px" viewBox="0 0 512 512" enable-background="new 0 0 512 512" xml:space="preserve">
<g>
	<path fill="#FFFFFF" d="M0,0v512h512V0H0z M482,482H30V30h452V482z"/>
	<path fill="#FFFFFF" d="M157.54,309.52h59.52L232.9,352h34.08l-64.8-170.4H172.9L107.86,352h34.08L157.54,309.52z M187.54,219.28
		l23.52,66.96h-48L187.54,219.28z"/>
	<path fill="#FFFFFF" d="M337.541,354.4c38.209,0,53.917-23.28,58.56-32.88l-27.6-7.68c-2.081,5.123-11.918,17.04-29.76,17.04
		c-27.574,0-32.88-26.479-33.36-31.44h97.2c0.319-1.279,0.72-8.719,0.72-10.8c0-43.39-33.551-64.56-65.52-64.56
		c-44.781,0-66.48,34.545-66.48,65.76C271.301,324.625,297.375,354.4,337.541,354.4z M337.301,247.36
		c16.449,0,30.949,11.14,32.88,31.2h-65.28C306.375,260.125,320.375,247.36,337.301,247.36z"/>
</g>
</svg>
