<?xml version="1.0" encoding="utf-8"?>
<!-- Generator: Adobe Illustrator 17.0.0, SVG Export Plug-In . SVG Version: 6.00 Build 0)  -->
<!DOCTYPE svg PUBLIC "-//W3C//DTD SVG 1.1//EN" "http://www.w3.org/Graphics/SVG/1.1/DTD/svg11.dtd">
<svg version="1.1" id="Capa_1" xmlns="http://www.w3.org/2000/svg" xmlns:xlink="http://www.w3.org/1999/xlink" x="0px" y="0px"
	 width="512px" height="512px" viewBox="0 0 512 512" enable-background="new 0 0 512 512" xml:space="preserve">
<g>
	<path fill="#FFFFFF" d="M110.023,379.276c-0.452,1.279-1.533,2.238-2.85,2.52c-1.316,0.311-2.699-0.094-3.649-1.053l-12.517,12.517
		l3.499,3.499c-2.53-0.452-5.116-0.705-7.731-0.705c-9.094,0-18.536,2.896-27.283,9.658
		c-32.653,25.176-10.401,61.036-46.007,104.203c66.161-6.734,121.695-24.066,118.902-72.463c-0.056-1.062-0.188-2.107-0.329-3.141
		l3.659,3.668l12.517-12.517c-0.903-0.903-1.279-2.21-0.997-3.461c0.273-1.232,1.176-2.248,2.379-2.671
		c11.586-4.156,55.092-31.928,93.444-65.917l-67.478-67.478C142.102,323.742,114.265,367.389,110.023,379.276z M91.214,474.582
		c-11.558,5.954-26.794,10.665-46.092,14.229c5.041-12.762,7.044-24.555,8.793-34.938c3.019-17.841,4.965-26.775,15.696-35.061
		c5.323-4.109,11.097-6.198,17.163-6.198c0.658,0,1.317,0.028,1.975,0.075l27.17,27.179
		C116.221,450.262,113.192,463.278,91.214,474.582z"/>
	<path fill="#FFFFFF" d="M365.453,131.048c3.207,3.207-21.48,33.161-55.929,68.117l43.242,43.233
		C471.208,116.434,523.413,40.463,504.83,24.156c-16.298-18.574-92.278,33.631-218.243,152.063l10.75,10.749
		C332.284,152.51,362.228,127.832,365.453,131.048z"/>
	<path fill="#FFFFFF" d="M106.276,29.361L81.608,4.702C78.476,1.561,74.357,0,70.257,0c-4.11,0-8.22,1.561-11.352,4.702L4.697,58.91
		c-6.264,6.264-6.273,16.43,0,22.694l24.659,24.668L106.276,29.361z"/>
	<path fill="#FFFFFF" d="M511.337,503.658L433.645,356.74L176.1,99.195l8.182-8.182l-53.098-53.107L37.91,131.18l53.107,53.107
		l8.182-8.182L356.735,433.65l146.919,77.691c0.837,0.443,1.749,0.658,2.661,0.658c1.467,0,2.925-0.573,4.016-1.665
		C512.108,508.577,512.512,505.859,511.337,503.658z M162.915,112.596l243.222,257.95L148.188,127.324L162.915,112.596z
		 M112.591,162.911l14.737-14.728l243.222,257.95L112.591,162.911z M468.161,476.865l-98.589-52.139
		c0.687-8.615,7.787-13.063,16.439-13.279c16.28-0.414,25.045-8.756,25.468-25.468c0.197-8.653,4.646-15.724,13.251-16.411
		l52.017,98.372C474.64,471.363,471.734,474.486,468.161,476.865z"/>
</g>
</svg>
