<?xml version="1.0" encoding="utf-8"?>
<!-- Generator: Adobe Illustrator 17.0.0, SVG Export Plug-In . SVG Version: 6.00 Build 0)  -->
<!DOCTYPE svg PUBLIC "-//W3C//DTD SVG 1.1//EN" "http://www.w3.org/Graphics/SVG/1.1/DTD/svg11.dtd">
<svg version="1.1" id="Capa_1" xmlns="http://www.w3.org/2000/svg" xmlns:xlink="http://www.w3.org/1999/xlink" x="0px" y="0px"
	 width="512px" height="512px" viewBox="0 0 512 512" enable-background="new 0 0 512 512" xml:space="preserve">
<path fill="#FFFFFF" d="M281.473,28.047c-11.939,11.947-10.04,31.901,4.119,41.345l-41.65,110.695l-7.828-7.821l-45.725,45.739
	l25.227,25.234c-20.825,30.627-63.697,76.121-149.329,141.866l-21.279-21.272l-45.725,45.739l45.725,45.739l45.747-45.739
	l-15.835-15.835c42.991-33.055,78.027-63.116,104.968-90.064c11.366-11.366,21.264-22.158,29.741-32.407l-34.292,91.121
	c-8.007-1.065-16.393,1.445-22.538,7.597c-10.494,10.487-10.487,27.491,0,37.978c10.487,10.494,27.484,10.494,37.978,0
	c11.925-11.925,10.07-31.878-4.119-41.345l41.65-110.695l7.806,7.821l17.555-17.548c21.421,23.655,40.124,56.942,47.08,130.202
	c0.343,3.612,2.242,6.905,5.177,9.02c27.469,19.693,60.584,42.715,87.77,67.242l-10.375,10.375l28.78,28.787l100.618-100.618
	l-28.78-28.78l-10.383,10.375c-24.534-27.178-47.549-60.301-67.242-87.762c-2.115-2.949-5.415-4.834-9.02-5.184
	c-73.268-6.949-106.554-25.652-130.209-47.073l14.777-14.777l-28.541-28.542l43.594-115.842c8.007,1.065,16.394-1.452,22.546-7.605
	c10.487-10.487,10.487-27.491-0.008-37.971C308.964,17.552,291.96,17.552,281.473,28.047 M378.069,321.476
	c9.861,9.861,9.861,25.838,0,35.699c-9.861,9.861-25.845,9.869-35.707,0c-9.854-9.861-9.854-25.838,0.007-35.699
	C352.231,311.615,368.207,311.607,378.069,321.476"/>
</svg>
