<?xml version="1.0" encoding="utf-8"?>
<!-- Generator: Adobe Illustrator 17.0.0, SVG Export Plug-In . SVG Version: 6.00 Build 0)  -->
<!DOCTYPE svg PUBLIC "-//W3C//DTD SVG 1.1//EN" "http://www.w3.org/Graphics/SVG/1.1/DTD/svg11.dtd">
<svg version="1.1" id="Capa_1" xmlns="http://www.w3.org/2000/svg" xmlns:xlink="http://www.w3.org/1999/xlink" x="0px" y="0px"
	 width="512px" height="512px" viewBox="0 0 512 512" enable-background="new 0 0 512 512" xml:space="preserve">
<g>
	<g>
		<g>
			<path fill="#FFFFFF" d="M0,0v512h512V0H0z M482,482H30V30h452V482z"/>
		</g>
	</g>
	<g>
		<g>
			<polygon fill="#FFFFFF" points="411.119,226.24 373.678,321.76 358.558,280.96 380.398,226.48 354.478,226.48 341.039,265.12 
				327.838,226.48 301.918,226.48 323.998,280.96 308.639,321.76 271.2,226.24 240.96,226.24 293.279,352 319.679,352 
				341.039,296.8 362.639,352 389.039,352 441.598,226.24 			"/>
		</g>
	</g>
	<g>
		<g>
			<path fill="#FFFFFF" d="M148.322,181.6H86.401V352h61.921c59.428,0,84-44,84-85.44C232.322,214.75,198.25,181.6,148.322,181.6z
				 M148.322,322.96h-28.801V210.64h28.801c30.178,0,50.639,21.61,50.639,55.92C198.961,298.75,178.75,322.96,148.322,322.96z"/>
		</g>
	</g>
</g>
</svg>
