<?xml version="1.0" encoding="utf-8"?>
<!-- Generator: Adobe Illustrator 17.0.0, SVG Export Plug-In . SVG Version: 6.00 Build 0)  -->
<!DOCTYPE svg PUBLIC "-//W3C//DTD SVG 1.1//EN" "http://www.w3.org/Graphics/SVG/1.1/DTD/svg11.dtd">
<svg version="1.1" id="Layer_1" xmlns="http://www.w3.org/2000/svg" xmlns:xlink="http://www.w3.org/1999/xlink" x="0px" y="0px"
	 width="375.551px" height="480px" viewBox="0 0 375.551 480" enable-background="new 0 0 375.551 480" xml:space="preserve">
<g>
	<path fill="#00C8FF" d="M171.753,308.39c0-20.593-22.428-28.455-50.106-28.455c-27.666,0-47.121,16.697-47.121,37.29
		c0,20.587,13.494,34.337,41.165,34.337C143.367,351.562,171.753,328.983,171.753,308.39z"/>
	<path fill="#00C8FF" d="M299.829,317.225c0-20.593-19.45-37.29-47.131-37.29c-27.669,0-50.1,7.861-50.1,28.455
		c0,20.594,28.393,43.172,56.059,43.172C286.336,351.562,299.829,337.812,299.829,317.225z"/>
	<path fill="#00C8FF" d="M187.776,339.792c-17.418,0-36.356,57.39-20.686,63.67c5.901,2.371,13.056-11.777,20.686-11.777
		c7.624,0,14.773,14.147,20.68,11.777C224.119,397.182,205.197,339.792,187.776,339.792z"/>
	<polygon fill="#00C8FF" points="375.551,403.727 303.48,427.415 315.617,441.011 277.124,474.629 349.189,450.944 337.049,437.351 
			"/>
	<polygon fill="#00C8FF" points="72.068,427.414 0,403.726 38.502,437.35 26.355,450.943 98.423,474.631 59.928,441.01 	"/>
	<path fill="#00C8FF" d="M288.188,404.037c3.277,1.908,6.9,2.873,10.769,2.873c24.077,0,49.782-37.019,54.002-56.287
		c2.698-12.328-2.812-16.826-6.335-18.408c-8.062-3.629-17.079-30.924-8.102-52.769c11.616-28.279,11.598-58.093,11.474-63.784
		c0-6.597-0.66-13.25-1.954-19.764c-0.059-0.287-0.123-0.555-0.191-0.823l-0.074-0.311c-0.083-0.41-0.21-0.811-0.379-1.196
		c-1.544-3.493-4.76-10.762-52.64-16.478c-3.659-0.435-7.504-0.839-11.447-1.221l24.407-85.512c0.462-1.649,0.012-3.425-1.212-4.655
		l-82.95-84.251c-1.218-1.23-3-1.723-4.68-1.304l-115.249,28.93c-1.693,0.419-3.024,1.693-3.496,3.348L67.835,145.602
		c-0.472,1.652-0.022,3.419,1.202,4.655l25.042,25.431c-4.609,0.435-9.07,0.9-13.303,1.403
		c-47.861,5.716-51.08,12.982-52.624,16.475c-0.157,0.354-0.277,0.724-0.361,1.101l-0.083,0.345c-0.071,0.29-0.139,0.58-0.2,0.876
		c-1.301,6.533-1.958,13.182-1.958,19.78c-0.123,5.688-0.142,35.502,11.474,63.781c8.98,21.845-0.04,49.144-8.108,52.769
		c-3.524,1.581-9.03,6.079-6.329,18.405c4.22,19.271,29.928,56.29,54.002,56.29c3.869,0,7.491-0.965,10.765-2.87
		c3.601-2.096,7.18-3.157,10.639-3.157c6.329,0,10.83,3.496,13.49,6.428c5.713,6.292,8.552,16.018,7.676,26.177
		c-1.381,3.009-2.081,6.116-2.081,9.255c0,0.376,0.012,0.746,0.031,1.119c-0.133,0.98-0.006,1.976,0.364,2.904
		c3.678,19.024,33.434,33.193,70.301,33.193c36.948,0,66.75-14.234,70.317-33.323c0.317-0.842,0.444-1.763,0.339-2.694
		c0.022-0.398,0.034-0.799,0.034-1.199c0-3.144-0.697-6.252-2.075-9.255c-0.876-10.155,1.964-19.881,7.676-26.177
		c2.66-2.932,7.161-6.428,13.487-6.428C281.011,400.884,284.59,401.944,288.188,404.037z M282.685,142.729l-51.292,12.868
		l14.237-49.843l51.228-12.695L282.685,142.729z M186.987,120.683l36.279,36.954l-50.426,12.655l-36.769-37.352L186.987,120.683z
		 M134.714,128.322l14.196-49.779l51.53-13.808l-14.634,51.292L134.714,128.322z M190.483,117.348l14.6-51.178l35.89,38.237
		l-14.246,49.868L190.483,117.348z M295.63,88.415l-51.157,12.68l-36.106-38.477l48.949-13.121L295.63,88.415z M218.549,10.132
		l34.892,35.434l-48.798,13.071l-34.201-36.43L218.549,10.132z M165.09,23.552l34.26,36.507l-51.656,13.839l-36.267-36.877
		L165.09,23.552z M107.952,40.372l36.282,36.892l-14.147,49.606l-36.3-36.862L107.952,40.372z M77.943,145.234l14.32-50.042
		l36.307,36.941l-14.323,50.239l-2.91-3.243l-4.766-5.13h-0.003L77.943,145.234z M250.568,435.097
		c1.267,2.451,1.945,5.003,1.945,7.645c0,0.518-0.028,1.033-0.083,1.551c0.031,0.099,0.056,0.194,0.083,0.293
		c-0.046,0.012-0.09,0.022-0.126,0.031c-2.007,16.428-30.16,29.457-64.61,29.457c-34.457,0-62.61-13.028-64.62-29.457
		c-0.04-0.009-0.08-0.019-0.123-0.031c0.031-0.099,0.055-0.194,0.083-0.293c-0.052-0.518-0.083-1.033-0.083-1.551
		c0-2.642,0.684-5.195,1.951-7.645c2.386-21.839-10.291-40.102-26.99-40.102c-4.344,0-8.962,1.236-13.657,3.971
		c-2.432,1.415-5.04,2.056-7.747,2.056c-25.461,0-60.005-56.795-45.213-63.448c12.005-5.392,20.843-36.794,11.163-60.341
		c-12.088-29.435-11.036-61.047-11.036-61.567c0-6.335,0.635-12.553,1.843-18.63c0.077-0.376,0.176-0.74,0.259-1.11
		c2.716-6.135,28.134-11.499,65.813-14.813l5.993,6.082c-33.649,2.238-55.473,5.805-55.473,9.828
		c0,5.275,37.466,9.556,90.026,11.285L118.212,186h-0.003l-0.049-0.62l1.942-7.38h0.003l1.708-6h-0.003l10.667-36.615l36.889,37.856
		l-1.178,4.326l-2.041,7.239l-6.881,24.167c1.662,0.031,3.342,0.083,5.028,0.108l6.924-24.246l2.041-7.149l0.783-2.607L186.876,172
		h-0.003l37.568-9.567l-6.502,22.689l-6.872,24.021c1.696-0.028,3.391-0.07,5.065-0.1l1.609-5.638l12.128-42.474l51.286-12.867
		l-14.323,50.197l-16.678,4.186l-25.464,6.39c58.195-1.437,100.936-6.178,100.936-11.814c0-3.622-17.69-6.878-45.753-9.122
		l1.794-6.283c34.62,3.342,57.696,8.478,60.273,14.307c0.077,0.37,0.182,0.734,0.259,1.11c1.208,6.076,1.844,12.294,1.844,18.63
		c0,0.521,1.051,32.132-11.037,61.567c-9.677,23.547-0.832,54.949,11.154,60.341c14.804,6.653-19.74,63.448-45.204,63.448
		c-2.707,0-5.318-0.644-7.75-2.056c-4.692-2.735-9.307-3.971-13.654-3.971C260.861,394.998,248.179,413.258,250.568,435.097z"/>
</g>
</svg>
