<?xml version="1.0" encoding="utf-8"?>
<!-- Generator: Adobe Illustrator 17.0.0, SVG Export Plug-In . SVG Version: 6.00 Build 0)  -->
<!DOCTYPE svg PUBLIC "-//W3C//DTD SVG 1.1//EN" "http://www.w3.org/Graphics/SVG/1.1/DTD/svg11.dtd">
<svg version="1.1" id="Layer_1" xmlns:sketch="http://www.bohemiancoding.com/sketch/ns"
	 xmlns="http://www.w3.org/2000/svg" xmlns:xlink="http://www.w3.org/1999/xlink" x="0px" y="0px" width="16px" height="16px"
	 viewBox="0 0 16 16" enable-background="new 0 0 16 16" xml:space="preserve">
<title></title>
<g>
	<path fill="#FFFFFF" d="M8,0.031C3.599,0.031,0.031,3.599,0.031,8S3.599,15.969,8,15.969S15.969,12.401,15.969,8
		S12.401,0.031,8,0.031z M8,14.52c-3.601,0-6.52-2.919-6.52-6.52S4.399,1.48,8,1.48S14.52,4.399,14.52,8S11.601,14.52,8,14.52z"/>
	<polygon fill="#FFFFFF" points="8.724,4.378 7.276,4.378 7.276,7.276 4.378,7.276 4.378,8.724 7.276,8.724 7.276,11.622 
		8.724,11.622 8.724,8.724 11.622,8.724 11.622,7.276 8.724,7.276 	"/>
</g>
</svg>
